<svg width="97" height="106" fill="none" xmlns="http://www.w3.org/2000/svg"><path d="M58.096.037c-.088-.008-.166.003-.251.002l-.017-.002C32.766-.832 6.424 13.733 8.701 41.914c.009.115.037.216.057.322a2.84 2.84 0 00.038.929c1.375 6.43-.735 12.085-6.014 16.028-.242.18-.427.387-.589.603-.533.35-.955.888-1.182 1.538-.99 2.843-.238 5.736 2.033 7.713.375.325.808.546 1.26.665 1.466.81 2.998 1.349 4.59 1.725-.327 1.765-.166 3.55.684 5.23-1.587 3.093-.534 6.506 2.6 8.369.177.106.353.185.527.246.532.633.583 1.65.387 2.628-.06.3-.068.599-.046.89-.013.266-.005.535.046.806.826 4.333 4.527 6.726 8.762 6.803.229.004.439-.02.637-.06.196.01.402-.002.614-.036 6.8-1.103 14.545-.487 17.1 6.984.51 1.492 1.875 1.998 3.098 1.801.412.309.955.485 1.639.437 12.324-.861 24.54-2.651 36.777-4.294a2.876 2.876 0 001.132-.396c1.483-.463 2.681-2.123 1.723-3.913-8.176-15.244 8.4-31.876 11.545-46.52.07-.318.07-.61.043-.89C99.487 25.468 82.843 2.266 58.096.037zm32.846 48.412a3.132 3.132 0 00-.025.64C87.5 64.76 72.513 79.91 78.447 96.316c-11.145 1.514-22.281 3.067-33.507 3.853-.08.005-.149.027-.225.039-4.012-8.93-13.348-10.531-22.584-9.133-.093-.01-.178-.031-.277-.033-1.052-.02-1.601-.129-2.422-.63.072.023-.421-.371-.417-.365a2.9 2.9 0 00-.147-.141c0-.021-.028-.085-.132-.253-.156-.25-.271-.603-.367-1.001.476-3.29-.458-6.147-3.214-8.25a1.927 1.927 0 00-.726-.325c-.08-.067-.157-.131-.24-.216.015.007 0-.026-.047-.103 0-.068-.005-.09-.012-.084.032-.142.064-.285.114-.423.001-.005.402-.626.534-.813.37-.522.446-1.155.33-1.764.11-.6.031-1.228-.33-1.751-1.015-1.471-.816-2.723 0-4.27 1.168-2.213-.936-4.234-2.8-4.027-.02-.002-.037-.009-.056-.012-1.89-.25-3.718-.803-5.356-1.782-.118-.069-.233-.111-.348-.163a4.164 4.164 0 01-.227-.367l-.036-.113-.032-.144a4.49 4.49 0 01.004-.368c.01-.033.027-.11.05-.23 6.818-5.327 9.747-12.65 8.088-21.21.003-.107.014-.207.005-.321-2.046-25.332 21.52-37.28 43.757-36.51.07.002.132-.01.2-.013.025.003.045.01.07.013 21.11 1.902 35.852 22.49 32.845 43.043z" fill="currentColor"/><path d="M63.824 13.05H47.587c-1.198 0-1.9.76-2.12 1.657-.485.36-.8.939-.729 1.76 1.184 13.742 2.657 27.45 4.925 41.058.218 1.309 1.236 1.767 2.24 1.618.165.036.339.055.527.055h6.837c1.506 0 2.234-1.196 2.198-2.364.04-.15.07-.312.08-.485.92-13.55 3.08-26.96 4.558-40.451a2.14 2.14 0 00-.108-.993c-.16-.982-.884-1.856-2.17-1.856zm-6.703 41.59h-3.33c-1.985-12.281-3.312-24.642-4.395-37.033h11.951c-1.4 12.348-3.29 24.637-4.226 37.033zm-8.179 10.892c-4.99 7.438 6.727 14.705 12.083 7.923 1.775-2.247 2.096-4.415 1.519-6.235-1.573-4.954-9.817-7.331-13.602-1.688zm7.005 6.236a2.805 2.805 0 01-.391.064c-3.097.285-3.727-5.009-.132-5.19 3.092-.157 3.278 4.492.523 5.126z" fill="currentColor"/></svg>