<svg width="97" height="97" fill="none" xmlns="http://www.w3.org/2000/svg"><path d="M96.583 42.178a13.25 13.25 0 00-4.908-10.3c.134-.643.201-1.26.201-1.867 0-5.01-3.705-9.172-8.518-9.889a9.02 9.02 0 00.163-1.702c0-5.334-4.204-9.693-9.47-9.97a1.62 1.62 0 00-.265-.026c-.044 0-.087.006-.132.007-.043-.001-.086-.007-.131-.007a8.87 8.87 0 00-1.538.138A10.498 10.498 0 0061.657 0C55.848 0 51.12 4.728 51.12 10.54v72.128c0 7.357 5.984 13.34 13.34 13.34 4.88 0 9.31-2.64 11.648-6.835a10.33 10.33 0 001.534.217 11.93 11.93 0 008.672-2.947 11.889 11.889 0 004.049-8.217 11.622 11.622 0 00-.441-3.981c4.153-2.945 6.594-7.607 6.594-12.716 0-3.704-1.333-7.26-3.77-10.093 2.452-2.481 3.838-5.801 3.838-9.258zm-3.348 19.354c0 3.812-1.731 7.309-4.7 9.65-2.197-3.498-6.094-5.731-10.315-5.731a1.642 1.642 0 000 3.283 8.939 8.939 0 018.297 5.698c.448 1.19.647 2.395.57 3.583a8.624 8.624 0 01-2.938 5.962 8.624 8.624 0 01-6.294 2.138c-.65-.043-1.322-.183-2.115-.44a1.642 1.642 0 00-2.02.92 10.047 10.047 0 01-9.263 6.131c-5.545 0-10.056-4.511-10.056-10.057V10.542c0-4.002 3.255-7.258 7.256-7.258 3.719 0 6.778 2.803 7.176 6.464-3.01 1.725-5.046 4.963-5.046 8.673a1.641 1.641 0 103.282 0c0-3.658 2.943-6.636 6.583-6.707 3.64.07 6.583 3.049 6.583 6.706 0 .68-.128 1.385-.393 2.156a1.645 1.645 0 00-.081.69l-.01.038a1.642 1.642 0 001.697 2.042c.114-.008.228-.022.43-.05a6.722 6.722 0 016.713 6.714c0 .625-.112 1.268-.352 2.023a1.64 1.64 0 00.647 1.86 9.964 9.964 0 014.392 7.924l-.001.013c0 5.504-4.478 9.983-9.982 9.983s-9.982-4.479-9.982-9.983a1.641 1.641 0 10-3.283 0c0 7.315 5.95 13.265 13.265 13.265 2.438 0 4.716-.673 6.681-1.825 2.101 2.287 3.26 5.212 3.26 8.261zM35.507.001c-5.126 0-9.4 3.655-10.324 8.562a8.892 8.892 0 00-1.54-.138c-.044 0-.086.006-.131.007-.044-.001-.087-.007-.131-.007-.091 0-.179.012-.265.027-5.267.276-9.47 4.635-9.47 9.969 0 .562.054 1.127.164 1.702-4.814.717-8.519 4.878-8.519 9.889 0 .606.067 1.223.202 1.866A13.25 13.25 0 00.584 42.18c0 3.457 1.385 6.777 3.835 9.26C1.982 54.273.65 57.83.65 61.532c0 5.11 2.44 9.77 6.594 12.716a11.57 11.57 0 00-.44 3.982 11.888 11.888 0 004.048 8.216 11.91 11.91 0 008.673 2.947 10.636 10.636 0 001.531-.218 13.319 13.319 0 0011.65 6.836c7.355 0 13.339-5.984 13.339-13.34v-72.13C46.046 4.73 41.318.001 35.507.001zm7.256 82.668c0 5.546-4.511 10.057-10.056 10.057a10.044 10.044 0 01-9.262-6.132 1.642 1.642 0 00-2.02-.919c-.792.257-1.464.397-2.115.44a8.617 8.617 0 01-6.293-2.138 8.624 8.624 0 01-2.938-5.963c-.083-1.269.137-2.556.655-3.824.008-.018.005-.04.012-.058 1.468-3.344 4.623-5.42 8.312-5.42a1.641 1.641 0 100-3.282 12.325 12.325 0 00-10.447 5.733c-2.955-2.341-4.68-5.83-4.68-9.632 0-3.05 1.16-5.974 3.259-8.26a13.169 13.169 0 006.682 1.825c7.315 0 13.265-5.95 13.265-13.265a1.64 1.64 0 10-3.283 0c0 5.504-4.477 9.983-9.982 9.983-5.505 0-9.982-4.479-9.982-9.983l-.002-.006a9.966 9.966 0 014.392-7.931 1.64 1.64 0 00.646-1.86c-.24-.755-.352-1.397-.352-2.023 0-3.694 3-6.702 6.778-6.702h.024c.113.015.226.03.34.037a1.64 1.64 0 001.686-2.087l.008-.104a1.627 1.627 0 00-.09-.579c-.264-.773-.392-1.479-.392-2.157 0-3.657 2.941-6.637 6.583-6.707 3.641.071 6.583 3.05 6.583 6.708a1.64 1.64 0 103.282 0c0-3.71-2.036-6.949-5.046-8.673.398-3.661 3.457-6.464 7.175-6.464 4.002 0 7.257 3.256 7.257 7.257l.001 72.13z" fill="currentColor"/></svg>