<svg width="80" height="80" fill="none" xmlns="http://www.w3.org/2000/svg"><g clip-path="url(#clip0_291_235)"><path fill-rule="evenodd" clip-rule="evenodd" d="M40 0c22.092 0 40 18.36 40 41.012 0 18.116-11.448 33.484-27.332 38.912-2.028.404-2.748-.877-2.748-1.969 0-1.352.048-5.768.048-11.256 0-3.824-1.28-6.32-2.716-7.592 8.908-1.016 18.268-4.484 18.268-20.236 0-4.48-1.552-8.136-4.12-11.008.416-1.036 1.788-5.207-.392-10.855 0 0-3.352-1.1-10.988 4.205-3.196-.908-6.62-1.365-10.02-1.381-3.4.016-6.82.473-10.012 1.38-7.644-5.303-11.004-4.204-11.004-4.204-2.172 5.648-.8 9.82-.388 10.855-2.556 2.872-4.12 6.528-4.12 11.008 0 15.712 9.34 19.234 18.224 20.27-1.144 1.024-2.18 2.83-2.54 5.482-2.28 1.048-8.072 2.862-11.64-3.406 0 0-2.116-3.94-6.132-4.229 0 0-3.9-.051-.272 2.492 0 0 2.62 1.26 4.44 6 0 0 2.348 7.32 13.476 4.84.02 3.428.056 6.66.056 7.635 0 1.084-.736 2.353-2.732 1.973C11.46 74.508 0 59.132 0 41.012 0 18.36 17.912 0 40 0z" fill="currentColor"/></g><defs><clipPath id="clip0_291_235"><path fill="#fff" d="M0 0h80v80H0z"/></clipPath></defs></svg>