<svg width="265" height="224" fill="none" xmlns="http://www.w3.org/2000/svg"><path d="M2.071 54.555l11.008-16.384L2.903 23.067v-.256h10.816l5.312 8.512 5.184-8.512h10.048v.256L24.087 38.235l11.008 16.32v.256H24.279l-6.144-9.728-6.016 9.728H2.071v-.256zm0 157.832l11.008-16.384-10.176-15.104v-.256h10.816l5.312 8.512 5.184-8.512h10.048v.256l-10.176 15.168 11.008 16.32v.256H24.279l-6.144-9.728-6.016 9.728H2.071v-.256zm227.008 0l11.008-16.384-10.176-15.104v-.256h10.816l5.312 8.512 5.184-8.512h10.048v.256l-10.176 15.168 11.008 16.32v.256h-10.816l-6.144-9.728-6.016 9.728h-10.048v-.256zm-1-157.832l11.008-16.384-10.176-15.104v-.256h10.816l5.312 8.512 5.184-8.512h10.048v.256l-10.176 15.168 11.008 16.32v.256h-10.816l-6.144-9.728-6.016 9.728h-10.048v-.256z" fill="currentColor"/><path d="M38.5 217V18m187 199V18m39 200V18M0 217.5h264M0 18.5h264M0 59.5h264M0 175.5h264" stroke="currentColor"/></svg>