<svg width="401" height="165" fill="none" xmlns="http://www.w3.org/2000/svg"><path d="M50.5 55.5h300v62h-300v-62z" stroke="currentColor"/><path d="M178.92 37.936c0-10.048 6.656-16.576 16.384-16.576 9.344 0 15.36 6.016 15.36 15.168 0 .96-.064 2.048-.256 3.328h-22.4c.64 4.352 3.456 7.104 7.424 7.104 3.136 0 5.568-1.792 6.08-4.416h9.344c-.896 7.232-7.232 12.096-15.616 12.096-9.856 0-16.32-6.784-16.32-16.704zm16.512-9.536c-3.2 0-5.696 1.92-6.848 5.056h12.864c-.32-3.008-2.688-5.056-6.016-5.056zM176.92 134.936c0-10.048 6.656-16.576 16.384-16.576 9.344 0 15.36 6.016 15.36 15.168 0 .96-.064 2.048-.256 3.328h-22.4c.64 4.352 3.456 7.104 7.424 7.104 3.136 0 5.568-1.792 6.08-4.416h9.344c-.896 7.232-7.232 12.096-15.616 12.096-9.856 0-16.32-6.784-16.32-16.704zm16.512-9.536c-3.2 0-5.696 1.92-6.848 5.056h12.864c-.32-3.008-2.688-5.056-6.016-5.056zM32.064 68.92c10.048 0 16.576 6.656 16.576 16.384 0 9.344-6.016 15.36-15.168 15.36-.96 0-2.048-.064-3.328-.256v-22.4c-4.352.64-7.104 3.456-7.104 7.424 0 3.136 1.792 5.568 4.416 6.08v9.344C20.224 99.96 15.36 93.624 15.36 85.24c0-9.856 6.784-16.32 16.704-16.32zM41.6 85.432c0-3.2-1.92-5.696-5.056-6.848v12.864c3.008-.32 5.056-2.688 5.056-6.016zM367.936 99.08c-10.048 0-16.576-6.656-16.576-16.384 0-9.344 6.016-15.36 15.168-15.36.96 0 2.048.064 3.328.256v22.4c4.352-.64 7.104-3.456 7.104-7.424 0-3.136-1.792-5.568-4.416-6.08v-9.344c7.232.896 12.096 7.232 12.096 15.616 0 9.856-6.784 16.32-16.704 16.32zM358.4 82.568c0 3.2 1.92 5.696 5.056 6.848V76.552c-3.008.32-5.056 2.688-5.056 6.016z" fill="currentColor"/><path stroke="currentColor" d="M14.5 20.5h371v132h-371z"/></svg>