<svg width="80" height="80" fill="none" xmlns="http://www.w3.org/2000/svg"><path fill-rule="evenodd" clip-rule="evenodd" d="M40 80c22.091 0 40-17.909 40-40S62.091 0 40 0 0 17.909 0 40s17.909 40 40 40zM25.422 36.464V25H20v29.703h5.417l.005-10.467c-.005-1.756.16-3.083.491-3.982.325-.898.842-1.57 1.554-2.019.702-.444 1.508-.672 2.407-.672.784 0 1.435.176 1.957.527a2.71 2.71 0 011.09 1.405c.206.589.304 1.978.304 4.167v11.04h5.422V42.445c0-1.875-.093-3.258-.28-4.147a6.59 6.59 0 00-1.042-2.442c-.506-.734-1.26-1.338-2.267-1.808-1.002-.475-2.122-.712-3.372-.712-2.427 0-4.518 1.048-6.264 3.129zm21.353 0V25h-5.417v29.703h5.417V44.236c0-1.756.165-3.083.49-3.982.331-.898.847-1.57 1.555-2.019.702-.444 1.507-.672 2.406-.672.785 0 1.44.176 1.957.527.522.346.883.811 1.09 1.405.207.589.31 1.978.31 4.167v11.04H60V42.445c0-1.875-.093-3.258-.28-4.147a6.598 6.598 0 00-1.042-2.442c-.506-.734-1.26-1.338-2.262-1.808-1.007-.475-2.133-.712-3.377-.712-2.427 0-4.519 1.048-6.264 3.129z" fill="currentColor"/></svg>