<svg width="84" height="24" fill="none" xmlns="http://www.w3.org/2000/svg"><path d="M.05 1.5H3.8v6.925H11V1.5h3.75V19H11v-7.275H3.8V19H.05V1.5zm17.499 11.225c0-3.925 2.6-6.475 6.4-6.475 3.65 0 6 2.35 6 5.925 0 .375-.025.8-.1 1.3h-8.75c.25 1.7 1.35 2.775 2.9 2.775 1.225 0 2.175-.7 2.375-1.725h3.65c-.35 2.825-2.825 4.725-6.1 4.725-3.85 0-6.375-2.65-6.375-6.525zM23.999 9c-1.25 0-2.225.75-2.675 1.975h5.025C26.224 9.8 25.299 9 23.999 9zm7.515 6.475c0-2.3 1.85-3.775 4.6-3.775h3.275v-1.175c0-1.05-.75-1.725-1.95-1.725-1.4 0-2.05.9-2.1 1.95h-3.35c.15-2.525 2.25-4.5 5.575-4.5 3.175 0 5.475 1.8 5.475 4.65V19h-3.275l-.25-1.75c-.425 1.175-2.025 2-3.825 2-2.525 0-4.175-1.6-4.175-3.775zm3.75-.1c0 .8.55 1.35 1.575 1.35 1.55 0 2.525-1.25 2.55-2.825h-2.45c-1.05 0-1.675.625-1.675 1.475zM46.504 19V.75h3.65V19h-3.65zm7.251 0V6.5h3.65V19h-3.65zm-.1-16.325c0-1.2.725-1.925 1.925-1.925 1.2 0 1.925.725 1.925 1.925 0 1.2-.725 1.925-1.925 1.925-1.2 0-1.925-.725-1.925-1.925zm8.551 7.175h-2.25V6.5h2.25V5.35c0-3.4 2.375-4.6 5.075-4.6.7 0 1.475.075 2.2.175V4.25a8.545 8.545 0 00-1.55-.15c-1.175 0-2.075.325-2.075 1.675V6.5h3.625v3.35h-3.625V19h-3.65V9.85zm10.842 5.875c-1.1-2.5-2.2-5.65-2.2-8.675V6.5h3.75v.55c0 2.5.775 5.05 1.625 7.1l.875 2.125h.1l.875-2.125c.85-2.05 1.625-4.6 1.625-7.1V6.5h3.6v.55c0 3.025-1.1 6.175-2.2 8.675L77.498 24h-3.975v-.1l2.475-4.9h-1.525l-1.425-3.275z" fill="currentColor"/></svg>