<svg width="211" height="151" fill="none" xmlns="http://www.w3.org/2000/svg"><path d="M100.4 7.8V5h2c1.18 0 2.2-.42 2.2-2h2.8v11.2h2.6V17h-9.2v-2.8h3.6V7.08c-.48.6-1.24.72-2 .72h-2zm12.804 7.66c0-1.08.66-1.74 1.74-1.74s1.74.66 1.74 1.74-.66 1.74-1.74 1.74-1.74-.66-1.74-1.74zm9.179-4.36h-2.8l.9-8.1h9.2v2.64h-6.84l-.3 2.7c.94-.6 2.02-.84 3.14-.84 2.92 0 5.2 1.62 5.2 4.72 0 3.08-2.24 4.98-5.88 4.98-3.04 0-5.32-1.74-5.42-4.18h3c.12 1.18 1.4 1.58 2.5 1.58 1.62 0 2.7-.86 2.7-2.28 0-1.4-1.04-2.26-2.72-2.26-1.08 0-2.14.34-2.68 1.04zm9.904 5.82l3.44-5.12-3.18-4.72V7h3.38l1.66 2.66 1.62-2.66h3.14v.08l-3.18 4.74 3.44 5.1V17h-3.38l-1.92-3.04-1.88 3.04h-3.14v-.08zM17.662 94.18l-5.12-3.44-4.72 3.18h-.08v-3.38l2.66-1.66-2.66-1.62v-3.14h.08l4.74 3.18 5.1-3.44h.08v3.38l-3.04 1.92 3.04 1.88v3.14h-.08z" fill="currentColor"/><mask id="a" fill="currentColor"><path d="M19 27h3v124h-3V27z"/></mask><path d="M19 27v-1h-1v1h1zm0 124h-1v1h1v-1zm0-123h3v-2h-3v2zm3 122h-3v2h3v-2zm-2 1V27h-2v124h2z" fill="currentColor" mask="url(#a)"/><mask id="b" fill="currentColor"><path d="M211 18v3H25v-3h186z"/></mask><path d="M211 18h1v-1h-1v1zM25 18v-1h-1v1h1zm185 0v3h2v-3h-2zM26 21v-3h-2v3h2zm-1-2h186v-2H25v2z" fill="currentColor" mask="url(#b)"/></svg>