<svg width="168" height="168" fill="none" xmlns="http://www.w3.org/2000/svg"><path d="M83.557 57.61c9.52 5.975 13.919 14.496 14.414 22.92-.255 8.757-4.94 16.48-13.788 23.085-1.727.957-2.765 1.287-5.027 1.405-8.961-3.69-13.509-10.695-15.817-17.193-2.792-8.93-.183-17.302 7.015-25.076 6.736-6.33 6.736-6.33 13.203-5.141z" fill="currentColor"/><path d="M83.557 57.61c9.52 5.975 13.919 14.496 14.414 22.92-.255 8.757-4.94 16.48-13.788 23.085-1.727.957-2.765 1.287-5.027 1.405-8.961-3.69-13.509-10.695-15.817-17.193-2.792-8.93-.183-17.302 7.015-25.076 6.736-6.33 6.736-6.33 13.203-5.141zm32.058 5.167c3.463 6.422 2.521 15.416-.573 21.804-3.414 5.783-8.475 11.565-15.537 15.104h-1.534c1.34-3.155 2.908-6.222 4.51-9.303 3.183-6.768 2.582-15.422-.171-22.207-.504-1.297-.504-1.297-.504-3.055a322.715 322.715 0 014.315-1.501l2.428-.844c2.727-.646 4.326-.523 7.066.002z" fill="currentColor"/><path d="M55.198 62.857c2.415.7 4.753 1.495 7.082 2.339-1.574 5.845-1.574 5.845-2.004 7.156-2.045 9.246-.015 17.95 5.938 26.163v1.17c-8.56-2.934-13.871-8.782-17.213-15.126-2.048-4.183-2.602-7.551-2.606-11.983l-.03-1.653c-.008-2.897.076-5.385 1.751-8.066 2.402-.892 4.57-.468 7.082 0zm69.526 15.53c5.169-.187 8.316.188 12.945 1.775-.402 7.176-6.336 12.982-13.808 17.756-7.405 4.186-16.311 6.774-25.89 7.103 2.624-1.92 5.321-3.471 8.414-5.031 8.638-4.706 13.239-10.98 16.613-18.052l.974-2 .752-1.551z" fill="currentColor"/><path d="M39.507 78.387l.73 1.692c4.502 10.053 11.457 17.165 23.928 23.293l2.049 1.057v.592c-11.69-.402-22.44-4.273-30.473-10.074-4.736-3.955-9.882-9.472-9.157-14.785 4.622-1.587 7.763-1.962 12.923-1.775z" fill="currentColor"/><path d="M30.452 94.35l2.908 1.656 1.843 1.044c1.203.688 2.398 1.384 3.583 2.09 8.96 5.291 18.765 7.155 29.882 8.457-3.771 2.863-9.637 2.696-14.694 2.759-10.83-.027-19.35-2.707-27.458-8.143-1.048-.924-1.048-.924-1.516-2.738.675-2.846 2.398-3.483 5.452-5.125zm104.887 0c5.951 2.392 5.951 2.392 7.143 4.941-1.548 3.599-5.794 5.414-10.272 7.285-10.399 3.816-22.379 4.906-33.767 2.519a116.196 116.196 0 01-3.6-.941v-.627l1.481-.171c15.788-1.87 27.426-4.926 39.015-13.006z" fill="currentColor"/><path d="M135.339 94.35c5.951 2.392 5.951 2.392 7.143 4.941-1.548 3.599-5.794 5.414-10.272 7.285-10.399 3.816-22.379 4.906-33.767 2.519a116.196 116.196 0 01-3.6-.941v-.627l1.481-.171c15.788-1.87 27.426-4.926 39.015-13.006z" fill="currentColor"/></svg>