<svg width="169" height="168" fill="none" xmlns="http://www.w3.org/2000/svg"><path d="M83.383 45.891c6.077 8.735 8.885 21.191 9.201 33.506-.163 12.803-3.153 24.091-8.802 33.747-1.102 1.399-1.765 1.883-3.209 2.055-5.72-5.395-8.624-15.635-10.097-25.135-1.783-13.053-.117-25.292 4.478-36.657 4.3-9.252 4.3-9.252 8.429-7.516z" fill="currentColor"/><path d="M83.383 45.891c6.077 8.735 8.885 21.191 9.201 33.506-.163 12.803-3.153 24.091-8.802 33.747-1.102 1.399-1.765 1.883-3.209 2.055-5.72-5.395-8.624-15.635-10.097-25.135-1.783-13.053-.117-25.292 4.478-36.657 4.3-9.252 4.3-9.252 8.429-7.516zm20.465 7.554c2.211 9.388 1.609 22.536-.366 31.874-2.179 8.454-5.41 16.907-9.919 22.08h-.979c.855-4.611 1.857-9.095 2.879-13.6 2.032-9.893 1.649-22.545-.109-32.463-.321-1.896-.321-1.896-.321-4.466a157.37 157.37 0 012.754-2.194l1.55-1.235c1.741-.944 2.762-.763 4.511.004z" fill="currentColor"/><path d="M65.278 53.562c1.54 1.024 3.033 2.185 4.52 3.419-1.004 8.545-1.004 8.545-1.279 10.461-1.306 13.517-.01 26.241 3.791 38.248v1.709c-5.465-4.288-8.855-12.838-10.988-22.112-1.308-6.115-1.662-11.038-1.664-17.518l-.019-2.417c-.005-4.234.048-7.872 1.117-11.79 1.534-1.304 2.918-.684 4.522 0zm44.385 22.702c3.3-.272 5.308.275 8.264 2.596-.257 10.49-4.045 18.977-8.815 25.957-4.727 6.119-10.413 9.903-16.528 10.383 1.675-2.806 3.397-5.074 5.372-7.355 5.514-6.879 8.451-16.05 10.605-26.39l.622-2.923.48-2.268z" fill="currentColor"/><path d="M55.26 76.264l.467 2.474C58.6 93.435 63.04 103.831 71 112.79l1.309 1.545v.865c-7.463-.587-14.325-6.246-19.454-14.726-3.023-5.783-6.308-13.848-5.845-21.614 2.95-2.32 4.955-2.868 8.25-2.596z" fill="currentColor"/><path d="M49.48 99.6l1.857 2.421 1.177 1.527c.767 1.006 1.53 2.023 2.287 3.055 5.72 7.735 11.98 10.46 19.076 12.362-2.407 4.187-6.152 3.943-9.38 4.035-6.914-.041-12.353-3.957-17.53-11.905-.669-1.351-.669-1.351-.967-4.002.43-4.161 1.53-5.091 3.48-7.493zm66.961 0c3.799 3.497 3.799 3.497 4.56 7.223-.988 5.261-3.699 7.914-6.557 10.65-6.639 5.579-14.287 7.172-21.556 3.683a46.96 46.96 0 01-2.298-1.376v-.917l.945-.25c10.079-2.734 17.508-7.201 24.906-19.013z" fill="currentColor"/><path d="M116.441 99.6c3.799 3.497 3.799 3.497 4.56 7.223-.988 5.261-3.699 7.914-6.557 10.65-6.639 5.579-14.287 7.172-21.556 3.683a46.96 46.96 0 01-2.298-1.376v-.917l.945-.25c10.079-2.734 17.508-7.201 24.906-19.013z" fill="currentColor"/></svg>