<svg width="186" height="125" fill="none" xmlns="http://www.w3.org/2000/svg"><path d="M92.708 2.1c15.073 13.851 22.038 33.606 22.821 53.136-.403 20.304-7.82 38.206-21.83 53.519-2.735 2.219-4.378 2.985-7.96 3.259-14.189-8.556-21.389-24.795-25.043-39.861-4.42-20.702-.29-40.11 11.107-58.135C82.468-.655 82.468-.655 92.708 2.099z" fill="currentColor"/><path d="M92.708 2.1c15.073 13.851 22.038 33.606 22.821 53.136-.403 20.304-7.82 38.206-21.83 53.519-2.735 2.219-4.378 2.985-7.96 3.259-14.189-8.556-21.389-24.795-25.043-39.861-4.42-20.702-.29-40.11 11.107-58.135C82.468-.655 82.468-.655 92.708 2.099zm50.758 11.978c5.484 14.89 3.992 35.74-.907 50.55-5.405 13.407-13.418 26.811-24.6 35.016h-2.43c2.121-7.313 4.605-14.424 7.141-21.567 5.04-15.69 4.088-35.755-.271-51.483-.797-3.009-.797-3.009-.797-7.083a406.023 406.023 0 016.833-3.48l3.843-1.958c4.318-1.498 6.85-1.211 11.188.005z" fill="currentColor"/><path d="M47.806 14.265c3.823 1.624 7.525 3.465 11.213 5.42-2.492 13.553-2.492 13.553-3.173 16.591-3.238 21.437-.023 41.616 9.402 60.657v2.71c-13.555-6.8-21.964-20.358-27.254-35.066-3.244-9.698-4.12-17.506-4.127-27.782l-.046-3.832c-.013-6.715.12-12.484 2.772-18.698 3.802-2.068 7.236-1.086 11.213 0zm110.083 36.002c8.184-.432 13.166.436 20.496 4.117-.637 16.636-10.031 30.096-21.863 41.165-11.724 9.704-25.825 15.704-40.993 16.466 4.155-4.451 8.425-8.048 13.323-11.664 13.676-10.909 20.961-25.454 26.304-41.85l1.542-4.637 1.191-3.597z" fill="currentColor"/><path d="M22.962 50.267l1.157 3.924c7.127 23.307 18.14 39.794 37.884 54.002l3.245 2.45v1.372C46.738 111.084 29.72 102.11 17 88.661c-7.5-9.17-15.646-21.96-14.5-34.277 7.318-3.68 12.29-4.55 20.461-4.117zM8.625 87.275l4.604 3.84 2.918 2.422a372.677 372.677 0 015.673 4.844c14.187 12.267 29.712 16.588 47.314 19.606-5.972 6.639-15.26 6.252-23.267 6.398-17.147-.064-30.637-6.276-43.475-18.88-1.66-2.143-1.66-2.143-2.4-6.347 1.069-6.599 3.797-8.074 8.633-11.883zm166.072-.001c9.422 5.546 9.422 5.546 11.31 11.456-2.451 8.343-9.174 12.551-16.263 16.889-16.466 8.848-35.435 11.375-53.465 5.842a142.215 142.215 0 01-5.699-2.183v-1.454l2.345-.396c24.996-4.336 43.424-11.42 61.772-30.154z" fill="currentColor"/><path d="M174.697 87.274c9.422 5.546 9.422 5.546 11.31 11.456-2.451 8.343-9.174 12.551-16.263 16.889-16.466 8.848-35.435 11.375-53.465 5.842a142.215 142.215 0 01-5.699-2.183v-1.454l2.345-.396c24.996-4.336 43.424-11.42 61.772-30.154z" fill="currentColor"/></svg>