<svg width="169" height="168" fill="none" xmlns="http://www.w3.org/2000/svg"><path d="M84.481 45.536c9.52 8.749 13.919 21.226 14.414 33.56-.255 12.824-4.94 24.13-13.788 33.802-1.727 1.401-2.765 1.885-5.027 2.058-8.962-5.404-13.509-15.66-15.817-25.175-2.792-13.075-.184-25.333 7.015-36.717 6.735-9.267 6.735-9.267 13.203-7.528z" fill="currentColor"/><path d="M84.481 45.536c9.52 8.749 13.919 21.226 14.414 33.56-.255 12.824-4.94 24.13-13.788 33.802-1.727 1.401-2.765 1.885-5.027 2.058-8.962-5.404-13.509-15.66-15.817-25.175-2.792-13.075-.184-25.333 7.015-36.717 6.735-9.267 6.735-9.267 13.203-7.528zm32.057 7.566c3.464 9.404 2.522 22.573-.572 31.926-3.414 8.468-8.475 16.934-15.537 22.115h-1.535c1.34-4.618 2.909-9.11 4.51-13.62 3.184-9.91 2.583-22.583-.17-32.517-.504-1.9-.504-1.9-.504-4.473a261.072 261.072 0 014.315-2.198l2.428-1.236c2.727-.946 4.326-.765 7.065.003z" fill="currentColor"/><path d="M56.122 53.22c2.414 1.025 4.752 2.188 7.082 3.424-1.574 8.559-1.574 8.559-2.004 10.478-2.045 13.539-.015 26.284 5.938 38.309v1.712c-8.561-4.295-13.872-12.858-17.213-22.147-2.049-6.125-2.602-11.056-2.606-17.546l-.03-2.421c-.008-4.241.076-7.885 1.751-11.81 2.402-1.305 4.57-.685 7.082 0zm69.526 22.738c5.169-.273 8.315.276 12.945 2.6-.402 10.507-6.336 19.008-13.808 25.999-7.405 6.129-16.311 9.919-25.89 10.4 2.623-2.811 5.32-5.083 8.414-7.367 8.638-6.89 13.239-16.076 16.613-26.432l.974-2.928.752-2.272z" fill="currentColor"/><path d="M40.43 75.958l.731 2.478c4.502 14.72 11.457 25.133 23.927 34.107l2.05 1.547v.867c-11.69-.588-22.44-6.256-30.473-14.75-4.736-5.792-9.882-13.87-9.157-21.649 4.622-2.324 7.762-2.873 12.923-2.6zm-9.054 23.374l2.908 2.425 1.843 1.529a241.558 241.558 0 013.583 3.06c8.96 7.748 18.765 10.477 29.882 12.383-3.771 4.193-9.637 3.948-14.694 4.041-10.83-.041-19.35-3.964-27.459-11.925-1.048-1.353-1.048-1.353-1.515-4.008.675-4.168 2.398-5.1 5.452-7.505zm104.889 0c5.95 3.502 5.95 3.502 7.143 7.235-1.549 5.269-5.795 7.926-10.272 10.666-10.399 5.589-22.38 7.184-33.767 3.69a89.295 89.295 0 01-3.6-1.378v-.919l1.481-.25c15.788-2.739 27.426-7.212 39.015-19.044z" fill="currentColor"/><path d="M136.265 99.332c5.95 3.502 5.95 3.502 7.143 7.235-1.549 5.269-5.795 7.926-10.272 10.666-10.399 5.589-22.38 7.184-33.767 3.69a89.295 89.295 0 01-3.6-1.378v-.919l1.481-.25c15.788-2.739 27.426-7.212 39.015-19.044z" fill="currentColor"/></svg>