<svg width="140" height="140" fill="none" xmlns="http://www.w3.org/2000/svg"><path d="M83.36 136.035h8.144c7.324 0 13.652-.469 17.813-1.465 8.086-1.992 13.124-7.617 13.124-14.824 0-1.465-.234-2.871-.644-4.219 4.043-2.929 6.328-7.441 6.328-12.304 0-2.403-.468-4.746-1.348-6.68 2.695-2.754 4.337-6.797 4.337-11.074 0-2.754-.703-5.684-1.935-7.793 1.7-2.403 2.638-5.625 2.638-9.2 0-8.73-6.797-15.644-15.528-15.644H94.141c-1.407 0-2.344-.645-2.344-1.816 0-6.387 9.961-21.211 9.961-33.106 0-8.086-5.625-13.945-13.418-13.945-5.742 0-9.61 2.988-13.418 10.254-7.148 13.71-15.586 25.84-29.531 42.832H34.258c-14.473 0-26.074 16.347-26.074 36.328 0 19.746 12.773 36.152 28.3 36.152H55.82c7.735 4.043 17.11 6.504 27.54 6.504zm8.203-8.848l-8.145-.117c-24.55-.176-41.191-14.062-41.191-33.984 0-12.656 2.812-20.742 10.78-31.406 8.849-11.777 21.036-25.899 29.825-43.418 2.344-4.688 3.574-5.45 5.508-5.45 2.871 0 4.57 1.817 4.57 5.098 0 9.492-9.96 23.906-9.96 33.106 0 6.62 5.507 10.664 12.48 10.664h20.859c3.868 0 6.68 2.93 6.68 6.797 0 2.812-.879 4.629-3.164 6.855-.586.586-.88 1.172-.88 1.817 0 .468.177.995.587 1.464 1.933 2.813 2.754 4.57 2.754 6.856 0 2.812-1.347 5.156-3.985 7.207-1.113.82-1.699 1.758-1.699 2.754 0 .351.059.761.293 1.171 1.699 3.223 2.402 4.512 2.402 6.622 0 3.164-1.992 5.566-6.21 7.734-.879.469-1.407 1.172-1.407 2.051 0 .351.118.703.293 1.113 1.465 3.574 1.641 4.16 1.641 5.625 0 2.871-2.11 5.156-6.387 6.211-3.457.879-8.965 1.289-15.644 1.23zm-55.079-6.504c-10.37 0-19.453-12.48-19.453-27.304 0-15.117 8.145-27.48 17.227-27.48h5.39c-4.394 8.203-6.27 16.816-6.27 27.011 0 11.016 3.985 20.508 11.075 27.773h-7.969z" fill="currentColor"/></svg>