<svg width="313" height="70" fill="none" xmlns="http://www.w3.org/2000/svg"><path d="M5.248 9.2h9.6v17.728H33.28V9.2h9.6V54h-9.6V35.376H14.848V54h-9.6V9.2zm44.797 28.736c0-10.048 6.656-16.576 16.384-16.576 9.344 0 15.36 6.016 15.36 15.168 0 .96-.064 2.048-.256 3.328h-22.4c.64 4.352 3.456 7.104 7.424 7.104 3.136 0 5.568-1.792 6.08-4.416h9.344c-.896 7.232-7.232 12.096-15.616 12.096-9.856 0-16.32-6.784-16.32-16.704zM66.557 28.4c-3.2 0-5.696 1.92-6.848 5.056h12.864c-.32-3.008-2.688-5.056-6.016-5.056zm19.238 16.576c0-5.888 4.736-9.664 11.776-9.664h8.384v-3.008c0-2.688-1.92-4.416-4.992-4.416-3.584 0-5.248 2.304-5.376 4.992h-8.576c.384-6.464 5.76-11.52 14.272-11.52 8.128 0 14.016 4.608 14.016 11.904V54h-8.384l-.64-4.48c-1.088 3.008-5.184 5.12-9.792 5.12-6.464 0-10.688-4.096-10.688-9.664zm9.6-.256c0 2.048 1.408 3.456 4.032 3.456 3.968 0 6.464-3.2 6.528-7.232h-6.272c-2.688 0-4.288 1.6-4.288 3.776zM124.171 54V7.28h9.344V54h-9.344zm18.562 0V22h9.344v32h-9.344zm-.256-41.792c0-3.072 1.856-4.928 4.928-4.928s4.928 1.856 4.928 4.928-1.856 4.928-4.928 4.928-4.928-1.856-4.928-4.928zm21.891 18.368h-5.76V22h5.76v-2.944c0-8.704 6.08-11.776 12.992-11.776 1.792 0 3.776.192 5.632.448v8.512a21.875 21.875 0 00-3.968-.384c-3.008 0-5.312.832-5.312 4.288V22h9.28v8.576h-9.28V54h-9.344V30.576zm27.754 15.04c-2.816-6.4-5.632-14.464-5.632-22.208V22h9.6v1.408c0 6.4 1.984 12.928 4.16 18.176l2.24 5.44h.256l2.24-5.44c2.176-5.248 4.16-11.776 4.16-18.176V22h9.216v1.408c0 7.744-2.816 15.808-5.632 22.208L203.514 66.8h-10.176v-.256L199.674 54h-3.904l-3.648-8.384zM267.541 4.66c6.076 3.842 8.884 9.32 9.199 14.735-.162 5.63-3.152 10.595-8.799 14.841-1.102.615-1.765.828-3.209.904-5.719-2.373-8.621-6.876-10.094-11.054-1.782-5.74-.118-11.122 4.477-16.12 4.299-4.07 4.299-4.07 8.426-3.305zm20.46 3.323c2.211 4.128 1.609 9.91-.365 14.017-2.179 3.718-5.409 7.435-9.917 9.71h-.979c.855-2.028 1.856-4 2.879-5.98 2.031-4.352 1.648-9.916-.109-14.277-.322-.834-.322-.834-.322-1.964.914-.329 1.833-.649 2.754-.965l1.549-.543c1.741-.415 2.762-.336 4.51.002z" fill="currentColor"/><path d="M249.44 8.034c1.541.45 3.033.961 4.52 1.503-1.004 3.758-1.004 3.758-1.279 4.601-1.305 5.944-.009 11.54 3.79 16.82v.752c-5.464-1.886-8.853-5.646-10.986-9.724-1.307-2.69-1.661-4.855-1.663-7.704l-.019-1.063c-.005-1.862.048-3.462 1.117-5.185 1.533-.573 2.917-.3 4.52 0zm44.375 9.983c3.299-.12 5.307.121 8.262 1.142-.257 4.613-4.044 8.345-8.813 11.415-4.726 2.691-10.41 4.355-16.524 4.566 1.675-1.234 3.396-2.232 5.37-3.234 5.513-3.025 8.45-7.059 10.603-11.605l.622-1.286.48-.998z" fill="currentColor"/><path d="M239.426 18.017l.466 1.088c2.873 6.463 7.312 11.035 15.271 14.975l1.308.68v.38c-7.461-.258-14.321-2.747-19.448-6.476-3.023-2.543-6.307-6.09-5.844-9.505 2.949-1.02 4.954-1.261 8.247-1.142z" fill="currentColor"/><path d="M234.614 28.28l1.856 1.064 1.177.672c.767.442 1.53.89 2.286 1.343 5.719 3.402 11.977 4.6 19.072 5.437-2.407 1.841-6.151 1.734-9.378 1.774-6.912-.018-12.35-1.74-17.525-5.235-.669-.594-.669-.594-.967-1.76.43-1.83 1.53-2.24 3.479-3.295zm65.977 0c3.798 1.537 3.798 1.537 4.559 3.176-.988 2.313-3.698 3.48-6.555 4.683-6.638 2.454-14.284 3.154-21.552 1.62-.77-.192-1.539-.39-2.297-.605v-.403l.945-.11c10.076-1.203 17.504-3.167 24.9-8.362z" fill="currentColor"/></svg>