<svg width="313" height="71" fill="none" xmlns="http://www.w3.org/2000/svg"><path d="M5.248 9.7h9.6v17.728H33.28V9.7h9.6v44.8h-9.6V35.876H14.848V54.5h-9.6V9.7zm44.797 28.736c0-10.048 6.656-16.576 16.384-16.576 9.344 0 15.36 6.016 15.36 15.168 0 .96-.064 2.048-.256 3.328h-22.4c.64 4.352 3.456 7.104 7.424 7.104 3.136 0 5.568-1.792 6.08-4.416h9.344c-.896 7.232-7.232 12.096-15.616 12.096-9.856 0-16.32-6.784-16.32-16.704zM66.557 28.9c-3.2 0-5.696 1.92-6.848 5.056h12.864c-.32-3.008-2.688-5.056-6.016-5.056zm19.238 16.576c0-5.888 4.736-9.664 11.776-9.664h8.384v-3.008c0-2.688-1.92-4.416-4.992-4.416-3.584 0-5.248 2.304-5.376 4.992h-8.576c.384-6.464 5.76-11.52 14.272-11.52 8.128 0 14.016 4.608 14.016 11.904V54.5h-8.384l-.64-4.48c-1.088 3.008-5.184 5.12-9.792 5.12-6.464 0-10.688-4.096-10.688-9.664zm9.6-.256c0 2.048 1.408 3.456 4.032 3.456 3.968 0 6.464-3.2 6.528-7.232h-6.272c-2.688 0-4.288 1.6-4.288 3.776zm28.776 9.28V7.78h9.344V54.5h-9.344zm18.562 0v-32h9.344v32h-9.344zm-.256-41.792c0-3.072 1.856-4.928 4.928-4.928s4.928 1.856 4.928 4.928-1.856 4.928-4.928 4.928-4.928-1.856-4.928-4.928zm21.891 18.368h-5.76V22.5h5.76v-2.944c0-8.704 6.08-11.776 12.992-11.776 1.792 0 3.776.192 5.632.448v8.512a21.875 21.875 0 00-3.968-.384c-3.008 0-5.312.832-5.312 4.288V22.5h9.28v8.576h-9.28V54.5h-9.344V31.076zm27.754 15.04c-2.816-6.4-5.632-14.464-5.632-22.208V22.5h9.6v1.408c0 6.4 1.984 12.928 4.16 18.176l2.24 5.44h.256l2.24-5.44c2.176-5.248 4.16-11.776 4.16-18.176V22.5h9.216v1.408c0 7.744-2.816 15.808-5.632 22.208L203.514 67.3h-10.176v-.256l6.336-12.544h-3.904l-3.648-8.384zM267.541 7.49c6.076 5.762 8.884 13.98 9.199 22.103-.162 8.445-3.152 15.891-8.799 22.261-1.102.923-1.765 1.242-3.209 1.355-5.719-3.558-8.621-10.313-10.094-16.58-1.782-8.61-.118-16.683 4.477-24.18 4.299-6.104 4.299-6.104 8.426-4.958zm20.46 4.983c2.211 6.194 1.609 14.867-.365 21.027-2.179 5.576-5.409 11.152-9.917 14.564h-.979c.855-3.041 1.856-6 2.879-8.97 2.031-6.527 1.648-14.873-.109-21.415-.322-1.25-.322-1.25-.322-2.946.914-.493 1.833-.973 2.754-1.447.511-.27 1.023-.538 1.549-.815 1.741-.623 2.762-.503 4.51.002z" fill="currentColor"/><path d="M249.44 12.551c1.541.676 3.033 1.441 4.52 2.255-1.004 5.637-1.004 5.637-1.279 6.9-1.305 8.917-.009 17.31 3.79 25.23v1.128c-5.464-2.828-8.853-8.468-10.986-14.586-1.307-4.033-1.661-7.281-1.663-11.555l-.019-1.595c-.005-2.793.048-5.192 1.117-7.777 1.533-.86 2.917-.451 4.52 0zm44.375 14.975c3.299-.18 5.307.182 8.262 1.712-.257 6.92-4.044 12.519-8.813 17.123-4.726 4.037-10.41 6.532-16.524 6.849 1.675-1.851 3.396-3.347 5.37-4.852 5.513-4.537 8.45-10.587 10.603-17.407l.622-1.929.48-1.496z" fill="currentColor"/><path d="M239.426 27.526l.466 1.632c2.873 9.695 7.312 16.552 15.271 22.462l1.308 1.02v.57c-7.461-.387-14.321-4.12-19.448-9.714-3.023-3.815-6.307-9.135-5.844-14.258 2.949-1.53 4.954-1.892 8.247-1.712z" fill="currentColor"/><path d="M234.614 42.92l1.856 1.596 1.177 1.008c.767.663 1.53 1.334 2.286 2.015 5.719 5.102 11.977 6.9 19.072 8.155-2.407 2.761-6.151 2.6-9.378 2.661-6.912-.027-12.35-2.61-17.525-7.853-.669-.891-.669-.891-.967-2.64.43-2.745 1.53-3.358 3.479-4.943zm65.977-.001c3.798 2.307 3.798 2.307 4.559 4.765-.988 3.47-3.698 5.22-6.555 7.025-6.638 3.68-14.284 4.731-21.552 2.43a56.151 56.151 0 01-2.297-.908v-.605l.945-.165c10.076-1.803 17.504-4.75 24.9-12.542z" fill="currentColor"/></svg>