<svg width="313" height="64" fill="none" xmlns="http://www.w3.org/2000/svg"><path d="M3.936 7.9h7.2v13.296H24.96V7.9h7.2v33.6h-7.2V27.532H11.136V41.5h-7.2V7.9zm33.598 21.552c0-7.536 4.992-12.432 12.288-12.432 7.008 0 11.52 4.512 11.52 11.376 0 .72-.048 1.536-.192 2.496h-16.8c.48 3.264 2.592 5.328 5.568 5.328 2.352 0 4.176-1.344 4.56-3.312h7.008c-.672 5.424-5.424 9.072-11.712 9.072-7.392 0-12.24-5.088-12.24-12.528zM49.918 22.3c-2.4 0-4.272 1.44-5.136 3.792h9.648c-.24-2.256-2.016-3.792-4.512-3.792zm14.428 12.432c0-4.416 3.552-7.248 8.832-7.248h6.288v-2.256c0-2.016-1.44-3.312-3.744-3.312-2.688 0-3.936 1.728-4.032 3.744h-6.432c.288-4.848 4.32-8.64 10.704-8.64 6.096 0 10.512 3.456 10.512 8.928V41.5h-6.288l-.48-3.36c-.816 2.256-3.888 3.84-7.344 3.84-4.848 0-8.016-3.072-8.016-7.248zm7.2-.192c0 1.536 1.056 2.592 3.024 2.592 2.976 0 4.848-2.4 4.896-5.424h-4.704c-2.016 0-3.216 1.2-3.216 2.832zm21.582 6.96V6.46h7.008V41.5h-7.008zm13.922 0v-24h7.008v24h-7.008zm-.192-31.344c0-2.304 1.392-3.696 3.696-3.696 2.304 0 3.696 1.392 3.696 3.696 0 2.304-1.392 3.696-3.696 3.696-2.304 0-3.696-1.392-3.696-3.696zm16.418 13.776h-4.32V17.5h4.32v-2.208c0-6.528 4.56-8.832 9.744-8.832 1.344 0 2.832.144 4.224.336v6.384a16.406 16.406 0 00-2.976-.288c-2.256 0-3.984.624-3.984 3.216V17.5h6.96v6.432h-6.96V41.5h-7.008V23.932zm20.816 11.28c-2.112-4.8-4.224-10.848-4.224-16.656V17.5h7.2v1.056c0 4.8 1.488 9.696 3.12 13.632l1.68 4.08h.192l1.68-4.08c1.632-3.936 3.12-8.832 3.12-13.632V17.5h6.912v1.056c0 5.808-2.112 11.856-4.224 16.656L152.636 51.1h-7.632v-.192l4.752-9.408h-2.928l-2.736-6.288zM267.541 7.49c6.076 5.762 8.884 13.98 9.199 22.103-.162 8.445-3.152 15.891-8.799 22.261-1.102.923-1.765 1.242-3.209 1.355-5.719-3.558-8.621-10.313-10.094-16.58-1.782-8.61-.118-16.683 4.477-24.18 4.299-6.104 4.299-6.104 8.426-4.958zm20.46 4.983c2.211 6.194 1.609 14.867-.365 21.027-2.179 5.576-5.409 11.152-9.917 14.564h-.979c.855-3.041 1.856-6 2.879-8.97 2.031-6.527 1.648-14.873-.109-21.415-.322-1.25-.322-1.25-.322-2.946.914-.493 1.833-.973 2.754-1.447.511-.27 1.023-.538 1.549-.815 1.741-.623 2.762-.503 4.51.002z" fill="currentColor"/><path d="M249.44 12.551c1.541.676 3.033 1.441 4.52 2.255-1.004 5.637-1.004 5.637-1.279 6.9-1.305 8.917-.009 17.31 3.79 25.23v1.128c-5.464-2.828-8.853-8.468-10.986-14.586-1.307-4.033-1.661-7.281-1.663-11.555l-.019-1.595c-.005-2.793.048-5.192 1.117-7.777 1.533-.86 2.917-.451 4.52 0zm44.375 14.975c3.299-.18 5.307.182 8.262 1.712-.257 6.92-4.044 12.519-8.813 17.123-4.726 4.037-10.41 6.532-16.524 6.849 1.675-1.851 3.396-3.347 5.37-4.852 5.513-4.537 8.45-10.587 10.603-17.407l.622-1.929.48-1.496z" fill="currentColor"/><path d="M239.426 27.526l.466 1.632c2.873 9.695 7.312 16.552 15.271 22.462l1.308 1.02v.57c-7.461-.387-14.321-4.12-19.448-9.714-3.023-3.815-6.307-9.135-5.844-14.258 2.949-1.53 4.954-1.892 8.247-1.712z" fill="currentColor"/><path d="M234.614 42.92l1.856 1.596 1.177 1.008c.767.663 1.53 1.334 2.286 2.015 5.719 5.102 11.977 6.9 19.072 8.155-2.407 2.761-6.151 2.6-9.378 2.661-6.912-.027-12.35-2.61-17.525-7.853-.669-.891-.669-.891-.967-2.64.43-2.745 1.53-3.358 3.479-4.943zm65.977-.001c3.798 2.307 3.798 2.307 4.559 4.765-.988 3.47-3.698 5.22-6.555 7.025-6.638 3.68-14.284 4.731-21.552 2.43a56.151 56.151 0 01-2.297-.908v-.605l.945-.165c10.076-1.803 17.504-4.75 24.9-12.542z" fill="currentColor"/></svg>