<svg width="44" height="44" fill="none" xmlns="http://www.w3.org/2000/svg"><g clip-path="url(#clip0_458_2476)" fill="currentColor"><path d="M23.375 5.844c3.718 3.595 5.436 8.723 5.629 13.793-.1 5.27-1.929 9.917-5.385 13.892-.674.576-1.08.775-1.963.846-3.5-2.221-5.275-6.436-6.177-10.347-1.09-5.374-.071-10.412 2.74-15.09 2.63-3.81 2.63-3.81 5.156-3.094z"/><path d="M35.75 9.969c1.552 3.768 1.13 9.046-.257 12.794-1.53 3.393-3.797 6.786-6.962 8.862h-.687c.6-1.85 1.303-3.65 2.02-5.458 1.427-3.972 1.158-9.05-.076-13.03-.226-.762-.226-.762-.226-1.793.642-.3 1.287-.592 1.934-.881l1.088-.496c1.222-.379 1.938-.306 3.166.002zm-24.406 0a41.52 41.52 0 013.094 1.375c-.688 3.437-.688 3.437-.876 4.208-.893 5.437-.006 10.556 2.595 15.386v.687c-3.74-1.725-6.06-5.164-7.52-8.895-.895-2.46-1.137-4.44-1.139-7.046l-.012-.973c-.004-1.703.033-3.166.764-4.742 1.05-.525 1.997-.276 3.094 0z"/><path d="M38.5 19.25c2.059-.108 3.312.11 5.156 1.031-.16 4.168-2.523 7.54-5.5 10.313-2.95 2.431-6.497 3.934-10.312 4.125 1.045-1.115 2.12-2.016 3.351-2.922 3.44-2.733 5.273-6.377 6.617-10.484l.389-1.162.299-.9zm-33 0l.291.983c1.797 5.839 4.572 9.97 9.548 13.528l.817.614v.344c-4.664-.233-8.953-2.482-12.158-5.85C2.108 26.57.055 23.366.344 20.28c1.844-.922 3.097-1.14 5.156-1.03zM2.063 29.906l1.203.903.762.569c.498.375.993.754 1.483 1.139 3.707 2.883 7.764 3.899 12.364 4.608-1.56 1.56-3.988 1.47-6.08 1.504-4.481-.015-8.006-1.475-11.361-4.438C0 33.687 0 33.687-.193 32.699c.279-1.55.992-1.897 2.256-2.793z"/><path d="M41.594 29.906c2.273 1.31 2.273 1.31 2.728 2.707-.591 1.972-2.213 2.966-3.923 3.991-3.973 2.09-8.55 2.688-12.899 1.38a34.624 34.624 0 01-1.375-.515v-.344l.566-.093c6.03-1.025 10.476-2.699 14.903-7.126z"/></g><defs><clipPath id="clip0_458_2476"><path fill="#fff" d="M0 0h44v44H0z"/></clipPath></defs></svg>