<svg width="41" height="41" fill="none" xmlns="http://www.w3.org/2000/svg"><path d="M37.333 20.067c0 9.536-7.73 17.266-17.266 17.266v2.8c11.082 0 20.066-8.984 20.066-20.066h-2.8zM20.067 37.333c-9.536 0-17.267-7.73-17.267-17.266H0c0 11.082 8.984 20.066 20.067 20.066v-2.8zM2.8 20.067C2.8 10.53 10.53 2.8 20.067 2.8V0C8.984 0 0 8.984 0 20.067h2.8zm23.8 4.2c-5.928 0-10.733-4.806-10.733-10.734h-2.8c0 7.475 6.059 13.534 13.533 13.534v-2.8zm9.194-5.191a10.727 10.727 0 01-9.194 5.19v2.8c4.918 0 9.223-2.624 11.59-6.543l-2.396-1.447zm-19.927-5.543c0-3.898 2.077-7.312 5.19-9.194L19.61 1.943a13.527 13.527 0 00-6.543 11.59h2.8zm4.2-10.733a.717.717 0 01-.5-.22.532.532 0 01-.153-.29c-.008-.058-.004-.226.196-.347l1.448 2.396c.94-.567 1.241-1.606 1.13-2.423-.113-.85-.783-1.916-2.12-1.916v2.8zM38.19 20.523c-.12.2-.289.204-.347.196a.53.53 0 01-.289-.153.717.717 0 01-.22-.5h2.8c0-1.337-1.067-2.007-1.916-2.121-.818-.11-1.857.191-2.424 1.13l2.397 1.448z" fill="currentColor"/></svg>