<svg width="96" height="97" fill="none" xmlns="http://www.w3.org/2000/svg"><path d="M91.552 55.362a17.401 17.401 0 00-10.373.192l-11.91 3.842c-.191-.769-.768-1.73-1.728-2.69-1.921-2.113-4.994-3.457-8.068-3.457h-10.18c-.577 0-1.345-.192-1.73-.577-7.491-6.338-16.135-3.457-18.632-2.305a4.182 4.182 0 00-1.537.96l-11.718 9.797c-.96-.96-2.305-1.728-3.65-1.92-1.728-.193-3.457.192-4.994 1.344l-4.418 3.266c-2.881 2.305-3.458 6.339-1.345 9.412l15.368 20.362c1.152 1.345 2.69 2.305 4.418 2.497h.96c1.345 0 2.882-.384 4.034-1.345l4.418-3.265c2.305-1.729 3.266-4.994 2.113-7.492l2.305-1.729c.577-.384 1.153-.576 1.73-.576l21.706-.384c3.841 0 7.683-1.153 11.14-3.073l22.283-12.87c1.153-.577 4.61-2.882 4.226-5.955-.192-1.921-1.728-3.266-4.418-4.034zM27.97 88.402l-4.418 3.265c-.576.576-1.345.768-1.92.768-.77-.192-1.346-.576-1.922-1.152L4.343 70.92c-.96-1.152-.768-3.073.576-4.034l4.418-3.265c.577-.385 1.153-.577 1.73-.577h.383c.769.192 1.345.385 1.73.96L23.936 78.22l4.802 6.147c.769 1.344.577 3.265-.768 4.033zm61.853-26.51L67.541 74.764c-2.882 1.537-5.955 2.497-9.22 2.497l-21.899.384c-1.537 0-2.881.577-4.034 1.345l-1.92 1.537-4.419-5.763-8.068-10.757L29.7 54.209c.192-.192.384-.192.576-.384 1.921-.768 8.836-3.266 14.6 1.729A6.713 6.713 0 0049.1 57.09h10.181c2.113 0 4.034.768 5.378 2.113.385.576.961 1.344.961 1.92 0 .385-.576 1.537-3.65 2.882H47.371c-1.152 0-1.92.768-1.92 1.92 0 1.153.768 1.922 1.92 1.922h15.56l.384-.192c2.881-1.345 4.61-2.69 5.57-4.226l13.639-4.226c2.69-.96 5.57-.96 8.068-.193 1.152.385 1.537.577 1.729.769-.385.576-1.537 1.537-2.498 2.113z" fill="currentColor"/><path d="M11.642 67.656l-3.458 2.497c-.768.576-.96 1.92-.384 2.69.384.575.96.768 1.537.768.384 0 .768-.193 1.152-.385l3.458-2.497c.768-.576.96-1.92.384-2.69-.768-.96-1.92-1.152-2.69-.383zm34.77-46.294c3.265 2.69 7.683 3.265 11.333 3.265 2.113 0 4.226-.192 5.57-.576v11.91c-7.107.96-12.677 6.53-12.677 13.062v1.92h30.158v-1.92c0-6.915-6.147-12.486-13.83-13.062V22.13c2.689 1.152 6.915 2.496 11.14 2.496 1.922 0 3.843-.192 5.571-.96C91.745 20.4 94.434 9.068 94.627 8.492c.192-.769-.193-1.537-.769-2.113-.384-.192-10.373-6.34-18.44-3.074-4.227 1.73-7.492 5.763-9.413 9.22-.768-3.073-2.497-6.53-5.57-8.836-7.108-5.762-18.826-2.497-19.402-2.305-.768.192-1.345.96-1.345 1.73 0 .575-.576 12.677 6.724 18.248zm30.35 25.932h-22.09c1.152-4.226 5.57-7.491 10.949-7.491 5.57 0 10.18 3.265 11.141 7.491zm.192-40.147c4.802-1.92 11.141.768 13.639 2.113-.96 2.882-3.458 9.028-8.26 11.141-3.842 1.537-8.644.385-12.102-.96l13.83-5.379c.769-.384 1.153-.96 1.153-1.728 0-.192 0-.385-.192-.769-.384-.96-1.537-1.537-2.497-1.152l-13.83 5.378c1.728-3.265 4.417-7.107 8.26-8.644zM58.13 6.571c3.458 2.69 4.61 7.684 4.995 11.141L51.022 8.108c-.768-.577-2.113-.577-2.69.384-.191.384-.384.768-.384 1.152 0 .577.193 1.153.769 1.537l12.102 9.605c-3.458.384-8.453.384-11.91-2.306-4.418-3.457-4.995-10.565-5.187-13.638 2.882-.768 9.99-1.729 14.407 1.729z" fill="currentColor"/></svg>