<svg width="356" height="107" fill="none" xmlns="http://www.w3.org/2000/svg"><mask id="a" fill="currentColor"><path d="M20 27h3v55h-3V27z"/></mask><path d="M20 27h3v55h-3V27z" fill="currentColor"/><path d="M20 27v-1h-1v1h1zm0 55h-1v1h1v-1zm0-54h3v-2h-3v2zm3 53h-3v2h3v-2zm-2 1V27h-2v55h2z" fill="currentColor" mask="url(#a)"/><path d="M12.78 75.8v-3c1.38-.08 1.82-1.42 1.82-2.64 0-1.62-.78-2.64-2.04-2.64-1.34 0-1.8 1.14-1.8 2.58v2.28h-2.2l-2.92-3.06v5.88H3V65.02h2.2l3.26 3.44c.22-2.5 1.72-4.04 4.1-4.04 2.82 0 4.64 2.18 4.64 5.7 0 2.96-1.28 5.6-4.42 5.68zm2.68-14.004c-1.08 0-1.74-.66-1.74-1.74s.66-1.74 1.74-1.74 1.74.66 1.74 1.74-.66 1.74-1.74 1.74zm-3.24-11.039c0 3.1-1.68 5.08-4.44 5.08-3 0-4.98-2.32-4.98-5.62 0-4.08 2.98-6.04 6.92-6.04 4.6 0 7.48 2.66 7.48 6.5 0 3.1-1.86 4.86-4.12 5.16v-3c.78-.2 1.52-.9 1.52-2.2 0-2.12-1.92-3.36-3.82-3.46v.08c.98.86 1.44 2.2 1.44 3.5zm-6.82-.68c0 1.62.88 2.66 2.2 2.66 1.32 0 2.06-.98 2.06-2.54 0-1.64-.8-2.62-2.14-2.62-1.3 0-2.12.92-2.12 2.5zm11.52-7.364l-5.12-3.44-4.72 3.18H7v-3.38l2.66-1.66L7 35.793v-3.14h.08l4.74 3.18 5.1-3.44H17v3.38l-3.04 1.92 3.04 1.88v3.14h-.08zM348.5 73.2h-2.4l-9.1-6.82v-3.62h8.86v-1.6h2.64v1.6h2.5v3h-2.5v7.44zm-2.64-3.48v-3.96h-5.28l5.28 3.96zm3.6-10.924c-1.08 0-1.74-.66-1.74-1.74s.66-1.74 1.74-1.74 1.74.66 1.74 1.74-.66 1.74-1.74 1.74zm-2.68-5.879v-3c1.38-.08 1.82-1.42 1.82-2.64 0-1.62-.78-2.64-2.04-2.64-1.34 0-1.8 1.14-1.8 2.58v2.28h-2.2l-2.92-3.06v5.88H337v-10.18h2.2l3.26 3.44c.22-2.5 1.72-4.04 4.1-4.04 2.82 0 4.64 2.18 4.64 5.7 0 2.96-1.28 5.6-4.42 5.68zm4.14-13.204l-5.12-3.44-4.72 3.18H341v-3.38l2.66-1.66-2.66-1.62v-3.14h.08l4.74 3.18 5.1-3.44h.08v3.38l-3.04 1.92 3.04 1.88v3.14h-.08zM242.4 16.92l3.44-5.12-3.18-4.72V7h3.38l1.66 2.66L249.32 7h3.14v.08l-3.18 4.74 3.44 5.1V17h-3.38l-1.92-3.04-1.88 3.04h-3.14v-.08zm31.02 85.28c-4.1 0-6.14-3-6.14-6.8 0-4.74 2.58-7.6 6.42-7.6 3.1 0 4.74 1.86 5.04 4.12h-3c-.2-.78-.78-1.52-2.08-1.52-2.12 0-3.28 1.92-3.38 3.82h.08c.86-.98 2.16-1.44 3.66-1.44 2.9 0 4.92 1.72 4.92 4.54 0 2.94-2.24 4.88-5.52 4.88zm-.16-6.86c-1.6 0-2.58.8-2.58 2.12s.98 2.14 2.58 2.14 2.58-.82 2.58-2.14c0-1.32-.98-2.12-2.58-2.12zm7.944 5.12c0-1.08.66-1.74 1.74-1.74s1.74.66 1.74 1.74-.66 1.74-1.74 1.74-1.74-.66-1.74-1.74zm6.079-.66l5.98-4.84c1.14-.92 1.92-1.64 1.92-2.74 0-1.24-1-1.82-2.22-1.82-1.56 0-2.48.98-2.48 2.56h-3c0-3.06 2.04-5.16 5.54-5.16 2.98 0 5.26 1.54 5.26 4.42 0 1.92-1.02 3.32-3.2 4.82l-3 2.08v.08h6.4v2.8h-11.2v-2.2zm13.004 2.12l3.44-5.12-3.18-4.72V92h3.38l1.66 2.66 1.62-2.66h3.14v.08l-3.18 4.74 3.44 5.1v.08h-3.38l-1.92-3.04-1.88 3.04h-3.14v-.08zM98.4 7.8V5h2c1.18 0 2.2-.42 2.2-2h2.8v11.2h2.6V17h-9.2v-2.8h3.6V7.08c-.48.6-1.24.72-2 .72h-2zm18.604 9.4c-3.72 0-6-1.7-6-4.28 0-1.56.84-2.78 2.2-3.42-1.06-.58-1.7-1.62-1.7-2.9 0-2.3 2.08-3.8 5.5-3.8s5.5 1.5 5.5 3.8c0 1.28-.64 2.32-1.7 2.9 1.36.64 2.2 1.86 2.2 3.42 0 2.58-2.28 4.28-6 4.28zm0-6.52c-1.8 0-2.9.74-2.9 1.94 0 1.22 1.1 1.98 2.9 1.98 1.8 0 2.9-.76 2.9-1.98 0-1.2-1.1-1.94-2.9-1.94zm.02-5.28c-1.5 0-2.42.54-2.42 1.48s.92 1.56 2.42 1.56c1.48 0 2.38-.62 2.38-1.56 0-.94-.9-1.48-2.38-1.48zm8.184 10.06c0-1.08.66-1.74 1.74-1.74s1.74.66 1.74 1.74-.66 1.74-1.74 1.74-1.74-.66-1.74-1.74zm5.479-.96v-2.4l6.82-9.1h3.62v8.86h1.6v2.64h-1.6V17h-3v-2.5h-7.44zm3.48-2.64h3.96V6.58l-3.96 5.28zm11.124 2.94l5.98-4.84c1.14-.92 1.92-1.64 1.92-2.74 0-1.24-1-1.82-2.22-1.82-1.56 0-2.48.98-2.48 2.56h-3c0-3.06 2.04-5.16 5.54-5.16 2.98 0 5.26 1.54 5.26 4.42 0 1.92-1.02 3.32-3.2 4.82l-3 2.08v.08h6.4V17h-11.2v-2.2zm13.004 2.12l3.44-5.12-3.18-4.72V7h3.38l1.66 2.66 1.62-2.66h3.14v.08l-3.18 4.74 3.44 5.1V17h-3.38l-1.92-3.04-1.88 3.04h-3.14v-.08z" fill="currentColor"/><mask id="b" fill="currentColor"><path d="M327 85v-3h-74v3h74z"/></mask><path d="M327 85v-3h-74v3h74z" fill="currentColor"/><path d="M327 85h1v1h-1v-1zm-74 0v1h-1v-1h1zm73 0v-3h2v3h-2zm-72-3v3h-2v-3h2zm-1 2h74v2h-74v-2z" fill="currentColor" mask="url(#b)"/><mask id="c" fill="currentColor"><path d="M27 20h214v3H27v-3z"/></mask><path d="M27 20h214v3H27v-3z" fill="currentColor"/><path d="M27 20v-1h-1v1h1zm214 0h1v-1h-1v1zM27 21h214v-2H27v2zm213-1v3h2v-3h-2zM28 23v-3h-2v3h2z" fill="currentColor" mask="url(#c)"/><mask id="d" fill="currentColor"><path d="M334 26h-3v52h3V26z"/></mask><path d="M334 26h-3v52h3V26z" fill="currentColor"/><path d="M334 26v-1h1v1h-1zm0 52h1v1h-1v-1zm0-51h-3v-2h3v2zm-3 50h3v2h-3v-2zm2 1V26h2v52h-2z" fill="currentColor" mask="url(#d)"/><path stroke="currentColor" stroke-width="3" d="M242 21.5h11"/></svg>