<svg width="313" height="70" fill="none" xmlns="http://www.w3.org/2000/svg"><mask id="a" maskUnits="userSpaceOnUse" x="4" y="6" width="216" height="62" fill="#000"><path fill="currentColor" d="M4 6h216v62H4z"/><path d="M5.248 9.2h9.6v17.728H33.28V9.2h9.6V54h-9.6V35.376H14.848V54h-9.6V9.2zm44.797 28.736c0-10.048 6.656-16.576 16.384-16.576 9.344 0 15.36 6.016 15.36 15.168 0 .96-.064 2.048-.256 3.328h-22.4c.64 4.352 3.456 7.104 7.424 7.104 3.136 0 5.568-1.792 6.08-4.416h9.344c-.896 7.232-7.232 12.096-15.616 12.096-9.856 0-16.32-6.784-16.32-16.704zM66.557 28.4c-3.2 0-5.696 1.92-6.848 5.056h12.864c-.32-3.008-2.688-5.056-6.016-5.056zm19.238 16.576c0-5.888 4.736-9.664 11.776-9.664h8.384v-3.008c0-2.688-1.92-4.416-4.992-4.416-3.584 0-5.248 2.304-5.376 4.992h-8.576c.384-6.464 5.76-11.52 14.272-11.52 8.128 0 14.016 4.608 14.016 11.904V54h-8.384l-.64-4.48c-1.088 3.008-5.184 5.12-9.792 5.12-6.464 0-10.688-4.096-10.688-9.664zm9.6-.256c0 2.048 1.408 3.456 4.032 3.456 3.968 0 6.464-3.2 6.528-7.232h-6.272c-2.688 0-4.288 1.6-4.288 3.776zM124.171 54V7.28h9.344V54h-9.344zm18.562 0V22h9.344v32h-9.344zm-.256-41.792c0-3.072 1.856-4.928 4.928-4.928s4.928 1.856 4.928 4.928-1.856 4.928-4.928 4.928-4.928-1.856-4.928-4.928zm21.891 18.368h-5.76V22h5.76v-2.944c0-8.704 6.08-11.776 12.992-11.776 1.792 0 3.776.192 5.632.448v8.512a21.875 21.875 0 00-3.968-.384c-3.008 0-5.312.832-5.312 4.288V22h9.28v8.576h-9.28V54h-9.344V30.576zm27.754 15.04c-2.816-6.4-5.632-14.464-5.632-22.208V22h9.6v1.408c0 6.4 1.984 12.928 4.16 18.176l2.24 5.44h.256l2.24-5.44c2.176-5.248 4.16-11.776 4.16-18.176V22h9.216v1.408c0 7.744-2.816 15.808-5.632 22.208L203.514 66.8h-10.176v-.256L199.674 54h-3.904l-3.648-8.384z"/></mask><path d="M5.248 9.2v-1h-1v1h1zm9.6 0h1v-1h-1v1zm0 17.728h-1v1h1v-1zm18.432 0v1h1v-1h-1zm0-17.728v-1h-1v1h1zm9.6 0h1v-1h-1v1zm0 44.8v1h1v-1h-1zm-9.6 0h-1v1h1v-1zm0-18.624h1v-1h-1v1zm-18.432 0v-1h-1v1h1zm0 18.624v1h1v-1h-1zm-9.6 0h-1v1h1v-1zm0-43.8h9.6v-2h-9.6v2zm8.6-1v17.728h2V9.2h-2zm1 18.728H33.28v-2H14.848v2zm19.432-1V9.2h-2v17.728h2zm-1-16.728h9.6v-2h-9.6v2zm8.6-1V54h2V9.2h-2zm1 43.8h-9.6v2h9.6v-2zm-8.6 1V35.376h-2V54h2zm-1-19.624H14.848v2H33.28v-2zm-19.432 1V54h2V35.376h-2zm1 17.624h-9.6v2h9.6v-2zm-8.6 1V9.2h-2V54h2zm75.285-14.144v1h.861l.128-.852-.989-.148zm-22.4 0v-1h-1.158l.169 1.145.989-.145zm13.504 2.688v-1h-.824l-.157.809.981.191zm9.344 0l.992.123.14-1.123H81.98v1zm-22.272-9.088l-.939-.345-.494 1.345h1.433v-1zm12.864 0v1h1.112l-.118-1.106-.994.106zm-21.528 4.48c0-4.798 1.585-8.675 4.252-11.35 2.668-2.675 6.497-4.226 11.132-4.226v-2c-5.093 0-9.456 1.713-12.548 4.814-3.093 3.101-4.836 7.512-4.836 12.762h2zM66.429 22.36c4.454 0 8.025 1.43 10.48 3.862 2.454 2.432 3.88 5.954 3.88 10.306h2c0-4.8-1.582-8.862-4.472-11.726-2.89-2.864-6.998-4.442-11.888-4.442v2zm14.36 14.168c0 .913-.06 1.952-.245 3.18l1.978.296c.2-1.331.267-2.47.267-3.476h-2zm.744 2.328h-22.4v2h22.4v-2zm-23.39 1.145c.347 2.353 1.292 4.346 2.76 5.76 1.477 1.42 3.426 2.199 5.654 2.199v-2c-1.74 0-3.183-.597-4.267-1.64-1.091-1.051-1.874-2.61-2.168-4.61l-1.978.291zm8.414 7.959c3.51 0 6.44-2.035 7.061-5.224l-1.962-.383c-.402 2.058-2.336 3.607-5.099 3.607v2zm6.08-4.416h9.344v-2h-9.344v2zm8.352-1.123c-.82 6.62-6.623 11.219-14.624 11.219v2c8.767 0 15.636-5.128 16.608-12.973l-1.984-.246zM66.365 53.64c-4.69 0-8.5-1.609-11.138-4.328-2.641-2.723-4.182-6.636-4.182-11.376h-2c0 5.18 1.691 9.619 4.746 12.768 3.058 3.153 7.409 4.936 12.574 4.936v-2zm.192-26.24c-3.67 0-6.508 2.231-7.787 5.711l1.878.69c1.025-2.792 3.179-4.401 5.909-4.401v-2zm-6.848 7.056h12.864v-2H59.709v2zm13.858-1.106c-.38-3.568-3.224-5.95-7.01-5.95v2c2.87 0 4.761 1.714 5.022 4.162l1.988-.212zm32.388 1.962v1h1v-1h-1zM95.587 32.88v1h.953l.046-.952-.999-.048zm-8.576 0l-.998-.06-.063 1.06h1.061v-1zM115.299 54v1h1v-1h-1zm-8.384 0l-.99.141.123.859h.867v-1zm-.64-4.48l.99-.141-1.93-.2.94.341zm-.32-8.576l1 .016.016-1.016h-1.016v1zm-19.16 4.032c0-2.651 1.055-4.78 2.88-6.264 1.843-1.502 4.546-2.4 7.896-2.4v-2c-3.69 0-6.875.99-9.16 2.848-2.303 1.875-3.616 4.58-3.616 7.816h2zm10.776-8.664h8.384v-2h-8.384v2zm9.384-1v-3.008h-2v3.008h2zm0-3.008c0-1.596-.578-2.984-1.68-3.963-1.089-.968-2.594-1.453-4.312-1.453v2c1.354 0 2.345.38 2.984.947.626.557 1.008 1.377 1.008 2.469h2zm-5.992-5.416c-2.018 0-3.606.656-4.704 1.794-1.084 1.123-1.598 2.621-1.67 4.15l1.997.096c.055-1.16.437-2.157 1.113-2.858.662-.686 1.698-1.182 3.264-1.182v-2zm-5.376 4.992h-8.576v2h8.576v-2zm-7.578 1.06c.347-5.839 5.188-10.58 13.274-10.58v-2c-8.938 0-14.85 5.37-15.27 12.46l1.996.12zm13.274-10.58c3.882 0 7.145 1.1 9.418 2.986 2.255 1.87 3.598 4.563 3.598 7.918h2c0-3.94-1.601-7.2-4.322-9.458-2.703-2.242-6.448-3.446-10.694-3.446v2zm13.016 10.904V54h2V33.264h-2zm1 19.736h-8.384v2h8.384v-2zm-7.394.859l-.64-4.48-1.98.282.64 4.48 1.98-.282zm-2.57-4.68c-.433 1.198-1.507 2.314-3.098 3.142-1.581.823-3.596 1.319-5.754 1.319v2c2.45 0 4.787-.56 6.678-1.545 1.881-.98 3.399-2.424 4.054-4.235l-1.88-.68zm-8.852 4.461c-3.02 0-5.437-.954-7.09-2.479-1.648-1.52-2.598-3.665-2.598-6.185h-2c0 3.048 1.162 5.736 3.242 7.655 2.075 1.915 5.001 3.009 8.446 3.009v-2zm-2.088-8.92c0 1.264.442 2.416 1.365 3.242.912.814 2.183 1.214 3.667 1.214v-2c-1.14 0-1.885-.305-2.334-.706-.436-.39-.698-.965-.698-1.75h-2zm5.032 4.456c2.275 0 4.167-.927 5.484-2.45 1.305-1.508 2.009-3.554 2.044-5.766l-2-.032c-.029 1.82-.605 3.39-1.556 4.49-.939 1.085-2.279 1.758-3.972 1.758v2zm6.528-9.232h-6.272v2h6.272v-2zm-6.272 0c-1.542 0-2.871.461-3.826 1.334-.962.877-1.462 2.098-1.462 3.442h2c0-.832.3-1.5.81-1.965.517-.472 1.332-.811 2.478-.811v-2zM124.171 54h-1v1h1v-1zm0-46.72v-1h-1v1h1zm9.343 0h1v-1h-1v1zm0 46.72v1h1v-1h-1zm-8.343 0V7.28h-2V54h2zm-1-45.72h9.343v-2h-9.343v2zm8.343-1V54h2V7.28h-2zm1 45.72h-9.343v2h9.343v-2zm9.219 1h-1v1h1v-1zm0-32v-1h-1v1h1zm9.344 0h1v-1h-1v1zm0 32v1h1v-1h-1zm-8.344 0V22h-2v32h2zm-1-31h9.344v-2h-9.344v2zm8.344-1v32h2V22h-2zm1 31h-9.344v2h9.344v-2zm-8.6-40.792c0-1.334.399-2.289 1.019-2.909.62-.62 1.575-1.019 2.909-1.019v-2c-1.738 0-3.247.53-4.323 1.605-1.076 1.076-1.605 2.585-1.605 4.323h2zm3.928-3.928c1.334 0 2.289.399 2.909 1.02.62.62 1.019 1.574 1.019 2.908h2c0-1.738-.529-3.247-1.605-4.323-1.076-1.076-2.585-1.605-4.323-1.605v2zm3.928 3.928c0 1.334-.399 2.289-1.019 2.909-.62.62-1.575 1.019-2.909 1.019v2c1.738 0 3.247-.53 4.323-1.605 1.076-1.076 1.605-2.585 1.605-4.323h-2zm-3.928 3.928c-1.334 0-2.289-.399-2.909-1.02-.62-.62-1.019-1.574-1.019-2.908h-2c0 1.738.529 3.247 1.605 4.323 1.076 1.076 2.585 1.605 4.323 1.605v-2zm16.962 14.44h1v-1h-1v1zm-5.76 0h-1v1h1v-1zm0-8.576v-1h-1v1h1zm5.76 0v1h1v-1h-1zm18.625-14.272h1v-.872l-.864-.119-.136.991zm0 8.512l-.188.982 1.188.226V16.24h-1zm-9.28 5.76h-1v1h1v-1zm9.28 0h1v-1h-1v1zm0 8.576v1h1v-1h-1zm-9.28 0v-1h-1v1h1zm0 23.424v1h1v-1h-1zm-9.345 0h-1v1h1v-1zm0-24.424h-5.76v2h5.76v-2zm-4.76 1V22h-2v8.576h2zm-1-7.576h5.76v-2h-5.76v2zm6.76-1v-2.944h-2V22h2zm0-2.944c0-4.094 1.416-6.726 3.519-8.363 2.145-1.67 5.144-2.413 8.473-2.413v-2c-3.582 0-7.079.793-9.702 2.835-2.665 2.075-4.29 5.331-4.29 9.941h2zM177.359 8.28c1.729 0 3.663.186 5.496.439l.273-1.982c-1.879-.259-3.913-.457-5.769-.457v2zm4.633-.552v8.512h2V7.728h-2zm1.187 7.53a22.88 22.88 0 00-4.156-.402v2c1.153 0 2.498.122 3.781.366l.375-1.964zm-4.156-.402c-1.554 0-3.134.206-4.341 1.018-1.292.868-1.97 2.293-1.97 4.27h2c0-1.48.473-2.198 1.085-2.61.697-.468 1.773-.678 3.226-.678v-2zm-6.311 5.288V22h2v-1.856h-2zm1 2.856h9.28v-2h-9.28v2zm8.28-1v8.576h2V22h-2zm1 7.576h-9.28v2h9.28v-2zm-10.28 1V54h2V30.576h-2zm1 22.424h-9.345v2h9.345v-2zm-8.345 1V30.576h-2V54h2zm26.755-8.384l.917-.399-.002-.004-.915.403zM186.49 22v-1h-1v1h1zm9.6 0h1v-1h-1v1zm4.16 19.584l.925-.38-.001-.003-.924.383zm2.24 5.44l-.925.38.255.62h.67v-1zm.256 0v1h.67l.255-.62-.925-.38zm2.24-5.44l-.924-.383-.001.002.925.381zM209.146 22v-1h-1v1h1zm9.216 0h1v-1h-1v1zm-5.632 23.616l-.915-.403-.002.004.917.399zM203.514 66.8v1h.655l.262-.601-.917-.399zm-10.176 0h-1v1h1v-1zm0-.256l-.893-.45-.107.212v.238h1zM199.674 54l.893.45.732-1.45h-1.625v1zm-3.904 0l-.917.399.262.601h.655v-1zm-2.733-8.787c-2.801-6.366-5.547-14.274-5.547-21.805h-2c0 7.957 2.886 16.177 5.717 22.61l1.83-.805zm-5.547-21.805V22h-2v1.408h2zm-1-.408h9.6v-2h-9.6v2zm8.6-1v1.408h2V22h-2zm0 1.408c0 6.588 2.037 13.256 4.236 18.559l1.848-.766c-2.153-5.193-4.084-11.581-4.084-17.793h-2zm4.235 18.557l2.24 5.44 1.85-.762-2.24-5.44-1.85.762zm3.165 6.059h.256v-2h-.256v2zm1.181-.62l2.24-5.44-1.85-.76-2.24 5.44 1.85.76zm2.239-5.437c2.199-5.303 4.236-11.971 4.236-18.559h-2c0 6.212-1.931 12.6-4.084 17.793l1.848.766zm4.236-18.559V22h-2v1.408h2zm-1-.408h9.216v-2h-9.216v2zm8.216-1v1.408h2V22h-2zm0 1.408c0 7.53-2.746 15.439-5.547 21.805l1.83.806c2.831-6.434 5.717-14.654 5.717-22.611h-2zm-5.549 21.81L202.597 66.4l1.834.798 9.216-21.184-1.834-.798zM203.514 65.8h-10.176v2h10.176v-2zm-9.176 1v-.256h-2v.256h2zm-.107.195l6.336-12.544-1.786-.902-6.336 12.544 1.786.902zM199.674 53h-3.904v2h3.904v-2zm-2.987.601l-3.648-8.384-1.834.798 3.648 8.384 1.834-.798z" fill="currentColor" mask="url(#a)"/><path d="M267.541 6.99c6.076 5.762 8.884 13.98 9.199 22.103-.162 8.445-3.152 15.891-8.799 22.261-1.102.923-1.765 1.242-3.209 1.355-5.719-3.558-8.621-10.313-10.094-16.58-1.782-8.61-.118-16.683 4.477-24.18 4.299-6.104 4.299-6.104 8.426-4.958zm20.46 4.983c2.211 6.194 1.609 14.867-.365 21.027-2.179 5.576-5.409 11.152-9.917 14.564h-.979c.855-3.041 1.856-6 2.879-8.97 2.031-6.527 1.648-14.873-.109-21.415-.322-1.25-.322-1.25-.322-2.946.914-.493 1.833-.973 2.754-1.447.511-.27 1.023-.538 1.549-.815 1.741-.623 2.762-.503 4.51.002z" fill="currentColor"/><path d="M249.44 12.051c1.541.676 3.033 1.441 4.52 2.255-1.004 5.637-1.004 5.637-1.279 6.9-1.305 8.917-.009 17.31 3.79 25.23v1.128c-5.464-2.828-8.853-8.468-10.986-14.586-1.307-4.033-1.661-7.281-1.663-11.555l-.019-1.595c-.005-2.793.048-5.192 1.117-7.777 1.533-.86 2.917-.451 4.52 0zm44.375 14.975c3.299-.18 5.307.182 8.262 1.712-.257 6.92-4.044 12.519-8.813 17.123-4.726 4.037-10.41 6.532-16.524 6.849 1.675-1.851 3.396-3.347 5.37-4.852 5.513-4.537 8.45-10.587 10.603-17.407l.622-1.929.48-1.496z" fill="currentColor"/><path d="M239.426 27.026l.466 1.632c2.873 9.695 7.312 16.552 15.271 22.462l1.308 1.02v.57c-7.461-.387-14.321-4.12-19.448-9.714-3.023-3.815-6.307-9.135-5.844-14.258 2.949-1.53 4.954-1.892 8.247-1.712z" fill="currentColor"/><path d="M234.614 42.42l1.856 1.596 1.177 1.008c.767.663 1.53 1.334 2.286 2.015 5.719 5.102 11.977 6.9 19.072 8.155-2.407 2.761-6.151 2.6-9.378 2.661-6.912-.027-12.35-2.61-17.525-7.853-.669-.891-.669-.891-.967-2.64.43-2.745 1.53-3.358 3.479-4.943zm65.977-.001c3.798 2.307 3.798 2.307 4.559 4.765-.988 3.47-3.698 5.22-6.555 7.025-6.638 3.68-14.284 4.731-21.552 2.43a56.151 56.151 0 01-2.297-.908v-.605l.945-.165c10.076-1.803 17.504-4.75 24.9-12.542z" fill="currentColor"/></svg>