<svg width="80" height="80" fill="none" xmlns="http://www.w3.org/2000/svg"><g clip-path="url(#clip0_291_240)"><path d="M40 0C17.91 0 0 17.91 0 40s17.91 40 40 40 40-17.91 40-40S62.09 0 40 0zm19.647 27.403L53.08 58.337c-.483 2.193-1.79 2.726-3.613 1.693l-10-7.367-4.82 4.647c-.467.6-1.19.983-2 .983h-.017l.71-10.18 18.533-16.74c.8-.71-.18-1.113-1.243-.403L27.733 45.39l-9.866-3.08c-2.134-.677-2.194-2.133.45-3.18L56.87 24.27c1.793-.653 3.353.427 2.773 3.137l.004-.004z" fill="currentColor"/></g><defs><clipPath id="clip0_291_240"><path fill="#fff" d="M0 0h80v80H0z"/></clipPath></defs></svg>