<svg version="1.0" xmlns="http://www.w3.org/2000/svg" width="1706.667" height="1706.667" viewBox="0 0 1280 1280"><path d="M617.3 193.4c-13.3 4.4-26.2 15.9-43.3 39.1-2.5 3.3-4.7 6.2-5 6.5-.6.6-1.2 1.5-14.2 20.2-5.1 7.3-11.1 16-13.3 19.3-2.2 3.3-4.8 6.8-5.7 7.9-1 1.1-1.8 2.3-1.8 2.7 0 .4-1.7 3.6-3.8 7-8.3 13.8-29.3 54.7-29.9 58.4-.2 1-.7 2.2-1.1 2.5-.9.6-2.9 5.3-10.3 24-2.8 6.9-5.4 13.4-5.9 14.5-1.2 2.8-7.1 20.2-7.4 21.7-.1.7-.8 2.3-1.4 3.5-.7 1.3-1 2.3-.7 2.3.3 0-.1 1.6-.9 3.5s-1.3 3.5-1.1 3.5c.2 0-.3 1.9-1.1 4.2-1.7 4.7-4.2 13.8-5 17.8-.3 1.4-1 4.3-1.6 6.5-2.2 8.6-4.9 20.2-5.3 23.5-.2 1.4-1.3 7.4-2.4 13.4-1.2 6-1.9 11.1-1.6 11.4.2.3 0 1.2-.4 2.1-.5.9-1.2 4.5-1.5 8.1-.4 3.6-.9 8.3-1.1 10.5-2.9 23.8-4.7 69.7-3 72.5.3.6.1 1-.5 1s-.9.4-.6.9c.3.4.8 6.2 1.1 12.7.3 6.6.7 14.4 1 17.4 1 12.6 1.7 19.7 2.1 23 .8 5.9 1.2 9.3 1.8 14.5.8 6.6 1.7 12 3.1 19 .7 3.7 1.5 7.6 2.1 11.4.3 1.8.8 4.3 1 5.5.3 1.1.7 3.2 1 4.6.3 1.4 1.1 4.7 1.9 7.3.8 2.7 1.4 5.2 1.3 5.5-.1.4.1 1.4.4 2.2.6 1.6 8.2 29.2 8.3 30 0 .3.3 1 .7 1.6.4.6.9 2.1 1.1 3.5.3 1.3 1.7 6 3.2 10.4 1.5 4.4 2.8 8.5 2.9 9.2.1.7.5 1.6.9 1.9.4.4.7 1.4.7 2.2 0 .8.6 2.8 1.4 4.5.7 1.8 1.8 4.5 2.4 6.2.6 1.6 1.3 3.9 1.8 5 .4 1.1.8 2.4 1 3 .4 1.7 7.4 18.7 10 24.3 1.3 2.9 2.4 5.7 2.4 6.2 0 .6.5 1 1.2 1 .6 0 .9.3.5.6-.3.3.3 2.3 1.4 4.2 1 2 1.9 4.2 1.9 4.9 0 .7.5 1.3 1 1.3.6 0 .9.3.8.7-.2.8 6.8 15 11.2 22.7 1.1 2 2.9 5.3 4.1 7.3 1.1 2.1 4.8 8.1 8.1 13.3 3.2 5.2 6.5 10.4 7.1 11.5.7 1.1 1.5 2.2 1.8 2.5.3.3 2.1 2.7 3.9 5.5 1.9 2.7 3.7 5.2 4.2 5.3.4.2.8 1 .8 1.7s.3 1.5.8 1.7c.4.1 3 3.2 5.7 6.8 2.8 3.5 5.9 7.4 7 8.6 1.1 1.2 4.9 5.5 8.5 9.5 7.4 8.3 19.4 20 26 25.4 2.5 2.1 4.7 4 5 4.4.8 1.1 12.3 9.7 20 15 6.8 4.7 7.4 4.9 13 4.6 3.2-.2 8.7-1.1 12.2-2 3.4-.9 6.8-1.8 7.3-1.9 1.4-.2 10.9-5 11.5-5.7.3-.3 1.2-.8 2-1.1 2-.7 17.7-13.4 18.7-15.2.4-.7 2.7-3.5 5-6.2 5.4-6.4 10.2-12.3 13.3-16.4 1.4-1.8 3.3-4.2 4.3-5.3.9-1.1 1.7-2.3 1.7-2.6 0-.3 1-1.8 2.3-3.1 1.2-1.4 3.8-4.8 5.7-7.5 1.9-2.8 3.8-5.2 4.2-5.3.4-.2.8-1 .8-1.7s.4-1.5.8-1.7c2-.8 31.2-47.2 31.2-49.6 0-.7.5-1.2 1-1.2.6 0 1-.7 1-1.5s.5-1.5 1.2-1.5c.6 0 .9-.3.5-.6-.3-.3.7-2.7 2.2-5.2 5.6-9.7 24.8-49.8 25.6-53.8.2-.6 1.7-4.2 3.4-8.1 1.7-3.9 3.1-7.6 3.1-8.2 0-.6.9-3 1.9-5.4 1.1-2.3 3.1-8 4.6-12.7 1.5-4.7 3.3-10.1 4-12 1.2-3 3.8-11.8 5.1-17 .9-3.9 6.3-23.5 6.4-23.5.1 0 .3-.9.4-2 .2-1.1.6-3.4 1-5 .3-1.7.8-4 1.1-5.3.2-1.3.7-3.2 1-4.2.3-1 .8-3.3 1.1-5.1.2-1.9.7-4.4.9-5.7.7-3.3 1.2-6.2 2-11.2.3-2.5 1-6.3 1.5-8.5.4-2.2 1.2-6.9 1.6-10.5.4-3.6.9-7.9 1.1-9.5.2-1.7.5-4.8.7-7 .2-2.2.7-6.5 1-9.5 1-10 2.4-31.4 2.8-43.5.1-2.5-1.3-29.7-1.7-32.7-.4-3.2-1.4-13.4-2-21.3-.2-2.2-.6-5.6-.9-7.6-.3-2-.7-5.9-1-8.5-.4-2.7-.8-6.3-1.1-7.9-.2-1.7-.7-4.4-.9-6-.3-1.7-.7-4.1-1-5.5-.3-1.4-.7-4.1-1-6-.3-1.9-1-6-1.6-9-.6-3-1.3-6.6-1.5-8-.3-1.4-1.2-5.7-2.1-9.5-.8-3.9-1.7-7.9-1.9-9-.2-1.1-.4-2-.5-2-.2 0-.4-.9-.5-2-.1-1.1-1.5-6.3-2.9-11.5-1.5-5.2-2.9-10.4-3-11.5-.2-1.1-1.6-5.8-3.1-10.5s-2.8-9-2.9-9.5c-.1-.6-.5-1.6-.9-2.3-.5-.6-.6-1.2-.2-1.2.3 0-.1-1.3-1-3-.8-1.6-1.6-3.3-1.6-3.7-.2-1-.3-1.4-3.7-11.3-2.7-7.8-5.7-15.6-8.5-22-.6-1.4-1.1-2.7-1.2-3-.1-.5-1.9-4.5-6.2-14.4-2.5-5.7-14-28.6-20.4-40.5-1.5-2.9-3.5-6.1-4.3-7-.8-.9-1.5-1.9-1.6-2.3-.3-2.4-22.8-36.8-27.4-42-1.4-1.7-2.6-3.3-2.6-3.7 0-.3-1-1.8-2.3-3.2-1.2-1.5-3.5-4.4-5.2-6.5-1.6-2.1-3.7-4.6-4.6-5.4-.8-.9-2.2-2.6-3.1-3.9-2-2.8-15.1-17.3-23.8-26.2-7-7.2-8.1-7.7-28.5-12.9-10.8-2.8-11.4-2.9-23.5-3.5-7.5-.4-11.7-.1-14.7.9z"/><path d="M304.6 287.7c-.3.3-2.6.8-5 .9-8.3.7-23.9 7-24.9 10.2-.3.9-1.8 5.1-3.2 9.2-2.4 6.6-5.9 18.3-7.1 23.2-.9 3.9-1.4 6.4-1.9 8.8-.3 1.4-.7 3.6-1 5-.2 1.3-.7 4.2-1 6.5-.3 2.2-.8 5.1-1 6.5-1.5 8.7-2.5 19.9-2.9 34.6-.2 5.6-.6 10.6-1 11.2-.3.6-.3 1.3.2 1.6.6.4.8 6.1.2 6.1-.1 0-.2 2.6-.3 5.7-.1 3.2.2 5.8.7 5.8.5 0 .5.5 0 1.2-1.1 1.6-1.1 6.8-.1 8.5.5.7.4 1.3 0 1.3-1 0-.9 8.3.1 9.9.4.6.3 1.1-.3 1.1-.7 0-.7.8-.1 2.5s.6 2.5-.1 2.5c-.6 0-.7.5-.3 1.1.3.6.8 14.5 1 30.8.2 16.3.6 32.3.8 35.6.3 3.3.7 9.6 1 14 .3 4.4.8 10 1.2 12.5.3 2.5.7 6.7 1 9.5.6 7.2 1.9 17.3 2.8 22.5.3 1.4.7 4.3 1 6.5.3 2.2 1.3 7.4 2.1 11.5s2 10 2.6 13c.6 3 2.5 10.9 4.1 17.5 1.6 6.6 3.1 13.1 3.4 14.4.3 1.4.7 2.8 1 3.3.3.4.7 1.8.9 3 1.1 5.3 11.6 37.4 14.5 44.3.5 1.1 3.2 7.8 6 15 2.8 7.1 6.5 15.8 8.1 19.3 1.6 3.5 2.9 6.5 2.9 6.7 0 1.2 14.4 30.1 15.1 30.3.5.2.9 1 .9 1.7s2.5 5.7 5.5 11c3 5.4 5.5 10.1 5.5 10.6s.4.9.9.9 1.1.8 1.4 1.7c.3 1 1.4 3.1 2.4 4.7 2.7 4.5 19.3 29.7 20.4 31 .5.6 3.2 4.2 6 8.1 4.5 6 8.9 11.5 21.4 26.4 3.4 4.1 27.2 27.5 30.6 30.1 1.8 1.4 4.2 3.4 5.3 4.5 1.2 1.1 3.9 3.4 6.1 5 2.2 1.7 4.2 3.2 4.5 3.5 1.7 1.7 12.1 9 12.9 9 .5 0 1.1.4 1.3.9.4 1 21.8 14.3 21.8 13.5 0-.2.9.4 2.1 1.5 2.5 2.3 5.9 3.3 6 1.8 1.2-13.3.2-18.9-5.9-31.5-1.7-3.4-2.8-6.2-2.5-6.2.3 0 .1-.6-.5-1.3-2.5-3-23.4-55.7-25.8-64.7-.2-.8-1.7-5.3-3.3-10-1.6-4.7-4.3-13.2-6-19-1.7-5.8-3.6-11.9-4.1-13.5-.5-1.7-1.1-4.1-1.4-5.5-.2-1.4-.9-3.6-1.4-5-.5-1.4-1-3-1.1-3.5-.1-1.5-6.2-27.8-6.8-29.5-.3-.8-.7-2.8-.9-4.4-.3-1.7-.9-4.7-1.4-6.7-.6-2.1-1-4.1-.9-4.6.1-.4-.1-1.9-.5-3.3s-.9-3.9-1.1-5.5c-.2-1.7-.4-3-.5-3-.2 0-.5-2-2.6-15-.9-5.5-1.7-11.4-1.9-13-.2-1.7-.6-5.5-1-8.5-.5-3-.9-6.6-1.1-8-.1-1.4-.3-2.5-.4-2.5-.1 0-.3-2.3-.5-5-.2-2.8-.6-7.9-.9-11.5-2.1-23.2-3-43.2-3-68.5 0-19.3 1-48.2 2-57.5.2-2.5.7-7.4.9-11 .7-9.6 1.4-17 2-21 .2-1.9.7-6.4 1.1-10 .3-3.6 1-7.2 1.5-8.1.4-.9.6-1.9.3-2.2-.3-.3-.1-2.9.5-5.9.6-2.9 1.3-6.4 1.6-7.8.3-1.4.8-3.9 1.2-5.5.4-1.7.7-3.7.8-4.5.1-.8.4-2.9.8-4.5.6-3 4.2-22.4 5.2-28 .2-1.7.7-4.1 1-5.5.4-1.4.7-3.6.9-5 .2-1.4.8-5.3 1.5-8.8.7-3.5 1.4-7.5 1.6-9 .2-1.5.6-3.6.8-4.7.2-1.1.7-3.6 1-5.5 1.8-10.1 2.4-13.5 2.7-13.5.1 0 .3-1.8.5-4.1.3-2.3 1.1-7.2 1.9-10.9 1.3-6.1 1.3-7-.2-8.4-.8-.9-1.6-1.4-1.6-1.2-.1.3-1.2-.2-2.6-1.1-1.4-.9-3.7-2.2-5.2-2.9-1.5-.8-6.2-3.2-10.5-5.5-21.1-11-50.5-25.5-52.3-25.8-.3-.1-3-1.1-6-2.3-8.9-3.7-28.6-8.2-38.4-8.8-3.7-.3-7.3-.8-7.9-1.2-.6-.3-.7-.1-.3.5.5.9 0 .9-1.7.3-1.4-.6-2.8-.7-3.1-.4zm650.1 0c-.3.3-3.2.7-6.4.9-13.5.8-27.5 5.8-49.8 17.9-5.6 3-19.1 10.1-35 18.4-3.8 2-7.1 3.9-7.3 4.3-.2.5-1.2.8-2.2.8-1 0-2 .3-2.2.7-.1.5-2.1 1.7-4.3 2.8l-4 2.1.1 13.4c0 7.4.4 15.5.8 18s.8 5.4 1 6.5c.2 1.1.6 3 1 4.2.4 1.2.9 3.1 1.1 4.2.3 1.2.7 3 1 4.2.2 1.1.7 2.9 1 3.9.3 1 .8 2.8 1 4.1.2 1.2 1.1 4.5 1.9 7.3.8 2.8 1.7 6.8 2 9 .4 2.1.8 4.2 1.1 4.6.2.3.7 2 .9 3.6.3 1.6.8 4 1.1 5.4.3 1.4.8 3.8 1 5.5.3 1.6.9 3.9 1.2 5 .3 1.1.8 2.9.9 4 1.5 9.4 2.1 13 2.4 13 .1 0 .3 1.3.5 3 .2 1.6.6 4.1.9 5.5.2 1.4.7 4.1 1 6 .2 1.9.8 5.7 1.2 8.5.3 2.7.8 5.9 1 7 .4 1.8 1.2 8.3 1.9 14.5.2 1.4.6 6.1 1 10.5.3 4.4.9 9.1 1.1 10.5.3 1.4.7 4.7.8 7.5.2 2.7.7 11.1 1.2 18.5s.9 29.5.9 49c0 31-.4 43.4-2 60.5-.2 2.2-.7 7.1-1 11-.3 3.8-.7 7.9-.9 9-.2 1.1-.7 4.9-1.1 8.5-.4 3.6-.9 7.4-1.1 8.5-.3 1.1-.7 4-1 6.3-.3 2.4-.9 5.4-1.4 6.7-.5 1.3-.7 2.5-.4 2.8.3.2 0 2.5-.6 5.1-.5 2.5-1.3 6.3-1.6 8.4-.3 2-.8 4.4-1.1 5.2-.3.8-.7 2.4-.9 3.5-.7 5.5-4.1 19.2-7.5 30.9-1.2 3.8-2.2 7.6-2.4 8.5-.3 1.4-5.4 16.3-7.3 21.1-.3.8-.6 1.7-.7 2 0 .3-1.8 5.7-4 12-2.1 6.3-4 11.9-4.1 12.5-.2.5-2.1 6.3-4.3 12.8-2.2 6.4-3.7 11.7-3.4 11.7.3 0 .1.6-.4 1.2-.9 1.1-3.3 7.5-3.9 10.3-.1.5-1.9 6.2-3.9 12.5-3.9 12.2-5.4 16.9-5.6 18.5-.1.5-1.5 4.8-3.1 9.5-1.5 4.7-2.8 8.6-2.8 8.7 0 .2 0 .4-.1.5 0 .2-.2 1-.4 1.8s-1.1 3.9-1.9 6.8c-.9 2.8-2.2 7.3-3 10-.8 2.6-1.7 5.5-2.1 6.4-.5 1.3 0 1.9 2.2 2.3 1.5.4 3.3.8 4 1 .6.2 1.4.1 1.7-.3.4-.3 2.6-.5 4.9-.4 3.5.2 4.9-.3 8.6-3.3 19.2-15.4 33.3-28.9 53.6-51.5 3.6-4.1 11.9-14.2 15.5-18.9 1.4-1.8 3.1-3.9 3.8-4.6.6-.8 1.2-1.6 1.2-1.9 0-.3.7-1.4 1.6-2.4 4.7-5.3 7.4-8.8 7.4-10 0-.6.4-1.2.8-1.2s1.6-1.5 2.7-3.3c1-1.7 2.4-3.7 2.9-4.4 2.8-3.1 3.6-4.3 3.6-4.7 0-.9 11.4-18.1 12.2-18.4.4-.2.8-.8.8-1.4 0-.5 2.5-5 5.5-9.9s5.5-9.1 5.5-9.4c0-.3 1.1-2.2 2.4-4.3 2.7-4.1 11.7-21 16.6-31.2 1.8-3.6 3.6-7.2 4.1-8 .5-.8 1.4-2.6 2-4 .6-1.4 2.3-5 3.9-8.1 1.6-3.2 2.6-6 2.3-6.3-.4-.3-.1-.6.5-.6.7 0 1.2-.9 1.2-2s.5-2 1-2c.6 0 1-.6 1-1.4 0-1.2 1.2-4.1 7.6-18.4 3.2-7.2 5.4-12.4 5.9-14.2.1-.3.9-2.3 1.9-4.5 1.9-4.5 6.9-19.7 8.6-26.5.6-2.5 1.8-6.4 2.6-8.8.8-2.3 1.3-4.6 1.2-5 0-.4.1-1.4.5-2.2.6-1.7 2.7-10.3 3.3-14 .3-1.4.9-3.9 1.4-5.5.4-1.7 1.2-4.8 1.6-7 .4-2.2.8-4.5 1-5 .1-.6.5-2.7.9-4.9.4-2.1.9-4.8 1.1-6 .2-1.1.7-3.6 1-5.5.3-1.8.8-4.3 1-5.5.2-1.1.7-3.7 1-5.6.2-1.9.7-4.9 1.1-6.5.3-1.7.7-4.6.9-6.5.8-7.6 1.2-11.6 1.7-14.5.5-2.8 1-6.6 2.2-18.3 1.6-15.5 2.5-29.6 2.9-47.4.2-6.9.7-13.1 1-13.7.4-.6.3-1.1-.1-1.1-1 0-1-4.1 0-5.7.4-.7.3-1.4-.2-1.8-.7-.3-.7-1.5-.1-2.9.5-1.3.7-2.6.4-2.9-.3-.2-.7-7.6-.9-16.3-.4-15.1-.6-18.6-2.1-34.9-.8-9.1-1.2-12.9-2-19-.4-2.8-.8-6.5-.8-8.2-.1-1.8-.4-3.3-.7-3.3-.3 0-.6-.6-.6-1.3-.1-4.9-2.5-17.6-7.9-41.7-.8-3.9-3.4-13.2-4.4-16-.5-1.4-1.2-3.6-1.4-5-.3-1.4-1.2-4.3-2.1-6.5-.9-2.2-1.8-4.7-2.1-5.6-.3-.8-2.4-2-4.7-2.6-6.5-1.8-10.1-2.7-11.2-2.8-.5-.1-2.3-.4-4-.8-6.1-1.5-8.2-1.7-15.2-2.1-4-.3-7.6-.7-8.1-1-.5-.3-1.2-.3-1.5.1z"/><path d="M167 544c0 .3-2.8.6-6.3.6-5.4.1-12.5.7-20.7 1.8-9.6 1.3-40.1 10.1-40.8 11.8-.2.5-1.1.8-2 .8-.9 0-8.6 3.4-17.1 7.6l-15.6 7.6-.2 4.6c-.9 19.2-.1 33.5 3.1 53.2.4 2.3 3.3 15.5 4.1 19 3.1 12.3 10.4 34.8 13.6 41.6 1 2.2 1.9 4.3 1.9 4.7 0 1.9 16 35.6 22 46.2 8.9 15.9 10.2 18 20.6 34.5 4.3 6.9 8.2 12.6 8.6 12.8.5.2.8.8.8 1.3 0 .6.5 1.5 1 2.2.6.7 5.1 7 10.2 14.2 11.4 16.2 17.8 23.6 39.3 45 17.2 17.1 25.7 24.9 38.8 35.5 1.1.8 3.5 3 5.6 4.7 2 1.8 3.9 3.3 4.2 3.3.3 0 1.7 1 3.1 2.2 4.7 4.3 6.8 5.8 7.8 5.8.6 0 1 .4 1 .8 0 .5 1.2 1.5 2.8 2.3 1.5.8 3.3 2 4 2.6 2.4 2.3 27 18.3 28.1 18.3.6 0 1.1.4 1.1 1 0 .5.5 1 1.1 1 .6 0 2.3.8 3.7 1.9 8.2 5.8 56.6 29.7 61.7 30.5.6.1 1.5.4 2 .8 2.4 1.5 37.6 13.3 42.4 14.2 1.4.3 7.8 1.8 14.1 3.5 6.3 1.6 13.1 3.2 15 3.5 1.9.3 4.9.9 6.5 1.2 1.7.3 3.9.7 5 .9 1.1.1 2 .3 2 .4 0 .1 1.8.4 4 .6 2.2.2 5.8.6 8 .9 7.5 1.1 12.5 1.6 20.8 2.1l8.2.5-.1-4c-.1-4.9-1.8-8.4-5-10.1-1.3-.7-2.4-1.6-2.4-2.1 0-.4-.4-.8-1-.8-.5 0-2-1-3.3-2.3-3.8-3.6-8.6-7.7-9.2-7.7-.3 0-1.3-.8-2.3-1.8-1-.9-3.5-3.1-5.6-4.7-4.9-3.7-13.6-11-25.6-21.5-20.9-18.1-52.6-50-69.1-69.5-1.9-2.2-3.6-4.2-3.9-4.5-.3-.3-2.3-2.8-4.5-5.5-2.1-2.8-4.2-5.2-4.5-5.5-.3-.3-2.1-2.5-4-5s-4.1-5.3-4.9-6.2c-2.8-3.1-4.1-4.7-4.1-5.3 0-.3-2.2-3.5-5-7-2.7-3.5-5-6.9-5-7.4s-.4-1.1-.8-1.3c-1-.3-21.2-30.3-21.2-31.3 0-.3-.8-1.8-1.8-3.3-5-7.3-8.3-12.8-15-25.2-2.1-3.9-3.9-7.3-10.3-19-.7-1.4-1.4-2.7-1.4-3-.1-.3-3.3-7-7.2-15-3.9-8-9-19-11.3-24.5-2.3-5.5-5.1-11.9-6.2-14.3-5.8-13.3-19.3-50-23.4-63.7-.8-2.8-1.9-5.9-2.5-7-.5-1.1-1.1-2.9-1.4-4-.3-1.6-4.2-15-12.4-43-.5-1.7-1.9-6.8-3.1-11.5-1.3-4.7-2.7-8.9-3.2-9.5-.4-.5-3.6-1.1-7.1-1.2-12.4-.7-25.7-.8-25.7-.3zm929.8-.4c-.4.4-4 .8-8 .9-4 .2-7.6.3-7.9.4-.5.1-2.5 5.6-3.5 9.3-.1.5-.2.9-.3 1-.2.2-.4 1.3-.7 2.5-.8 4.4-.9 4.8-1.6 5.3-.4.3-.9 1.7-1.1 3-.3 1.4-2.4 8.6-4.7 16-4.5 14.9-4.4 14.3-5.5 18.5-.4 1.6-1 3.4-1.4 4-.3.5-.6 1.5-.7 2.2-.1.6-1.7 5.8-3.5 11.5s-3.3 10.7-3.4 11.3c0 .5-.7 2.3-1.3 3.9-.7 1.6-1.4 3.6-1.6 4.5-.2.9-.6 2.3-.9 3.1-.3.8-1.7 4.9-3.1 9-2.5 7.5-8.8 25.2-9.9 28-.4.8-2.3 5.8-4.2 11-5.2 13.6-20.7 49.4-21.7 49.8-.4.2-.8.9-.8 1.6 0 .6-3 7-6.6 14.1-3.7 7.2-7.4 14.3-8.2 16-.8 1.6-2.4 4.2-3.4 5.7-1.1 1.6-1.6 2.8-1.1 2.8.4 0 .3.4-.3.8s-2.5 3.4-4.4 6.7c-1.9 3.3-3.8 6.3-4.3 6.6-.5.3-.9 1-.9 1.5-.2 2.7-30.7 47.2-33 48.2-.5.2-.8 1-.8 1.8s-.6 1.4-1.4 1.4c-.8 0-1.6.7-1.8 1.5-.9 4-36.3 42.1-51.9 55.8-3 2.6-6.1 5.3-6.9 6.1-.8.7-4.1 3.4-7.3 6-10 8.1-12.3 10.1-21.6 18.4-4.1 3.7-10.1 9.2-13.3 12.3-3.3 3.1-6.9 6.6-8.1 7.6-6.4 5.8-33.8 35.4-34.5 37.3-.4 1 14 .2 25.3-1.4 2.2-.3 5.8-.8 8-1 2.2-.3 9-1.5 15-2.6 13.9-2.5 14.5-2.6 18.9-3.8 2-.6 3.6-.8 3.6-.6 0 .3.8 0 1.9-.5 1-.6 3.1-1.3 4.7-1.5 1.6-.3 6.1-1.5 9.9-2.6 3.9-1.2 7.7-2.3 8.5-2.5 10.8-2.8 41.6-14.9 59.7-23.7 3.4-1.6 6.5-2.9 6.9-2.8.4.1 1-.2 1.3-.7.3-.5 4.4-2.9 9.1-5.4 4.7-2.4 8.7-4.7 8.8-5.2.2-.4.8-.7 1.2-.7 1.3 0 26.4-15.3 31.5-19.3.6-.4 6.4-4.6 13-9.2 6.5-4.7 12.2-8.9 12.5-9.3.3-.4 3-2.6 6-4.9 3-2.3 6.9-5.4 8.7-7 1.7-1.5 5.1-4.4 7.4-6.3 9.3-7.6 24.3-23.6 45.4-48.4 2.8-3.3 5.6-6.5 6.3-7.2.6-.7 1.2-1.5 1.2-1.9 0-.4.6-1.2 1.3-2 1.4-1.5 2.9-3.4 7.7-9.5 1.9-2.5 3.8-4.7 4.2-4.8.5-.2.8-1 .8-1.8s.5-1.4 1-1.4c.6 0 1-.6 1-1.4 0-.8.3-1.6.8-1.8.9-.4 6.2-7.4 6.2-8.2 0-.3.9-1.6 2-2.8 1-1.3 4.9-7 8.6-12.8 3.6-5.8 7.5-11.7 8.5-13.2s1.9-2.9 1.9-3.2c0-.2 2.3-4.4 5.1-9.3 5.1-8.8 18.6-35.9 19.1-38.5.2-.7.6-1.6 1.1-1.9.4-.3.9-1.4 1.2-2.5.2-1 1.6-4.8 3.1-8.4 3-7.2 8.4-22.5 8.9-25.3.2-.9.6-2.1.9-2.6.7-1.1 5.7-18.8 6.1-21.8.2-1.1.6-3 1-4.2.3-1.1.8-3.3 1.1-4.8.3-1.6.9-4.4 1.5-6.4.5-2 1.2-5.8 1.5-8.5.3-2.7.7-5.1.9-5.4.4-.6 1.7-10.5 2.1-15.5.1-1.7.3-3 .4-3 .2 0 .8-8 1.4-18.7l.5-8.6-11.7-5.8c-6.4-3.2-11.9-5.9-12.2-6-.3 0-2.3-.9-4.5-1.9-2.2-1-4.4-2-5-2.1-.5-.2-5.3-1.8-10.6-3.7-8.4-3-18.4-5.9-21.4-6.2-.5-.1-2.6-.4-4.5-.8-9.3-1.9-18.1-2.9-27.2-3.1-3.7-.1-7.1-.5-7.4-.9-.4-.3-1.4-.3-2.3.2-.9.5-2.5.5-3.6.1s-3.2-.4-4.7.1c-1.6.4-2.8.3-3-.2-.2-.6-.7-.7-1-.3z"/><path d="M1207 768.7c0 .7-5.4 8.4-9.3 13.3-.7.8-2.6 3.3-4.2 5.5-1.7 2.2-3.6 4.6-4.2 5.5-.7.8-2.5 3.1-4 5.1-3.3 4.4-19.4 24.2-20.2 24.9-.3.3-2.1 2.3-4 4.5-9.4 11.1-19.2 21.5-35.2 37.4-20.2 20.2-27.6 26.9-46.9 42.6-2.5 2-5.3 4.2-6.2 5-4 3.3-24.8 18.4-30.3 22-3.3 2.2-6.2 4.3-6.5 4.6-.4.5-5 3.4-18.8 11.6-9.2 5.6-16.1 9.3-17.1 9.3-.6 0-1.1.4-1.1.8 0 .7-6.2 4.3-8 4.7-.3 0-2.5 1.1-5 2.4-2.5 1.3-4.7 2.3-4.9 2.2-.2-.2-.7.1-1 .6-.8 1.2-20.4 10.2-39.6 18.3-1.1.4-3.6 1.5-5.5 2.3-1.9.9-4.7 1.9-6.2 2.2-1.6.4-2.8 1.1-2.8 1.7 0 .5-.4.7-1 .3-.5-.3-1.7-.1-2.7.5-2.1 1.2-32.7 11.9-36.2 12.6-1.3.3-5.5 1.6-9.4 2.9-3.8 1.4-7.3 2.2-7.8 1.9-.5-.3-.9-.1-.9.4s-.6.9-1.2 1c-.7 0-2.4.3-3.8.7-1.4.3-3.2.8-4 1-.8.2-1.5.4-1.5.5 0 .1-.7.3-1.5.5s-7.6 2-15 4c-12.9 3.4-14.7 3.8-20.5 5-1.3.3-3.7 1-5.2 1.6-1.6.6-2.9 1-3.1.9-.7-.3-12.2 2.3-11.8 2.8.3.2.1 1.3-.4 2.3-.7 1.1-.7 2 0 2.4.6.3.6 1.5 0 2.9-1.1 3.1.1 4.6 7 8.4 5.8 3.2 30.2 15.5 31 15.7.6.2 1.2.4 11.9 4.6 4 1.6 8.1 2.9 9 2.9.9 0 2.1.4 2.6.8.8.7 4.7 2.1 10.5 3.7.3.1 2.3.5 4.5 1 2.2.4 4.5 1 5 1.4.6.3 2.1.7 3.5.9 1.4.1 3.6.7 5 1.2 1.4.4 5.7 1.4 9.5 2.1 3.9.6 7.9 1.3 9 1.6 4.6.8 8.7 1.4 23.5 3 8.6.9 45.3 1 56 .1 8.7-.8 9.5-.9 19-2.3 3-.5 6.2-.9 7-1 .8-.1 2.9-.4 4.5-.8 1.7-.4 4.1-.9 5.5-1.1 1.4-.2 4.8-1 7.5-1.6 2.8-.6 6-1.4 7.2-1.6 1.2-.2 3.3-.8 4.5-1.3 1.3-.5 2.6-.9 3.1-1 .4 0 .8-.1 1-.2.1 0 .9-.2 1.7-.4.8-.1 4.2-1.1 7.5-2.1s6.2-1.9 6.5-1.9c.3-.1 1.2-.4 2-.8.8-.3 4.9-1.7 9-3.2 4.1-1.4 8.2-2.8 9-3.2.8-.3 1.7-.7 2-.8.5-.2 4.7-1.9 9.5-4 11.6-5.1 43.4-21.2 44.5-22.6.3-.3 2.1-1.4 4-2.4 4.5-2.3 25.9-16.4 28.4-18.7 1.1-1 2.3-1.8 2.8-1.8.4 0 2.1-1.1 3.6-2.4 3.5-3.1 5.9-5.2 11.3-9.8 17.7-14.7 31-27.4 42.4-40.3 3.9-4.4 7.7-8.8 8.7-9.8.9-1 4.8-6.5 8.6-12 13-18.9 23.6-42.2 28.7-62.7.2-.8.4-1.5.5-1.5 1 0 1.8-10.9 1-13.1-.5-1.1-1.1-3.6-1.5-5.5-.7-3.8-1.3-6.4-1.5-6.4-.1 0-.3-1.1-.6-2.5-1.8-10-8.7-25.6-14.8-33.5-5.8-7.4-17.3-18.3-28.4-27-1.4-1.1-3.3-2.7-4.3-3.6-.9-.9-4.1-3.5-7.1-5.7s-6.1-4.7-6.9-5.4c-2.4-2.4-6.9-5.1-6.9-4.1zM53.6 799.3c-3.6 3.5-6.6 6.2-6.6 6.1 0-.2-4 3.6-8.8 8.4-8.9 8.7-19.2 21.1-19.2 23 0 .6-.4 1.2-.8 1.4-1.1.4-7.4 12.8-6.6 12.8.4 0 .2.6-.4 1.2-1.5 1.9-5.6 16.4-6.9 24.4-1.3 8.2-.8 19.2 1.2 26.4.2.8.6 2.6.9 4 4 20.4 12 30.7 54 68.5.6.6 3.8 3.3 7.1 6.1 3.3 2.7 6.9 5.7 8 6.6 6.6 5.6 18.7 14.6 29.5 22.1 6.9 4.7 13 8.9 13.6 9.4.5.4 2.3 1.5 4 2.4 1.6.9 7 4 11.9 6.9 8.8 5.2 27.4 14.7 36.8 18.9 6.1 2.8 24.7 10.1 26.7 10.6.8.2 4.2 1.2 7.5 2.4 5.7 1.9 18.8 5.7 22.8 6.6 1 .2 2.6.6 3.5.9 3 .9 7.7 1.8 9.5 1.8.9-.1 1.7.2 1.7.6 0 .4 1 .7 2.3.8 1.2 0 3.8.4 5.7.8 12.1 2.3 24.6 4 37.5 5 1.1.1 2.5.5 3.2.9.6.4 1.4.3 1.7-.2.3-.4 2.3-.5 4.5-.1 3.2.6 52.6.7 52.6.1 0-.1 4.5-.4 10-.6 13.8-.6 32.2-2.2 37-3.1 3.6-.7 11-1.7 12.8-1.8.9 0 1.7-.3 1.7-.6s.8-.6 1.8-.6c2.4-.1 6.7-1 13.7-2.8 5.6-1.5 8.2-2.4 13-4.2 1.1-.4 2.2-.8 2.5-.9.3 0 2.7-1.1 5.4-2.3 2.7-1.2 5-2.2 5.3-2.2.2 0 4.5-2.5 9.6-5.6 9.7-5.9 18.4-13 25.1-20.3 2.3-2.5 4.9-5.3 5.9-6.3 2-2.1 2.2-3.8.5-3.9-3.2-.3-9.5-1.4-10.8-1.9-.3-.1-.9-.2-1.4-.1-.5.1-3.2-.3-6-.8-2.8-.6-6.3-1.3-7.8-1.6-1.6-.3-3.9-.7-5.3-1-1.4-.3-3.5-.7-4.7-.9-3.7-.7-20.2-3.8-21.3-4.1-.5-.1-2.1-.5-3.5-.8-1.4-.3-6.8-1.5-12-2.7-12.4-2.7-12.8-2.8-17.5-4-2.2-.6-5.1-1.3-6.5-1.6-7.3-1.5-36.9-10.3-53.9-16-17.2-5.8-29.6-10.6-42.8-16.5-2.4-1-4.5-1.9-4.8-1.9-.8 0-33.9-16.3-34.5-16.9-.3-.3-2.1-1.4-4-2.3-7.2-3.5-16.5-9-16.8-9.9-.2-.5-.8-.9-1.4-.9-1.9 0-28.7-17.7-40.6-26.9-4.1-3.1-8.1-6.1-9-6.6-1.9-1.2-5-3.6-6.6-5.1-.6-.5-5.6-4.8-11.1-9.4-5.5-4.6-11.2-9.5-12.6-10.9-1.5-1.4-5.7-5.3-9.4-8.6-3.6-3.3-8.1-7.4-9.9-9-1.8-1.7-6.3-5.7-10.1-9-3.7-3.3-7.3-6.5-7.9-7.1-1.6-1.6-19.8-17.6-22-19.4-1-.8-3.4-3-5.3-4.8-1.9-1.7-3.6-3.2-3.8-3.2-.2 0-1.5-1-2.7-2.3C84 812.2 75.9 805 75.5 805c-.2 0-2.1-1.5-4-3.4-8-7.6-9.2-8.6-10.3-8.6-.6 0-4 2.8-7.6 6.3z"/></svg>