<svg width="764" height="314" fill="none" xmlns="http://www.w3.org/2000/svg"><g clip-path="url(#clip0_732_505)"><path d="M33.206 20.108c-.168 0-.33-.012-.486-.036a3.18 3.18 0 01-.522-.09l.108-1.188c.204.048.402.072.594.072.54 0 .972-.21 1.296-.63.336-.432.588-1.092.756-1.98.168-.9.276-2.052.324-3.456l.18-5.4h8.55V20h-1.314V8.192l.342.36h-6.732l.324-.378-.162 4.59a32.196 32.196 0 01-.27 3.276c-.132.912-.324 1.674-.576 2.286-.252.6-.576 1.05-.972 1.35-.396.288-.876.432-1.44.432zm19.335-.018c-.984 0-1.848-.204-2.592-.612a4.597 4.597 0 01-1.746-1.71c-.42-.732-.63-1.566-.63-2.502 0-.936.198-1.764.594-2.484.408-.72.96-1.284 1.656-1.692.708-.42 1.5-.63 2.376-.63.888 0 1.674.204 2.358.612.696.396 1.242.96 1.638 1.692.396.72.594 1.554.594 2.502 0 .06-.006.126-.018.198v.198h-8.226v-.954h7.542l-.504.378c0-.684-.15-1.29-.45-1.818a3.166 3.166 0 00-1.188-1.26c-.504-.3-1.086-.45-1.746-.45-.648 0-1.23.15-1.746.45-.516.3-.918.72-1.206 1.26-.288.54-.432 1.158-.432 1.854v.198c0 .72.156 1.356.468 1.908.324.54.768.966 1.332 1.278.576.3 1.23.45 1.962.45.576 0 1.11-.102 1.602-.306a3.332 3.332 0 001.296-.936l.72.828c-.42.504-.948.888-1.584 1.152a5.26 5.26 0 01-2.07.396zm7.617-.09v-9.45h1.278v7.506l6.318-7.506h1.134V20H67.61v-7.524L61.31 20h-1.152zm4.284-10.818c-.792 0-1.434-.198-1.926-.594-.48-.408-.732-.99-.756-1.746h.918c.012.48.18.858.504 1.134.324.276.744.414 1.26.414s.936-.138 1.26-.414c.336-.276.51-.654.522-1.134h.918c-.012.756-.264 1.338-.756 1.746-.492.396-1.14.594-1.944.594zm12.896 10.926c-.768 0-1.452-.126-2.052-.378a3.92 3.92 0 01-1.512-1.152c-.42-.516-.738-1.152-.954-1.908-.216-.768-.324-1.656-.324-2.664 0-.9.084-1.686.252-2.358.168-.684.402-1.272.702-1.764.3-.492.648-.906 1.044-1.242a5.255 5.255 0 011.314-.828c.48-.216.972-.378 1.476-.486l4.248-.99.216 1.188-3.996.9c-.252.06-.558.144-.918.252-.348.108-.708.27-1.08.486-.36.216-.696.516-1.008.9-.312.384-.564.882-.756 1.494-.18.6-.27 1.35-.27 2.25 0 .192.006.348.018.468.012.108.024.228.036.36.024.12.042.3.054.54l-.558-.468c.132-.732.402-1.368.81-1.908a4.147 4.147 0 011.53-1.278 4.563 4.563 0 012.07-.468c.876 0 1.656.192 2.34.576a4.023 4.023 0 011.602 1.566c.396.672.594 1.452.594 2.34 0 .876-.204 1.662-.612 2.358a4.199 4.199 0 01-1.692 1.638c-.732.384-1.59.576-2.574.576zm.144-1.062c.672 0 1.266-.15 1.782-.45a3.288 3.288 0 001.206-1.26c.3-.528.45-1.122.45-1.782 0-.648-.15-1.224-.45-1.728-.288-.504-.69-.9-1.206-1.188-.516-.3-1.116-.45-1.8-.45-.672 0-1.266.144-1.782.432a3.102 3.102 0 00-1.224 1.17c-.288.504-.432 1.086-.432 1.746 0 .66.144 1.254.432 1.782.3.528.708.948 1.224 1.26.528.312 1.128.468 1.8.468zm6.233.936l.09-1.098c.084.012.162.03.234.054.084.012.156.018.216.018.384 0 .69-.144.918-.432.24-.288.42-.672.54-1.152.12-.48.204-1.02.252-1.62a94.3 94.3 0 00.126-1.836l.162-3.366h6.93V20h-1.278v-8.712l.324.378H87.08l.306-.396-.144 2.736a27.913 27.913 0 01-.198 2.34 9.38 9.38 0 01-.414 1.962c-.18.564-.432 1.008-.756 1.332-.324.312-.738.468-1.242.468a2.96 2.96 0 01-.45-.036c-.144-.024-.3-.054-.468-.09zM36.112 47V36.504l.32.32h-4.256V35.8h9.04v1.024h-4.24l.304-.32V47h-1.168zm10.115.08c-.874 0-1.642-.181-2.304-.544a4.086 4.086 0 01-1.552-1.52c-.373-.65-.56-1.392-.56-2.224 0-.832.176-1.568.528-2.208a3.988 3.988 0 011.472-1.504 4.061 4.061 0 012.112-.56c.79 0 1.488.181 2.096.544a3.732 3.732 0 011.456 1.504c.352.64.528 1.381.528 2.224 0 .053-.005.112-.016.176v.176h-7.312v-.848h6.704l-.448.336c0-.608-.133-1.147-.4-1.616a2.815 2.815 0 00-1.056-1.12c-.448-.267-.965-.4-1.552-.4a3.03 3.03 0 00-1.552.4c-.458.267-.816.64-1.072 1.12-.256.48-.384 1.03-.384 1.648v.176c0 .64.139 1.205.416 1.696.288.48.683.859 1.184 1.136.512.267 1.094.4 1.744.4.512 0 .987-.09 1.424-.272a2.962 2.962 0 001.152-.832l.64.736c-.373.448-.842.79-1.408 1.024a4.675 4.675 0 01-1.84.352zm12.93-.08l-3.455-4.16.944-.56L60.502 47h-1.344zm-6.16 0v-8.4h1.137V47h-1.136zm.785-3.744v-.976h2.704v.976h-2.704zm2.96-.336l-1.056-.16 3.344-4.16h1.232l-3.52 4.32zm9.256 4.16c-.832 0-1.579-.181-2.24-.544a4.118 4.118 0 01-1.536-1.52c-.373-.65-.56-1.392-.56-2.224 0-.843.187-1.584.56-2.224a4.001 4.001 0 011.536-1.504c.661-.363 1.408-.544 2.24-.544.715 0 1.36.139 1.936.416a3.13 3.13 0 011.36 1.248l-.848.576a2.666 2.666 0 00-1.072-.944 3.202 3.202 0 00-1.392-.304c-.597 0-1.136.139-1.616.416-.48.267-.859.645-1.136 1.136-.277.49-.416 1.067-.416 1.728s.139 1.237.416 1.728c.277.49.656.875 1.136 1.152.48.267 1.019.4 1.616.4a3.2 3.2 0 001.392-.304 2.706 2.706 0 001.072-.928l.848.576a3.27 3.27 0 01-1.36 1.248c-.576.277-1.221.416-1.936.416zm7.42-.08v-7.712l.287.304h-3.472V38.6h7.504v.992h-3.472l.288-.304V47h-1.136zm11.11 0v-8.4h7.551V47h-1.136v-7.712l.288.304h-5.856l.288-.304V47h-1.136zm14.716.08c-.81 0-1.54-.181-2.192-.544a4.154 4.154 0 01-1.52-1.52c-.373-.65-.56-1.392-.56-2.224 0-.843.187-1.584.56-2.224.374-.64.88-1.141 1.52-1.504s1.371-.544 2.192-.544c.833 0 1.569.181 2.209.544.65.363 1.157.864 1.52 1.504.373.64.56 1.381.56 2.224 0 .832-.187 1.573-.56 2.224a4.007 4.007 0 01-1.52 1.52c-.651.363-1.387.544-2.209.544zm0-1.008c.609 0 1.147-.133 1.617-.4a2.946 2.946 0 001.104-1.152c.277-.501.416-1.077.416-1.728 0-.661-.139-1.237-.416-1.728a2.835 2.835 0 00-1.104-1.136 3.089 3.089 0 00-1.6-.416c-.598 0-1.131.139-1.6.416a2.94 2.94 0 00-1.12 1.136c-.278.49-.416 1.067-.416 1.728 0 .65.138 1.227.415 1.728.278.49.651.875 1.12 1.152.47.267.998.4 1.585.4zm12.909.384v-6.864h-4.048l-.096 1.872c-.021.565-.058 1.12-.112 1.664a8.743 8.743 0 01-.24 1.504c-.106.448-.261.816-.464 1.104a1.125 1.125 0 01-.784.48l-1.136-.208a.987.987 0 00.816-.352c.214-.256.379-.603.496-1.04a9.03 9.03 0 00.256-1.488 42.55 42.55 0 00.128-1.728l.112-2.8h6.208v7.856h-1.136zm-7.232 2.576v-3.024h9.68v3.024h-1.072V47h-7.536v2.032h-1.072zm15.894-1.952c-.832 0-1.578-.181-2.24-.544a4.129 4.129 0 01-1.536-1.52c-.373-.65-.56-1.392-.56-2.224 0-.843.187-1.584.56-2.224a4.01 4.01 0 011.536-1.504c.662-.363 1.408-.544 2.24-.544.715 0 1.36.139 1.936.416a3.13 3.13 0 011.36 1.248l-.848.576a2.663 2.663 0 00-1.072-.944 3.198 3.198 0 00-1.392-.304c-.597 0-1.136.139-1.616.416-.48.267-.858.645-1.136 1.136-.277.49-.416 1.067-.416 1.728s.139 1.237.416 1.728c.278.49.656.875 1.136 1.152.48.267 1.019.4 1.616.4.502 0 .966-.101 1.392-.304a2.703 2.703 0 001.072-.928l.848.576c-.33.544-.784.96-1.36 1.248-.576.277-1.221.416-1.936.416zm12.136-.08l-3.456-4.16.944-.56 3.856 4.72h-1.344zm-6.16 0v-8.4h1.136V47h-1.136zm.784-3.744v-.976h2.704v.976h-2.704zm2.96-.336l-1.056-.16 3.344-4.16h1.232l-3.52 4.32zM141.628 47v-1.856l-.048-.304v-3.104c0-.715-.203-1.264-.608-1.648-.395-.384-.987-.576-1.776-.576-.544 0-1.062.09-1.552.272a3.945 3.945 0 00-1.248.72l-.512-.848c.426-.363.938-.64 1.536-.832a5.83 5.83 0 011.888-.304c1.088 0 1.925.272 2.512.816.597.533.896 1.35.896 2.448V47h-1.088zm-2.896.08c-.63 0-1.179-.101-1.648-.304-.459-.213-.811-.501-1.056-.864a2.273 2.273 0 01-.368-1.28c0-.437.101-.832.304-1.184.213-.363.554-.65 1.024-.864.48-.224 1.12-.336 1.92-.336h2.896v.848h-2.864c-.811 0-1.376.144-1.696.432-.31.288-.464.645-.464 1.072 0 .48.186.864.56 1.152.373.288.896.432 1.568.432.64 0 1.189-.144 1.648-.432.469-.299.81-.725 1.024-1.28l.256.784a2.663 2.663 0 01-1.12 1.328c-.523.33-1.184.496-1.984.496zm9.572.016a6.549 6.549 0 01-1.808-.256 4.695 4.695 0 01-1.584-.784l.368-.848c.405.299.875.528 1.408.688.533.15 1.061.224 1.584.224.523-.01.976-.085 1.36-.224.384-.139.683-.33.896-.576.213-.245.32-.523.32-.832 0-.448-.203-.795-.608-1.04-.405-.256-.96-.384-1.664-.384h-1.44v-.832h1.36a3.48 3.48 0 001.104-.16c.32-.107.565-.261.736-.464.181-.203.272-.443.272-.72 0-.299-.107-.555-.32-.768-.203-.213-.485-.373-.848-.48a4.365 4.365 0 00-1.232-.16c-.416.01-.848.075-1.296.192a5.91 5.91 0 00-1.328.496l-.32-.88a7.124 7.124 0 011.456-.576 5.39 5.39 0 011.472-.208c.672-.021 1.275.059 1.808.24.544.181.976.443 1.296.784.32.33.48.73.48 1.2 0 .416-.128.779-.384 1.088a2.49 2.49 0 01-1.024.72 3.91 3.91 0 01-1.456.256l.048-.304c.96 0 1.707.187 2.24.56.544.373.816.88.816 1.52 0 .501-.165.944-.496 1.328-.331.373-.779.667-1.344.88-.555.213-1.179.32-1.872.32zM161.235 47l-3.456-4.16.944-.56 3.856 4.72h-1.344zm-6.16 0v-8.4h1.136V47h-1.136zm.784-3.744v-.976h2.704v.976h-2.704zm2.96-.336l-1.056-.16 3.344-4.16h1.232l-3.52 4.32zm6.033 4.08v-8.4h1.136v6.672l5.616-6.672h1.008V47h-1.136v-6.688l-5.6 6.688h-1.024zm16.163 0v-8.4h7.552V47h-1.136v-7.712l.288.304h-5.856l.288-.304V47h-1.136zm14.717.08c-.811 0-1.541-.181-2.192-.544a4.152 4.152 0 01-1.52-1.52c-.373-.65-.56-1.392-.56-2.224 0-.843.187-1.584.56-2.224.373-.64.88-1.141 1.52-1.504s1.371-.544 2.192-.544c.832 0 1.568.181 2.208.544a3.888 3.888 0 011.52 1.504c.373.64.56 1.381.56 2.224 0 .832-.187 1.573-.56 2.224a4 4 0 01-1.52 1.52c-.651.363-1.387.544-2.208.544zm0-1.008c.608 0 1.147-.133 1.616-.4a2.946 2.946 0 001.104-1.152c.277-.501.416-1.077.416-1.728 0-.661-.139-1.237-.416-1.728a2.835 2.835 0 00-1.104-1.136 3.085 3.085 0 00-1.6-.416c-.597 0-1.131.139-1.6.416a2.94 2.94 0 00-1.12 1.136c-.277.49-.416 1.067-.416 1.728 0 .65.139 1.227.416 1.728.277.49.651.875 1.12 1.152.469.267.997.4 1.584.4zm12.323.928v-3.024l.208.24h-2.848c-1.077 0-1.92-.235-2.528-.704-.608-.47-.912-1.152-.912-2.048 0-.96.325-1.675.976-2.144.651-.48 1.52-.72 2.608-.72h3.536V47h-1.04zm-6.144 0l2.304-3.232h1.184L203.143 47h-1.232zm6.144-3.36v-4.384l.208.336h-2.672c-.779 0-1.387.15-1.824.448-.427.299-.64.784-.64 1.456 0 1.248.795 1.872 2.384 1.872h2.752l-.208.272zm4.759 3.36v-8.4h3.712c.949 0 1.696.181 2.24.544.555.363.832.896.832 1.6 0 .683-.261 1.21-.784 1.584-.523.363-1.211.544-2.064.544l.224-.336c1.003 0 1.739.187 2.208.56.469.373.704.912.704 1.616 0 .725-.267 1.29-.8 1.696-.523.395-1.339.592-2.448.592h-3.824zm1.104-.896h2.672c.715 0 1.253-.112 1.616-.336.373-.235.56-.608.56-1.12 0-.512-.165-.885-.496-1.12-.331-.235-.853-.352-1.568-.352h-2.784v2.928zm0-3.776h2.528c.651 0 1.147-.123 1.488-.368.352-.245.528-.603.528-1.072 0-.47-.176-.821-.528-1.056-.341-.235-.837-.352-1.488-.352h-2.528v2.848zm7.575 4.656l.08-.976c.074.01.144.027.208.048.074.01.138.016.192.016a.988.988 0 00.816-.384c.213-.256.373-.597.48-1.024.106-.427.181-.907.224-1.44.042-.544.08-1.088.112-1.632l.144-2.992h6.16V47h-1.136v-7.744l.288.336h-4.576l.272-.352-.128 2.432a24.953 24.953 0 01-.176 2.08 8.401 8.401 0 01-.368 1.744c-.16.501-.384.896-.672 1.184-.288.277-.656.416-1.104.416a2.63 2.63 0 01-.4-.032 9.13 9.13 0 01-.416-.08zm17.549.016v-3.024l.208.24h-2.848c-1.077 0-1.92-.235-2.528-.704-.608-.47-.912-1.152-.912-2.048 0-.96.325-1.675.976-2.144.651-.48 1.52-.72 2.608-.72h3.536V47h-1.04zm-6.144 0l2.304-3.232h1.184L234.13 47h-1.232zm6.144-3.36v-4.384l.208.336h-2.672c-.779 0-1.387.15-1.824.448-.427.299-.64.784-.64 1.456 0 1.248.795 1.872 2.384 1.872h2.752l-.208.272zm8.359 3.44c-.875 0-1.643-.181-2.304-.544a4.086 4.086 0 01-1.552-1.52c-.373-.65-.56-1.392-.56-2.224 0-.832.176-1.568.528-2.208a3.987 3.987 0 011.472-1.504 4.06 4.06 0 012.112-.56c.789 0 1.488.181 2.096.544a3.73 3.73 0 011.456 1.504c.352.64.528 1.381.528 2.224 0 .053-.005.112-.016.176v.176h-7.312v-.848h6.704l-.448.336c0-.608-.133-1.147-.4-1.616a2.815 2.815 0 00-1.056-1.12c-.448-.267-.965-.4-1.552-.4-.576 0-1.093.133-1.552.4a2.78 2.78 0 00-1.072 1.12c-.256.48-.384 1.03-.384 1.648v.176c0 .64.139 1.205.416 1.696.288.48.683.859 1.184 1.136.512.267 1.093.4 1.744.4.512 0 .987-.09 1.424-.272a2.962 2.962 0 001.152-.832l.64.736c-.373.448-.843.79-1.408 1.024a4.677 4.677 0 01-1.84.352zm7.996-.08v-7.712l.288.304h-3.472V38.6h7.504v.992h-3.472l.288-.304V47h-1.136zm9.572.08c-.832 0-1.579-.181-2.24-.544a4.114 4.114 0 01-1.536-1.52c-.374-.65-.56-1.392-.56-2.224 0-.843.186-1.584.56-2.224a3.997 3.997 0 011.536-1.504c.661-.363 1.408-.544 2.24-.544.714 0 1.36.139 1.936.416a3.139 3.139 0 011.36 1.248l-.848.576a2.67 2.67 0 00-1.072-.944 3.204 3.204 0 00-1.392-.304 3.17 3.17 0 00-1.616.416c-.48.267-.859.645-1.136 1.136-.278.49-.416 1.067-.416 1.728s.138 1.237.416 1.728c.277.49.656.875 1.136 1.152.48.267 1.018.4 1.616.4a3.2 3.2 0 001.392-.304 2.71 2.71 0 001.072-.928l.848.576c-.331.544-.784.96-1.36 1.248-.576.277-1.222.416-1.936.416zm11.118-.08v-3.024l.208.24h-2.848c-1.077 0-1.92-.235-2.528-.704-.608-.47-.912-1.152-.912-2.048 0-.96.325-1.675.976-2.144.651-.48 1.52-.72 2.608-.72h3.536V47h-1.04zm-6.144 0l2.304-3.232h1.184L271.175 47h-1.232zm6.144-3.36v-4.384l.208.336h-2.672c-.779 0-1.387.15-1.824.448-.427.299-.64.784-.64 1.456 0 1.248.795 1.872 2.384 1.872h2.752l-.208.272zm11.683 3.456a6.549 6.549 0 01-1.808-.256 4.677 4.677 0 01-1.584-.784l.368-.848a4.54 4.54 0 001.408.688c.533.15 1.061.224 1.584.224.522-.01.976-.085 1.36-.224.384-.139.682-.33.896-.576.213-.245.32-.523.32-.832 0-.448-.203-.795-.608-1.04-.406-.256-.96-.384-1.664-.384h-1.44v-.832h1.36a3.48 3.48 0 001.104-.16c.32-.107.565-.261.736-.464.181-.203.272-.443.272-.72 0-.299-.107-.555-.32-.768-.203-.213-.486-.373-.848-.48a4.37 4.37 0 00-1.232-.16c-.416.01-.848.075-1.296.192a5.91 5.91 0 00-1.328.496l-.32-.88c.49-.256.976-.448 1.456-.576.49-.139.981-.208 1.472-.208.672-.021 1.274.059 1.808.24.544.181.976.443 1.296.784.32.33.48.73.48 1.2 0 .416-.128.779-.384 1.088a2.51 2.51 0 01-1.024.72 3.91 3.91 0 01-1.456.256l.048-.304c.96 0 1.706.187 2.24.56.544.373.816.88.816 1.52 0 .501-.166.944-.496 1.328-.331.373-.779.667-1.344.88-.555.213-1.179.32-1.872.32zm12.53-.64v-6.864h-4.048l-.096 1.872c-.021.565-.058 1.12-.112 1.664a8.743 8.743 0 01-.24 1.504c-.106.448-.261.816-.464 1.104a1.125 1.125 0 01-.784.48l-1.136-.208a.987.987 0 00.816-.352c.214-.256.379-.603.496-1.04a9.03 9.03 0 00.256-1.488 42.55 42.55 0 00.128-1.728l.112-2.8h6.208v7.856H300.3zm-7.232 2.576v-3.024h9.68v3.024h-1.072V47h-7.536v2.032h-1.072zm15.974-1.952c-.874 0-1.642-.181-2.304-.544a4.093 4.093 0 01-1.552-1.52c-.373-.65-.56-1.392-.56-2.224 0-.832.176-1.568.528-2.208a3.994 3.994 0 011.472-1.504 4.065 4.065 0 012.112-.56c.79 0 1.488.181 2.096.544a3.73 3.73 0 011.456 1.504c.352.64.528 1.381.528 2.224 0 .053-.005.112-.016.176v.176h-7.312v-.848h6.704l-.448.336c0-.608-.133-1.147-.4-1.616a2.815 2.815 0 00-1.056-1.12c-.448-.267-.965-.4-1.552-.4-.576 0-1.093.133-1.552.4-.458.267-.816.64-1.072 1.12-.256.48-.384 1.03-.384 1.648v.176c0 .64.139 1.205.416 1.696.288.48.683.859 1.184 1.136.512.267 1.094.4 1.744.4.512 0 .987-.09 1.424-.272a2.962 2.962 0 001.152-.832l.64.736c-.373.448-.842.79-1.408 1.024a4.673 4.673 0 01-1.84.352zm10.291 0c-.832 0-1.579-.181-2.24-.544a4.114 4.114 0 01-1.536-1.52c-.373-.65-.56-1.392-.56-2.224 0-.843.187-1.584.56-2.224a3.997 3.997 0 011.536-1.504c.661-.363 1.408-.544 2.24-.544.715 0 1.36.139 1.936.416a3.139 3.139 0 011.36 1.248l-.848.576a2.663 2.663 0 00-1.072-.944 3.204 3.204 0 00-1.392-.304c-.597 0-1.136.139-1.616.416-.48.267-.859.645-1.136 1.136-.277.49-.416 1.067-.416 1.728s.139 1.237.416 1.728c.277.49.656.875 1.136 1.152.48.267 1.019.4 1.616.4a3.2 3.2 0 001.392-.304 2.703 2.703 0 001.072-.928l.848.576c-.331.544-.784.96-1.36 1.248-.576.277-1.221.416-1.936.416zm9.592-5.52c1.056.01 1.856.245 2.4.704.554.459.832 1.12.832 1.984 0 .896-.299 1.584-.896 2.064-.587.48-1.44.715-2.56.704L325.309 47v-8.4h1.136v2.928l2.48.032zm-.288 4.592c.778.01 1.365-.144 1.76-.464.405-.33.608-.81.608-1.44 0-.63-.198-1.088-.592-1.376-.395-.299-.987-.453-1.776-.464l-2.192-.032v3.744l2.192.032z" fill="#213457"/><rect x="33" y="65" width="707" height="248" rx="46" stroke="#213457" stroke-width="2"/><path transform="matrix(.71854 -.69549 .67225 .74033 695.477 300)" stroke="#213457" stroke-width="2" d="M0-1h43.27"/><path transform="matrix(.71854 -.69549 .67225 .74033 703.225 302.938)" stroke="#213457" stroke-width="2" d="M0-1h34.419"/><path d="M679.784 47V36.28l.512.544h-3.152V35.8h3.792V47h-1.152zm8.773.096c-.864 0-1.632-.224-2.304-.672-.672-.459-1.2-1.11-1.584-1.952-.384-.853-.576-1.877-.576-3.072s.192-2.213.576-3.056c.384-.853.912-1.504 1.584-1.952.672-.459 1.44-.688 2.304-.688.864 0 1.632.23 2.304.688.672.448 1.2 1.099 1.584 1.952.395.843.592 1.861.592 3.056s-.197 2.219-.592 3.072c-.384.843-.912 1.493-1.584 1.952-.672.448-1.44.672-2.304.672zm0-1.056c.662 0 1.238-.176 1.728-.528.491-.363.875-.885 1.152-1.568.278-.693.416-1.541.416-2.544 0-1.003-.138-1.845-.416-2.528-.277-.693-.661-1.216-1.152-1.568-.49-.363-1.066-.544-1.728-.544-.64 0-1.21.181-1.712.544-.501.352-.89.875-1.168 1.568-.277.683-.416 1.525-.416 2.528 0 1.003.139 1.85.416 2.544.278.683.667 1.205 1.168 1.568a2.908 2.908 0 001.712.528zm5.065 2.56l5.28-15.072h1.04l-5.28 15.072h-1.04zm9.508-1.6V36.28l.512.544h-3.152V35.8h3.792V47h-1.152zm8.774.096c-.864 0-1.632-.224-2.304-.672-.672-.459-1.2-1.11-1.584-1.952-.384-.853-.576-1.877-.576-3.072s.192-2.213.576-3.056c.384-.853.912-1.504 1.584-1.952.672-.459 1.44-.688 2.304-.688.864 0 1.632.23 2.304.688.672.448 1.2 1.099 1.584 1.952.394.843.592 1.861.592 3.056s-.198 2.219-.592 3.072c-.384.843-.912 1.493-1.584 1.952-.672.448-1.44.672-2.304.672zm0-1.056c.661 0 1.237-.176 1.728-.528.49-.363.874-.885 1.152-1.568.277-.693.416-1.541.416-2.544 0-1.003-.139-1.845-.416-2.528-.278-.693-.662-1.216-1.152-1.568-.491-.363-1.067-.544-1.728-.544-.64 0-1.211.181-1.712.544-.502.352-.891.875-1.168 1.568-.278.683-.416 1.525-.416 2.528 0 1.003.138 1.85.416 2.544.277.683.666 1.205 1.168 1.568a2.906 2.906 0 001.712.528zm11.073 1.056c-.864 0-1.632-.224-2.304-.672-.672-.459-1.2-1.11-1.584-1.952-.384-.853-.576-1.877-.576-3.072s.192-2.213.576-3.056c.384-.853.912-1.504 1.584-1.952.672-.459 1.44-.688 2.304-.688.864 0 1.632.23 2.304.688.672.448 1.2 1.099 1.584 1.952.395.843.592 1.861.592 3.056s-.197 2.219-.592 3.072c-.384.843-.912 1.493-1.584 1.952-.672.448-1.44.672-2.304.672zm0-1.056c.662 0 1.238-.176 1.728-.528.491-.363.875-.885 1.152-1.568.278-.693.416-1.541.416-2.544 0-1.003-.138-1.845-.416-2.528-.277-.693-.661-1.216-1.152-1.568-.49-.363-1.066-.544-1.728-.544-.64 0-1.21.181-1.712.544-.501.352-.89.875-1.168 1.568-.277.683-.416 1.525-.416 2.528 0 1.003.139 1.85.416 2.544.278.683.667 1.205 1.168 1.568a2.908 2.908 0 001.712.528zM6.132 20V7.94l.576.612H3.162V7.4h4.266V20H6.132zm10.243-4.32v-1.116h4.716v1.116h-4.716zM1.702 47v-.918l5.238-5.13c.48-.468.84-.876 1.08-1.224.24-.36.402-.696.486-1.008.084-.312.126-.606.126-.882 0-.732-.252-1.308-.756-1.728-.492-.42-1.224-.63-2.196-.63-.744 0-1.404.114-1.98.342a3.725 3.725 0 00-1.458 1.062l-.918-.792c.492-.576 1.122-1.02 1.89-1.332.768-.312 1.626-.468 2.574-.468.852 0 1.59.138 2.214.414.624.264 1.104.654 1.44 1.17.348.516.522 1.122.522 1.818 0 .408-.06.81-.18 1.206-.108.396-.312.816-.612 1.26-.288.432-.714.924-1.278 1.476l-4.806 4.716-.36-.504h7.812V47H1.702zm16.4-4.32v-1.116h4.715v1.116h-4.716zM.72 100.688v-.936L7.398 91.4h1.44l-6.624 8.352-.702-.216h10.134v1.152H.72zM7.83 104v-3.312l.036-1.152V96.62h1.26V104H7.83zm10.941-4.32v-1.116h4.716v1.116h-4.716zm723.309-57v-1.116h4.716v1.116h-4.716zm16.282 4.428a7.73 7.73 0 01-2.592-.432c-.804-.3-1.452-.696-1.944-1.188l.63-1.026c.408.42.954.768 1.638 1.044a6.098 6.098 0 002.268.414c1.044 0 1.842-.228 2.394-.684.564-.456.846-1.068.846-1.836s-.276-1.38-.828-1.836c-.54-.456-1.398-.684-2.574-.684h-.9v-.954l3.888-4.878.18.504h-7.02V34.4h8.1v.918l-3.888 4.878-.63-.414h.486c1.512 0 2.64.336 3.384 1.008.756.672 1.134 1.536 1.134 2.592 0 .708-.168 1.344-.504 1.908-.336.564-.846 1.008-1.53 1.332-.672.324-1.518.486-2.538.486zM742.08 291.68v-1.116h4.716v1.116h-4.716zm17.686 4.428c-1.116 0-2.058-.246-2.826-.738-.768-.504-1.35-1.224-1.746-2.16-.396-.948-.594-2.082-.594-3.402 0-1.428.24-2.622.72-3.582.492-.972 1.17-1.704 2.034-2.196.864-.492 1.866-.738 3.006-.738a7.89 7.89 0 011.62.162c.516.108.972.282 1.368.522l-.522 1.044a3.076 3.076 0 00-1.116-.45 5.964 5.964 0 00-1.332-.144c-1.356 0-2.442.432-3.258 1.296-.804.864-1.206 2.154-1.206 3.87 0 .264.012.594.036.99.036.384.108.768.216 1.152l-.45-.342c.132-.624.39-1.152.774-1.584a3.64 3.64 0 011.44-1.008 5.09 5.09 0 011.89-.342c.84 0 1.578.156 2.214.468a3.62 3.62 0 011.494 1.314c.36.564.54 1.23.54 1.998 0 .78-.186 1.464-.558 2.052a3.778 3.778 0 01-1.548 1.35c-.648.312-1.38.468-2.196.468zm-.054-1.098c.6 0 1.128-.108 1.584-.324a2.665 2.665 0 001.098-.954c.264-.42.396-.906.396-1.458 0-.828-.288-1.488-.864-1.98-.564-.492-1.332-.738-2.304-.738-.648 0-1.212.12-1.692.36s-.858.57-1.134.99a2.446 2.446 0 00-.414 1.404c0 .456.126.894.378 1.314.252.408.624.744 1.116 1.008.504.252 1.116.378 1.836.378zM243.08 99.68v-1.116h4.716v1.116h-4.716zm16.498 4.428c-.9 0-1.758-.144-2.574-.432-.816-.3-1.464-.696-1.944-1.188l.63-1.026c.396.42.936.768 1.62 1.044a6.048 6.048 0 002.25.414c1.068 0 1.878-.234 2.43-.702.564-.48.846-1.104.846-1.872 0-.54-.132-1.002-.396-1.386-.252-.396-.684-.702-1.296-.918-.612-.216-1.452-.324-2.52-.324h-2.682l.648-6.318h6.894v1.152h-6.372l.666-.63-.558 5.292-.666-.648h2.358c1.272 0 2.292.156 3.06.468.768.312 1.32.75 1.656 1.314.348.552.522 1.2.522 1.944a3.85 3.85 0 01-.504 1.944c-.336.576-.84 1.032-1.512 1.368-.672.336-1.524.504-2.556.504zM75.34 91.4h1.314V104H75.34V91.4zM67.456 104h-1.332V91.4h1.332V104zm8.01-5.814h-8.154v-1.17h8.154v1.17zM87.009 104v-2.088l-.054-.342v-3.492c0-.804-.228-1.422-.684-1.854-.444-.432-1.11-.648-1.998-.648-.612 0-1.194.102-1.746.306a4.448 4.448 0 00-1.404.81l-.576-.954a4.99 4.99 0 011.728-.936 6.566 6.566 0 012.124-.342c1.224 0 2.166.306 2.826.918.672.6 1.008 1.518 1.008 2.754V104H87.01zm-3.258.09c-.708 0-1.326-.114-1.854-.342-.516-.24-.912-.564-1.188-.972-.276-.42-.414-.9-.414-1.44 0-.492.114-.936.342-1.332.24-.408.624-.732 1.152-.972.54-.252 1.26-.378 2.16-.378h3.258v.954h-3.222c-.912 0-1.548.162-1.908.486a1.581 1.581 0 00-.522 1.206c0 .54.21.972.63 1.296.42.324 1.008.486 1.764.486.72 0 1.338-.162 1.854-.486.528-.336.912-.816 1.152-1.44l.288.882c-.24.624-.66 1.122-1.26 1.494-.588.372-1.332.558-2.232.558zm12.672.018c-.768 0-1.452-.126-2.052-.378a3.92 3.92 0 01-1.512-1.152c-.42-.516-.738-1.152-.954-1.908-.216-.768-.324-1.656-.324-2.664 0-.9.084-1.686.252-2.358.168-.684.402-1.272.702-1.764.3-.492.648-.906 1.044-1.242a5.255 5.255 0 011.314-.828c.48-.216.972-.378 1.476-.486l4.248-.99.216 1.188-3.996.9c-.252.06-.558.144-.918.252-.348.108-.708.27-1.08.486-.36.216-.696.516-1.008.9-.312.384-.564.882-.756 1.494-.18.6-.27 1.35-.27 2.25 0 .192.006.348.018.468.012.108.024.228.036.36.024.12.042.3.054.54l-.558-.468c.132-.732.402-1.368.81-1.908a4.147 4.147 0 011.53-1.278 4.563 4.563 0 012.07-.468c.876 0 1.656.192 2.34.576a4.022 4.022 0 011.602 1.566c.396.672.594 1.452.594 2.34 0 .876-.204 1.662-.612 2.358a4.198 4.198 0 01-1.692 1.638c-.732.384-1.59.576-2.574.576zm.144-1.062c.672 0 1.266-.15 1.782-.45a3.288 3.288 0 001.206-1.26c.3-.528.45-1.122.45-1.782 0-.648-.15-1.224-.45-1.728-.288-.504-.69-.9-1.206-1.188-.516-.3-1.116-.45-1.8-.45-.672 0-1.266.144-1.782.432a3.102 3.102 0 00-1.224 1.17c-.288.504-.432 1.086-.432 1.746 0 .66.144 1.254.432 1.782.3.528.708.948 1.224 1.26.528.312 1.128.468 1.8.468zm12.892 1.044c-.816 0-1.554-.186-2.214-.558a4.247 4.247 0 01-1.584-1.638c-.384-.72-.576-1.596-.576-2.628s.192-1.902.576-2.61c.384-.72.906-1.266 1.566-1.638.66-.372 1.404-.558 2.232-.558.9 0 1.704.204 2.412.612.72.396 1.284.96 1.692 1.692.408.72.612 1.554.612 2.502 0 .96-.204 1.8-.612 2.52a4.408 4.408 0 01-1.692 1.692c-.708.408-1.512.612-2.412.612zm-4.878 3.402V94.55h1.224v2.844l-.126 1.89.18 1.908v6.3h-1.278zm4.788-4.536c.672 0 1.272-.15 1.8-.45a3.44 3.44 0 001.26-1.296c.312-.564.468-1.212.468-1.944s-.156-1.374-.468-1.926a3.44 3.44 0 00-1.26-1.296c-.528-.312-1.128-.468-1.8-.468-.672 0-1.278.156-1.818.468a3.44 3.44 0 00-1.26 1.296c-.3.552-.45 1.194-.45 1.926s.15 1.38.45 1.944a3.44 3.44 0 001.26 1.296c.54.3 1.146.45 1.818.45zM123.276 104v-2.088l-.054-.342v-3.492c0-.804-.228-1.422-.684-1.854-.444-.432-1.11-.648-1.998-.648-.612 0-1.194.102-1.746.306a4.448 4.448 0 00-1.404.81l-.576-.954a4.99 4.99 0 011.728-.936 6.566 6.566 0 012.124-.342c1.224 0 2.166.306 2.826.918.672.6 1.008 1.518 1.008 2.754V104h-1.224zm-3.258.09c-.708 0-1.326-.114-1.854-.342-.516-.24-.912-.564-1.188-.972-.276-.42-.414-.9-.414-1.44 0-.492.114-.936.342-1.332.24-.408.624-.732 1.152-.972.54-.252 1.26-.378 2.16-.378h3.258v.954h-3.222c-.912 0-1.548.162-1.908.486a1.581 1.581 0 00-.522 1.206c0 .54.21.972.63 1.296.42.324 1.008.486 1.764.486.72 0 1.338-.162 1.854-.486.528-.336.912-.816 1.152-1.44l.288.882c-.24.624-.66 1.122-1.26 1.494-.588.372-1.332.558-2.232.558zm8.424-.09v-9.45h1.278v4.176h5.958V94.55h1.278V104h-1.278v-4.176h-5.958V104h-1.278zm12.686 0v-9.45h1.278v4.176h5.958V94.55h1.278V104h-1.278v-4.176h-5.958V104h-1.278zm21.903 0v-9.45h1.278V104h-1.278zm-5.238-6.12c1.188.012 2.094.276 2.718.792.624.516.936 1.26.936 2.232 0 1.008-.336 1.782-1.008 2.322-.672.54-1.632.804-2.88.792l-3.744-.018v-9.45h1.278v3.294l2.7.036zm-.324 5.166c.888.012 1.554-.162 1.998-.522.456-.372.684-.912.684-1.62 0-.708-.222-1.224-.666-1.548-.444-.336-1.116-.51-2.016-.522l-2.376-.036v4.212l2.376.036zm11.019.954v-9.45h1.278v7.506l6.318-7.506h1.134V104h-1.278v-7.524l-6.3 7.524h-1.152zm4.284-10.818c-.792 0-1.434-.198-1.926-.594-.48-.408-.732-.99-.756-1.746h.918c.012.48.18.858.504 1.134.324.276.744.414 1.26.414s.936-.138 1.26-.414c.336-.276.51-.654.522-1.134h.918c-.012.756-.264 1.338-.756 1.746-.492.396-1.14.594-1.944.594zM188.471 104v-8.676l.324.342h-3.906V94.55h8.442v1.116h-3.906l.324-.342V104h-1.278zm10.858.09c-.984 0-1.848-.204-2.592-.612a4.597 4.597 0 01-1.746-1.71c-.42-.732-.63-1.566-.63-2.502 0-.936.198-1.764.594-2.484.408-.72.96-1.284 1.656-1.692.708-.42 1.5-.63 2.376-.63.888 0 1.674.204 2.358.612.696.396 1.242.96 1.638 1.692.396.72.594 1.554.594 2.502 0 .06-.006.126-.018.198v.198h-8.226v-.954h7.542l-.504.378c0-.684-.15-1.29-.45-1.818a3.166 3.166 0 00-1.188-1.26c-.504-.3-1.086-.45-1.746-.45-.648 0-1.23.15-1.746.45-.516.3-.918.72-1.206 1.26-.288.54-.432 1.158-.432 1.854v.198c0 .72.156 1.356.468 1.908.324.54.768.966 1.332 1.278.576.3 1.23.45 1.962.45.576 0 1.11-.102 1.602-.306a3.332 3.332 0 001.296-.936l.72.828c-.42.504-.948.888-1.584 1.152a5.26 5.26 0 01-2.07.396zm14.547-.09l-3.888-4.68 1.062-.63 4.338 5.31h-1.512zm-6.93 0v-9.45h1.278V104h-1.278zm.882-4.212V98.69h3.042v1.098h-3.042zm3.33-.378l-1.188-.18 3.762-4.68h1.386l-3.96 4.86zm10.413 4.68c-.936 0-1.776-.204-2.52-.612a4.634 4.634 0 01-1.728-1.71c-.42-.732-.63-1.566-.63-2.502 0-.948.21-1.782.63-2.502.42-.72.996-1.284 1.728-1.692.744-.408 1.584-.612 2.52-.612.804 0 1.53.156 2.178.468a3.53 3.53 0 011.53 1.404l-.954.648a2.999 2.999 0 00-1.206-1.062 3.603 3.603 0 00-1.566-.342c-.672 0-1.278.156-1.818.468-.54.3-.966.726-1.278 1.278-.312.552-.468 1.2-.468 1.944s.156 1.392.468 1.944a3.4 3.4 0 001.278 1.296c.54.3 1.146.45 1.818.45.564 0 1.086-.114 1.566-.342.48-.228.882-.576 1.206-1.044l.954.648a3.679 3.679 0 01-1.53 1.404c-.648.312-1.374.468-2.178.468zm8.347-.09v-8.676l.324.342h-3.906V94.55h8.442v1.116h-3.906l.324-.342V104h-1.278z" fill="#213457"/></g><defs><clipPath id="clip0_732_505"><path fill="#fff" d="M0 0h764v314H0z"/></clipPath></defs></svg>