<svg xmlns="http://www.w3.org/2000/svg" xmlns:xlink="http://www.w3.org/1999/xlink"><defs><clipPath id="github-a"><path fill="#fff" d="M0 0h80v80H0z"/></clipPath><clipPath id="lotus-a"><path fill="#fff" d="M0 0h44v44H0z"/></clipPath><clipPath id="telegram-a"><path fill="#fff" d="M0 0h80v80H0z"/></clipPath></defs><symbol id="attention"><g fill="none"><path d="M58.096.037c-.088-.008-.166.003-.251.002l-.017-.002C32.766-.832 6.424 13.733 8.701 41.914c.009.115.037.216.057.322a2.84 2.84 0 0 0 .038.929c1.375 6.43-.735 12.085-6.014 16.028-.242.18-.427.387-.589.603-.533.35-.955.888-1.182 1.538-.99 2.843-.238 5.736 2.033 7.713.375.325.808.546 1.26.665 1.466.81 2.998 1.349 4.59 1.725-.327 1.765-.166 3.55.684 5.23-1.587 3.093-.534 6.506 2.6 8.369.177.106.353.185.527.246.532.633.583 1.65.387 2.628-.06.3-.068.599-.046.89-.013.266-.005.535.046.806.826 4.333 4.527 6.726 8.762 6.803.229.004.439-.02.637-.06.196.01.402-.002.614-.036 6.8-1.103 14.545-.487 17.1 6.984.51 1.492 1.875 1.998 3.098 1.801.412.309.955.485 1.639.437 12.324-.861 24.54-2.651 36.777-4.294a2.876 2.876 0 0 0 1.132-.396c1.483-.463 2.681-2.123 1.723-3.913-8.176-15.244 8.4-31.876 11.545-46.52.07-.318.07-.61.043-.89C99.487 25.468 82.843 2.266 58.096.037Zm32.846 48.412a3.132 3.132 0 0 0-.025.64C87.5 64.76 72.513 79.91 78.447 96.316c-11.145 1.514-22.281 3.067-33.507 3.853-.08.005-.149.027-.225.039-4.012-8.93-13.348-10.531-22.584-9.133-.093-.01-.178-.031-.277-.033-1.052-.02-1.601-.129-2.422-.63.072.023-.421-.371-.417-.365a2.9 2.9 0 0 0-.147-.141c0-.021-.028-.085-.132-.253-.156-.25-.271-.603-.367-1.001.476-3.29-.458-6.147-3.214-8.25a1.927 1.927 0 0 0-.726-.325c-.08-.067-.157-.131-.24-.216.015.007 0-.026-.047-.103 0-.068-.005-.09-.012-.084.032-.142.064-.285.114-.423.001-.005.402-.626.534-.813.37-.522.446-1.155.33-1.764.11-.6.031-1.228-.33-1.751-1.015-1.471-.816-2.723 0-4.27 1.168-2.213-.936-4.234-2.8-4.027-.02-.002-.037-.009-.056-.012-1.89-.25-3.718-.803-5.356-1.782-.118-.069-.233-.111-.348-.163a4.164 4.164 0 0 1-.227-.367l-.036-.113-.032-.144a4.49 4.49 0 0 1 .004-.368c.01-.033.027-.11.05-.23 6.818-5.327 9.747-12.65 8.088-21.21.003-.107.014-.207.005-.321-2.046-25.332 21.52-37.28 43.757-36.51.07.002.132-.01.2-.013.025.003.045.01.07.013 21.11 1.902 35.852 22.49 32.845 43.043Z" fill="currentColor"/><path d="M63.824 13.05H47.587c-1.198 0-1.9.76-2.12 1.657-.485.36-.8.939-.729 1.76 1.184 13.742 2.657 27.45 4.925 41.058.218 1.309 1.236 1.767 2.24 1.618.165.036.339.055.527.055h6.837c1.506 0 2.234-1.196 2.198-2.364.04-.15.07-.312.08-.485.92-13.55 3.08-26.96 4.558-40.451a2.14 2.14 0 0 0-.108-.993c-.16-.982-.884-1.856-2.17-1.856Zm-6.703 41.59h-3.33c-1.985-12.281-3.312-24.642-4.395-37.033h11.951c-1.4 12.348-3.29 24.637-4.226 37.033ZM48.942 65.532c-4.99 7.438 6.727 14.705 12.083 7.923 1.775-2.247 2.096-4.415 1.519-6.235-1.573-4.954-9.817-7.331-13.602-1.688Zm7.005 6.236a2.805 2.805 0 0 1-.391.064c-3.097.285-3.727-5.009-.132-5.19 3.092-.157 3.278 4.492.523 5.126Z" fill="currentColor"/></g></symbol><symbol id="brain"><g fill="none"><path d="M96.583 42.178a13.25 13.25 0 0 0-4.908-10.3c.134-.643.201-1.26.201-1.867 0-5.01-3.705-9.172-8.518-9.889.11-.575.163-1.14.163-1.702 0-5.334-4.204-9.693-9.47-9.97a1.62 1.62 0 0 0-.265-.026c-.044 0-.087.006-.132.007-.043-.001-.086-.007-.131-.007a8.87 8.87 0 0 0-1.538.138A10.498 10.498 0 0 0 61.657 0C55.848 0 51.12 4.728 51.12 10.54v72.128c0 7.357 5.984 13.34 13.34 13.34 4.88 0 9.31-2.64 11.648-6.835.525.114 1.028.184 1.534.217 3.176.202 6.27-.838 8.672-2.947a11.889 11.889 0 0 0 4.049-8.217 11.622 11.622 0 0 0-.441-3.981c4.153-2.945 6.594-7.607 6.594-12.716 0-3.704-1.333-7.26-3.77-10.093 2.452-2.481 3.838-5.801 3.838-9.258Zm-3.348 19.354c0 3.812-1.731 7.309-4.7 9.65-2.197-3.498-6.094-5.731-10.315-5.731a1.642 1.642 0 0 0 0 3.283c3.656 0 6.986 2.29 8.297 5.698.448 1.19.647 2.395.57 3.583a8.624 8.624 0 0 1-2.938 5.962 8.624 8.624 0 0 1-6.294 2.138c-.65-.043-1.322-.183-2.115-.44a1.642 1.642 0 0 0-2.02.92 10.047 10.047 0 0 1-9.263 6.131c-5.545 0-10.056-4.511-10.056-10.057V10.542c0-4.002 3.255-7.258 7.256-7.258 3.719 0 6.778 2.803 7.176 6.464-3.01 1.725-5.046 4.963-5.046 8.673a1.641 1.641 0 1 0 3.282 0c0-3.658 2.943-6.636 6.583-6.707 3.64.07 6.583 3.049 6.583 6.706 0 .68-.128 1.385-.393 2.156a1.645 1.645 0 0 0-.081.69l-.01.038a1.642 1.642 0 0 0 1.697 2.042c.114-.008.228-.022.43-.05a6.722 6.722 0 0 1 6.713 6.714c0 .625-.112 1.268-.352 2.023a1.64 1.64 0 0 0 .647 1.86 9.964 9.964 0 0 1 4.392 7.924l-.001.013c0 5.504-4.478 9.983-9.982 9.983s-9.982-4.479-9.982-9.983a1.641 1.641 0 1 0-3.283 0c0 7.315 5.95 13.265 13.265 13.265 2.438 0 4.716-.673 6.681-1.825 2.101 2.287 3.26 5.212 3.26 8.261ZM35.507.001c-5.126 0-9.4 3.655-10.324 8.562a8.892 8.892 0 0 0-1.54-.138c-.044 0-.086.006-.131.007-.044-.001-.087-.007-.131-.007-.091 0-.179.012-.265.027-5.267.276-9.47 4.635-9.47 9.969 0 .562.054 1.127.164 1.702-4.814.717-8.519 4.878-8.519 9.889 0 .606.067 1.223.202 1.866A13.25 13.25 0 0 0 .584 42.18c0 3.457 1.385 6.777 3.835 9.26C1.982 54.273.65 57.83.65 61.532c0 5.11 2.44 9.77 6.594 12.716a11.57 11.57 0 0 0-.44 3.982 11.888 11.888 0 0 0 4.048 8.216 11.91 11.91 0 0 0 8.673 2.947 10.636 10.636 0 0 0 1.531-.218 13.319 13.319 0 0 0 11.65 6.836c7.355 0 13.339-5.984 13.339-13.34v-72.13C46.046 4.73 41.318.001 35.507.001Zm7.256 82.668c0 5.546-4.511 10.057-10.056 10.057a10.044 10.044 0 0 1-9.262-6.132 1.642 1.642 0 0 0-2.02-.919c-.792.257-1.464.397-2.115.44a8.617 8.617 0 0 1-6.293-2.138 8.624 8.624 0 0 1-2.938-5.963c-.083-1.269.137-2.556.655-3.824.008-.018.005-.04.012-.058 1.468-3.344 4.623-5.42 8.312-5.42a1.641 1.641 0 1 0 0-3.282 12.325 12.325 0 0 0-10.447 5.733c-2.955-2.341-4.68-5.83-4.68-9.632 0-3.05 1.16-5.974 3.259-8.26a13.169 13.169 0 0 0 6.682 1.825c7.315 0 13.265-5.95 13.265-13.265a1.64 1.64 0 1 0-3.283 0c0 5.504-4.477 9.983-9.982 9.983-5.505 0-9.982-4.479-9.982-9.983l-.002-.006a9.966 9.966 0 0 1 4.392-7.931 1.64 1.64 0 0 0 .646-1.86c-.24-.755-.352-1.397-.352-2.023 0-3.694 3-6.702 6.778-6.702h.024c.113.015.226.03.34.037a1.64 1.64 0 0 0 1.686-2.087l.008-.104a1.627 1.627 0 0 0-.09-.579c-.264-.773-.392-1.479-.392-2.157 0-3.657 2.941-6.637 6.583-6.707 3.641.071 6.583 3.05 6.583 6.708a1.64 1.64 0 1 0 3.282 0c0-3.71-2.036-6.949-5.046-8.673.398-3.661 3.457-6.464 7.175-6.464 4.002 0 7.257 3.256 7.257 7.257l.001 72.13Z" fill="currentColor"/></g></symbol><symbol id="github"><g fill="none"><g clip-path="url(#github-a)"><path fill-rule="evenodd" clip-rule="evenodd" d="M40 0c22.092 0 40 18.36 40 41.012 0 18.116-11.448 33.484-27.332 38.912-2.028.404-2.748-.877-2.748-1.969 0-1.352.048-5.768.048-11.256 0-3.824-1.28-6.32-2.716-7.592 8.908-1.016 18.268-4.484 18.268-20.236 0-4.48-1.552-8.136-4.12-11.008.416-1.036 1.788-5.207-.392-10.855 0 0-3.352-1.1-10.988 4.205-3.196-.908-6.62-1.365-10.02-1.381-3.4.016-6.82.473-10.012 1.38-7.644-5.303-11.004-4.204-11.004-4.204-2.172 5.648-.8 9.82-.388 10.855-2.556 2.872-4.12 6.528-4.12 11.008 0 15.712 9.34 19.234 18.224 20.27-1.144 1.024-2.18 2.83-2.54 5.482-2.28 1.048-8.072 2.862-11.64-3.406 0 0-2.116-3.94-6.132-4.229 0 0-3.9-.051-.272 2.492 0 0 2.62 1.26 4.44 6 0 0 2.348 7.32 13.476 4.84.02 3.428.056 6.66.056 7.635 0 1.084-.736 2.353-2.732 1.973C11.46 74.508 0 59.132 0 41.012 0 18.36 17.912 0 40 0Z" fill="currentColor"/></g></g></symbol><symbol id="guard-icon"><g fill="none"><path d="m2.071 54.555 11.008-16.384L2.903 23.067v-.256h10.816l5.312 8.512 5.184-8.512h10.048v.256L24.087 38.235l11.008 16.32v.256H24.279l-6.144-9.728-6.016 9.728H2.071v-.256ZM2.071 212.387l11.008-16.384-10.176-15.104v-.256h10.816l5.312 8.512 5.184-8.512h10.048v.256l-10.176 15.168 11.008 16.32v.256H24.279l-6.144-9.728-6.016 9.728H2.071v-.256ZM229.079 212.387l11.008-16.384-10.176-15.104v-.256h10.816l5.312 8.512 5.184-8.512h10.048v.256l-10.176 15.168 11.008 16.32v.256h-10.816l-6.144-9.728-6.016 9.728h-10.048v-.256ZM228.079 54.555l11.008-16.384-10.176-15.104v-.256h10.816l5.312 8.512 5.184-8.512h10.048v.256l-10.176 15.168 11.008 16.32v.256h-10.816l-6.144-9.728-6.016 9.728h-10.048v-.256Z" fill="currentColor"/><path d="M38.5 217V18M225.5 217V18M264.5 218V18M0 217.5h264M0 18.5h264M0 59.5h264M0 175.5h264" stroke="currentColor"/></g></symbol><symbol id="guard"><g fill="none"><path d="M50.5 55.5h300v62h-300v-62Z" stroke="currentColor"/><path d="M178.92 37.936c0-10.048 6.656-16.576 16.384-16.576 9.344 0 15.36 6.016 15.36 15.168 0 .96-.064 2.048-.256 3.328h-22.4c.64 4.352 3.456 7.104 7.424 7.104 3.136 0 5.568-1.792 6.08-4.416h9.344c-.896 7.232-7.232 12.096-15.616 12.096-9.856 0-16.32-6.784-16.32-16.704Zm16.512-9.536c-3.2 0-5.696 1.92-6.848 5.056h12.864c-.32-3.008-2.688-5.056-6.016-5.056ZM176.92 134.936c0-10.048 6.656-16.576 16.384-16.576 9.344 0 15.36 6.016 15.36 15.168 0 .96-.064 2.048-.256 3.328h-22.4c.64 4.352 3.456 7.104 7.424 7.104 3.136 0 5.568-1.792 6.08-4.416h9.344c-.896 7.232-7.232 12.096-15.616 12.096-9.856 0-16.32-6.784-16.32-16.704Zm16.512-9.536c-3.2 0-5.696 1.92-6.848 5.056h12.864c-.32-3.008-2.688-5.056-6.016-5.056ZM32.064 68.92c10.048 0 16.576 6.656 16.576 16.384 0 9.344-6.016 15.36-15.168 15.36-.96 0-2.048-.064-3.328-.256v-22.4c-4.352.64-7.104 3.456-7.104 7.424 0 3.136 1.792 5.568 4.416 6.08v9.344C20.224 99.96 15.36 93.624 15.36 85.24c0-9.856 6.784-16.32 16.704-16.32ZM41.6 85.432c0-3.2-1.92-5.696-5.056-6.848v12.864c3.008-.32 5.056-2.688 5.056-6.016ZM367.936 99.08c-10.048 0-16.576-6.656-16.576-16.384 0-9.344 6.016-15.36 15.168-15.36.96 0 2.048.064 3.328.256v22.4c4.352-.64 7.104-3.456 7.104-7.424 0-3.136-1.792-5.568-4.416-6.08v-9.344c7.232.896 12.096 7.232 12.096 15.616 0 9.856-6.784 16.32-16.704 16.32ZM358.4 82.568c0 3.2 1.92 5.696 5.056 6.848V76.552c-3.008.32-5.056 2.688-5.056 6.016Z" fill="currentColor"/><path stroke="currentColor" d="M14.5 20.5h371v132h-371z"/></g></symbol><symbol id="headhunter"><g fill="none"><path fill-rule="evenodd" clip-rule="evenodd" d="M40 80c22.091 0 40-17.909 40-40S62.091 0 40 0 0 17.909 0 40s17.909 40 40 40ZM25.422 36.464V25H20v29.703h5.417l.005-10.467c-.005-1.756.16-3.083.491-3.982.325-.898.842-1.57 1.554-2.019.702-.444 1.508-.672 2.407-.672.784 0 1.435.176 1.957.527.521.346.883.811 1.09 1.405.206.589.304 1.978.304 4.167v11.04h5.422V42.445c0-1.875-.093-3.258-.28-4.147a6.59 6.59 0 0 0-1.042-2.442c-.506-.734-1.26-1.338-2.267-1.808-1.002-.475-2.122-.712-3.372-.712-2.427 0-4.518 1.048-6.264 3.129Zm21.353 0V25h-5.417v29.703h5.417V44.236c0-1.756.165-3.083.49-3.982.331-.898.847-1.57 1.555-2.019.702-.444 1.507-.672 2.406-.672.785 0 1.44.176 1.957.527.522.346.883.811 1.09 1.405.207.589.31 1.978.31 4.167v11.04H60V42.445c0-1.875-.093-3.258-.28-4.147a6.598 6.598 0 0 0-1.042-2.442c-.506-.734-1.26-1.338-2.262-1.808-1.007-.475-2.133-.712-3.377-.712-2.427 0-4.519 1.048-6.264 3.129Z" fill="currentColor"/></g></symbol><symbol id="Healify"><g fill="none"><path d="M.05 1.5H3.8v6.925H11V1.5h3.75V19H11v-7.275H3.8V19H.05V1.5Zm17.499 11.225c0-3.925 2.6-6.475 6.4-6.475 3.65 0 6 2.35 6 5.925 0 .375-.025.8-.1 1.3h-8.75c.25 1.7 1.35 2.775 2.9 2.775 1.225 0 2.175-.7 2.375-1.725h3.65c-.35 2.825-2.825 4.725-6.1 4.725-3.85 0-6.375-2.65-6.375-6.525ZM23.999 9c-1.25 0-2.225.75-2.675 1.975h5.025C26.224 9.8 25.299 9 23.999 9Zm7.515 6.475c0-2.3 1.85-3.775 4.6-3.775h3.275v-1.175c0-1.05-.75-1.725-1.95-1.725-1.4 0-2.05.9-2.1 1.95h-3.35c.15-2.525 2.25-4.5 5.575-4.5 3.175 0 5.475 1.8 5.475 4.65V19h-3.275l-.25-1.75c-.425 1.175-2.025 2-3.825 2-2.525 0-4.175-1.6-4.175-3.775Zm3.75-.1c0 .8.55 1.35 1.575 1.35 1.55 0 2.525-1.25 2.55-2.825h-2.45c-1.05 0-1.675.625-1.675 1.475ZM46.504 19V.75h3.65V19h-3.65Zm7.251 0V6.5h3.65V19h-3.65Zm-.1-16.325c0-1.2.725-1.925 1.925-1.925 1.2 0 1.925.725 1.925 1.925 0 1.2-.725 1.925-1.925 1.925-1.2 0-1.925-.725-1.925-1.925Zm8.551 7.175h-2.25V6.5h2.25V5.35c0-3.4 2.375-4.6 5.075-4.6.7 0 1.475.075 2.2.175V4.25a8.545 8.545 0 0 0-1.55-.15c-1.175 0-2.075.325-2.075 1.675V6.5h3.625v3.35h-3.625V19h-3.65V9.85Zm10.842 5.875c-1.1-2.5-2.2-5.65-2.2-8.675V6.5h3.75v.55c0 2.5.775 5.05 1.625 7.1l.875 2.125h.1l.875-2.125c.85-2.05 1.625-4.6 1.625-7.1V6.5h3.6v.55c0 3.025-1.1 6.175-2.2 8.675L77.498 24h-3.975v-.1l2.475-4.9h-1.525l-1.425-3.275Z" fill="currentColor"/></g></symbol><symbol id="icon-horizontal"><g fill="none"><path d="M83.383 45.891c6.077 8.735 8.885 21.191 9.201 33.506-.163 12.803-3.153 24.091-8.802 33.747-1.102 1.399-1.765 1.883-3.209 2.055-5.72-5.395-8.624-15.635-10.097-25.135-1.783-13.053-.117-25.292 4.478-36.657 4.3-9.252 4.3-9.252 8.429-7.516Z" fill="currentColor"/><path d="M83.383 45.891c6.077 8.735 8.885 21.191 9.201 33.506-.163 12.803-3.153 24.091-8.802 33.747-1.102 1.399-1.765 1.883-3.209 2.055-5.72-5.395-8.624-15.635-10.097-25.135-1.783-13.053-.117-25.292 4.478-36.657 4.3-9.252 4.3-9.252 8.429-7.516ZM103.848 53.445c2.211 9.388 1.609 22.536-.366 31.874-2.179 8.454-5.41 16.907-9.919 22.08h-.979c.855-4.611 1.857-9.095 2.879-13.6 2.032-9.893 1.649-22.545-.109-32.463-.321-1.896-.321-1.896-.321-4.466.914-.747 1.833-1.475 2.754-2.194l1.55-1.235c1.741-.944 2.762-.763 4.511.004Z" fill="currentColor"/><path d="M65.278 53.562c1.54 1.024 3.033 2.185 4.52 3.419-1.004 8.545-1.004 8.545-1.279 10.461-1.306 13.517-.01 26.241 3.791 38.248v1.709c-5.465-4.288-8.855-12.838-10.988-22.112-1.308-6.115-1.662-11.038-1.664-17.518l-.019-2.417c-.005-4.234.048-7.872 1.117-11.79 1.534-1.304 2.918-.684 4.522 0ZM109.663 76.264c3.3-.272 5.308.275 8.264 2.596-.257 10.49-4.045 18.977-8.815 25.957-4.727 6.119-10.413 9.903-16.528 10.383 1.675-2.806 3.397-5.074 5.372-7.355 5.514-6.879 8.451-16.05 10.605-26.39l.622-2.923.48-2.268Z" fill="currentColor"/><path d="m55.26 76.264.467 2.474C58.6 93.435 63.04 103.831 71 112.79l1.309 1.545v.865c-7.463-.587-14.325-6.246-19.454-14.726-3.023-5.783-6.308-13.848-5.845-21.614 2.95-2.32 4.955-2.868 8.25-2.596Z" fill="currentColor"/><path d="m49.48 99.6 1.857 2.421 1.177 1.527c.767 1.006 1.53 2.023 2.287 3.055 5.72 7.735 11.98 10.46 19.076 12.362-2.407 4.187-6.152 3.943-9.38 4.035-6.914-.041-12.353-3.957-17.53-11.905-.669-1.351-.669-1.351-.967-4.002.43-4.161 1.53-5.091 3.48-7.493ZM116.441 99.6c3.799 3.497 3.799 3.497 4.56 7.223-.988 5.261-3.699 7.914-6.557 10.65-6.639 5.579-14.287 7.172-21.556 3.683a46.96 46.96 0 0 1-2.298-1.376v-.917l.945-.25c10.079-2.734 17.508-7.201 24.906-19.013Z" fill="currentColor"/><path d="M116.441 99.6c3.799 3.497 3.799 3.497 4.56 7.223-.988 5.261-3.699 7.914-6.557 10.65-6.639 5.579-14.287 7.172-21.556 3.683a46.96 46.96 0 0 1-2.298-1.376v-.917l.945-.25c10.079-2.734 17.508-7.201 24.906-19.013Z" fill="currentColor"/></g></symbol><symbol id="icon-proportion"><g fill="none"><path d="M100.4 7.8V5h2c1.18 0 2.2-.42 2.2-2h2.8v11.2h2.6V17h-9.2v-2.8h3.6V7.08c-.48.6-1.24.72-2 .72h-2Zm12.804 7.66c0-1.08.66-1.74 1.74-1.74s1.74.66 1.74 1.74-.66 1.74-1.74 1.74-1.74-.66-1.74-1.74Zm9.179-4.36h-2.8l.9-8.1h9.2v2.64h-6.84l-.3 2.7c.94-.6 2.02-.84 3.14-.84 2.92 0 5.2 1.62 5.2 4.72 0 3.08-2.24 4.98-5.88 4.98-3.04 0-5.32-1.74-5.42-4.18h3c.12 1.18 1.4 1.58 2.5 1.58 1.62 0 2.7-.86 2.7-2.28 0-1.4-1.04-2.26-2.72-2.26-1.08 0-2.14.34-2.68 1.04Zm9.904 5.82 3.44-5.12-3.18-4.72V7h3.38l1.66 2.66 1.62-2.66h3.14v.08l-3.18 4.74 3.44 5.1V17h-3.38l-1.92-3.04-1.88 3.04h-3.14v-.08ZM17.662 94.18l-5.12-3.44-4.72 3.18h-.08v-3.38l2.66-1.66-2.66-1.62v-3.14h.08l4.74 3.18 5.1-3.44h.08v3.38l-3.04 1.92 3.04 1.88v3.14h-.08Z" fill="currentColor"/><mask id="icon-proportion-a" fill="currentColor"><path d="M19 27h3v124h-3V27Z"/></mask><path d="M19 27v-1h-1v1h1Zm0 124h-1v1h1v-1Zm0-123h3v-2h-3v2Zm3 122h-3v2h3v-2Zm-2 1V27h-2v124h2Z" fill="currentColor" mask="url(#icon-proportion-a)"/><mask id="icon-proportion-b" fill="currentColor"><path d="M211 18v3H25v-3h186Z"/></mask><path d="M211 18h1v-1h-1v1ZM25 18v-1h-1v1h1Zm185 0v3h2v-3h-2ZM26 21v-3h-2v3h2Zm-1-2h186v-2H25v2Z" fill="currentColor" mask="url(#icon-proportion-b)"/></g></symbol><symbol id="icon-small"><g fill="none"><path d="M84.481 45.536c9.52 8.749 13.919 21.226 14.414 33.56-.255 12.824-4.94 24.13-13.788 33.802-1.727 1.401-2.765 1.885-5.027 2.058-8.962-5.404-13.509-15.66-15.817-25.175-2.792-13.075-.184-25.333 7.015-36.717 6.735-9.267 6.735-9.267 13.203-7.528Z" fill="currentColor"/><path d="M84.481 45.536c9.52 8.749 13.919 21.226 14.414 33.56-.255 12.824-4.94 24.13-13.788 33.802-1.727 1.401-2.765 1.885-5.027 2.058-8.962-5.404-13.509-15.66-15.817-25.175-2.792-13.075-.184-25.333 7.015-36.717 6.735-9.267 6.735-9.267 13.203-7.528ZM116.538 53.102c3.464 9.404 2.522 22.573-.572 31.926-3.414 8.468-8.475 16.934-15.537 22.115h-1.535c1.34-4.618 2.909-9.11 4.51-13.62 3.184-9.91 2.583-22.583-.17-32.517-.504-1.9-.504-1.9-.504-4.473a261.072 261.072 0 0 1 4.315-2.198l2.428-1.236c2.727-.946 4.326-.765 7.065.003Z" fill="currentColor"/><path d="M56.122 53.22c2.414 1.025 4.752 2.188 7.082 3.424-1.574 8.559-1.574 8.559-2.004 10.478-2.045 13.539-.015 26.284 5.938 38.309v1.712c-8.561-4.295-13.872-12.858-17.213-22.147-2.049-6.125-2.602-11.056-2.606-17.546l-.03-2.421c-.008-4.241.076-7.885 1.751-11.81 2.402-1.305 4.57-.685 7.082 0ZM125.648 75.958c5.169-.273 8.315.276 12.945 2.6-.402 10.507-6.336 19.008-13.808 25.999-7.405 6.129-16.311 9.919-25.89 10.4 2.623-2.811 5.32-5.083 8.414-7.367 8.638-6.89 13.239-16.076 16.613-26.432l.974-2.928.752-2.272Z" fill="currentColor"/><path d="m40.43 75.958.731 2.478c4.502 14.72 11.457 25.133 23.927 34.107l2.05 1.547v.867c-11.69-.588-22.44-6.256-30.473-14.75-4.736-5.792-9.882-13.87-9.157-21.649 4.622-2.324 7.762-2.873 12.923-2.6ZM31.376 99.332l2.908 2.425 1.843 1.529a241.558 241.558 0 0 1 3.583 3.06c8.96 7.748 18.765 10.477 29.882 12.383-3.771 4.193-9.637 3.948-14.694 4.041-10.83-.041-19.35-3.964-27.459-11.925-1.048-1.353-1.048-1.353-1.515-4.008.675-4.168 2.398-5.1 5.452-7.505ZM136.265 99.332c5.95 3.502 5.95 3.502 7.143 7.235-1.549 5.269-5.795 7.926-10.272 10.666-10.399 5.589-22.38 7.184-33.767 3.69a89.295 89.295 0 0 1-3.6-1.378v-.919l1.481-.25c15.788-2.739 27.426-7.212 39.015-19.044Z" fill="currentColor"/><path d="M136.265 99.332c5.95 3.502 5.95 3.502 7.143 7.235-1.549 5.269-5.795 7.926-10.272 10.666-10.399 5.589-22.38 7.184-33.767 3.69a89.295 89.295 0 0 1-3.6-1.378v-.919l1.481-.25c15.788-2.739 27.426-7.212 39.015-19.044Z" fill="currentColor"/></g></symbol><symbol id="icon-vertical"><g fill="none"><path d="M83.557 57.61c9.52 5.975 13.919 14.496 14.414 22.92-.255 8.757-4.94 16.48-13.788 23.085-1.727.957-2.765 1.287-5.027 1.405-8.961-3.69-13.509-10.695-15.817-17.193-2.792-8.93-.183-17.302 7.015-25.076 6.736-6.33 6.736-6.33 13.203-5.141Z" fill="currentColor"/><path d="M83.557 57.61c9.52 5.975 13.919 14.496 14.414 22.92-.255 8.757-4.94 16.48-13.788 23.085-1.727.957-2.765 1.287-5.027 1.405-8.961-3.69-13.509-10.695-15.817-17.193-2.792-8.93-.183-17.302 7.015-25.076 6.736-6.33 6.736-6.33 13.203-5.141ZM115.615 62.777c3.463 6.422 2.521 15.416-.573 21.804-3.414 5.783-8.475 11.565-15.537 15.104h-1.534c1.34-3.155 2.908-6.222 4.51-9.303 3.183-6.768 2.582-15.422-.171-22.207-.504-1.297-.504-1.297-.504-3.055 1.432-.511 2.872-1.009 4.315-1.501l2.428-.844c2.727-.646 4.326-.523 7.066.002Z" fill="currentColor"/><path d="M55.198 62.857c2.415.7 4.753 1.495 7.082 2.339-1.574 5.845-1.574 5.845-2.004 7.156-2.045 9.246-.015 17.95 5.938 26.163v1.17c-8.56-2.934-13.871-8.782-17.213-15.126-2.048-4.183-2.602-7.551-2.606-11.983l-.03-1.653c-.008-2.897.076-5.385 1.751-8.066 2.402-.892 4.57-.468 7.082 0ZM124.724 78.387c5.169-.187 8.316.188 12.945 1.775-.402 7.176-6.336 12.982-13.808 17.756-7.405 4.186-16.311 6.774-25.89 7.103 2.624-1.92 5.321-3.471 8.414-5.031 8.638-4.706 13.239-10.98 16.613-18.052l.974-2 .752-1.551Z" fill="currentColor"/><path d="m39.507 78.387.73 1.692c4.502 10.053 11.457 17.165 23.928 23.293l2.049 1.057v.592c-11.69-.402-22.44-4.273-30.473-10.074-4.736-3.955-9.882-9.472-9.157-14.785 4.622-1.587 7.763-1.962 12.923-1.775Z" fill="currentColor"/><path d="m30.452 94.35 2.908 1.656 1.843 1.044c1.203.688 2.398 1.384 3.583 2.09 8.96 5.291 18.765 7.155 29.882 8.457-3.771 2.863-9.637 2.696-14.694 2.759-10.83-.027-19.35-2.707-27.458-8.143-1.048-.924-1.048-.924-1.516-2.738.675-2.846 2.398-3.483 5.452-5.125ZM135.339 94.35c5.951 2.392 5.951 2.392 7.143 4.941-1.548 3.599-5.794 5.414-10.272 7.285-10.399 3.816-22.379 4.906-33.767 2.519a116.196 116.196 0 0 1-3.6-.941v-.627l1.481-.171c15.788-1.87 27.426-4.926 39.015-13.006Z" fill="currentColor"/><path d="M135.339 94.35c5.951 2.392 5.951 2.392 7.143 4.941-1.548 3.599-5.794 5.414-10.272 7.285-10.399 3.816-22.379 4.906-33.767 2.519a116.196 116.196 0 0 1-3.6-.941v-.627l1.481-.171c15.788-1.87 27.426-4.926 39.015-13.006Z" fill="currentColor"/></g></symbol><symbol id="icon"><g fill="none"><path d="M92.708 2.1c15.073 13.851 22.038 33.606 22.821 53.136-.403 20.304-7.82 38.206-21.83 53.519-2.735 2.219-4.378 2.985-7.96 3.259-14.189-8.556-21.389-24.795-25.043-39.861-4.42-20.702-.29-40.11 11.107-58.135C82.468-.655 82.468-.655 92.708 2.099Z" fill="currentColor"/><path d="M92.708 2.1c15.073 13.851 22.038 33.606 22.821 53.136-.403 20.304-7.82 38.206-21.83 53.519-2.735 2.219-4.378 2.985-7.96 3.259-14.189-8.556-21.389-24.795-25.043-39.861-4.42-20.702-.29-40.11 11.107-58.135C82.468-.655 82.468-.655 92.708 2.099ZM143.466 14.078c5.484 14.89 3.992 35.74-.907 50.55-5.405 13.407-13.418 26.811-24.6 35.016h-2.43c2.121-7.313 4.605-14.424 7.141-21.567 5.04-15.69 4.088-35.755-.271-51.483-.797-3.009-.797-3.009-.797-7.083a406.023 406.023 0 0 1 6.833-3.48l3.843-1.958c4.318-1.498 6.85-1.211 11.188.005Z" fill="currentColor"/><path d="M47.806 14.265c3.823 1.624 7.525 3.465 11.213 5.42-2.492 13.553-2.492 13.553-3.173 16.591-3.238 21.437-.023 41.616 9.402 60.657v2.71c-13.555-6.8-21.964-20.358-27.254-35.066-3.244-9.698-4.12-17.506-4.127-27.782l-.046-3.832c-.013-6.715.12-12.484 2.772-18.698 3.802-2.068 7.236-1.086 11.213 0ZM157.889 50.267c8.184-.432 13.166.436 20.496 4.117-.637 16.636-10.031 30.096-21.863 41.165-11.724 9.704-25.825 15.704-40.993 16.466 4.155-4.451 8.425-8.048 13.323-11.664 13.676-10.909 20.961-25.454 26.304-41.85l1.542-4.637 1.191-3.597Z" fill="currentColor"/><path d="m22.962 50.267 1.157 3.924c7.127 23.307 18.14 39.794 37.884 54.002l3.245 2.45v1.372C46.738 111.084 29.72 102.11 17 88.661 9.5 79.491 1.354 66.701 2.5 54.384c7.318-3.68 12.29-4.55 20.461-4.117ZM8.625 87.275l4.604 3.84 2.918 2.422a372.677 372.677 0 0 1 5.673 4.844c14.187 12.267 29.712 16.588 47.314 19.606-5.972 6.639-15.26 6.252-23.267 6.398-17.147-.064-30.637-6.276-43.475-18.88-1.66-2.143-1.66-2.143-2.4-6.347 1.069-6.599 3.797-8.074 8.633-11.883ZM174.697 87.274c9.422 5.546 9.422 5.546 11.31 11.456-2.451 8.343-9.174 12.551-16.263 16.889-16.466 8.848-35.435 11.375-53.465 5.842a142.215 142.215 0 0 1-5.699-2.183v-1.454l2.345-.396c24.996-4.336 43.424-11.42 61.772-30.154Z" fill="currentColor"/><path d="M174.697 87.274c9.422 5.546 9.422 5.546 11.31 11.456-2.451 8.343-9.174 12.551-16.263 16.889-16.466 8.848-35.435 11.375-53.465 5.842a142.215 142.215 0 0 1-5.699-2.183v-1.454l2.345-.396c24.996-4.336 43.424-11.42 61.772-30.154Z" fill="currentColor"/></g></symbol><symbol id="like"><g fill="none"><path d="M83.36 136.035h8.144c7.324 0 13.652-.469 17.813-1.465 8.086-1.992 13.124-7.617 13.124-14.824 0-1.465-.234-2.871-.644-4.219 4.043-2.929 6.328-7.441 6.328-12.304 0-2.403-.468-4.746-1.348-6.68 2.695-2.754 4.337-6.797 4.337-11.074 0-2.754-.703-5.684-1.935-7.793 1.7-2.403 2.638-5.625 2.638-9.2 0-8.73-6.797-15.644-15.528-15.644H94.141c-1.407 0-2.344-.645-2.344-1.816 0-6.387 9.961-21.211 9.961-33.106 0-8.086-5.625-13.945-13.418-13.945-5.742 0-9.61 2.988-13.418 10.254-7.148 13.71-15.586 25.84-29.531 42.832H34.258c-14.473 0-26.074 16.347-26.074 36.328 0 19.746 12.773 36.152 28.3 36.152H55.82c7.735 4.043 17.11 6.504 27.54 6.504Zm8.203-8.848-8.145-.117c-24.55-.176-41.191-14.062-41.191-33.984 0-12.656 2.812-20.742 10.78-31.406 8.849-11.777 21.036-25.899 29.825-43.418 2.344-4.688 3.574-5.45 5.508-5.45 2.871 0 4.57 1.817 4.57 5.098 0 9.492-9.96 23.906-9.96 33.106 0 6.62 5.507 10.664 12.48 10.664h20.859c3.868 0 6.68 2.93 6.68 6.797 0 2.812-.879 4.629-3.164 6.855-.586.586-.88 1.172-.88 1.817 0 .468.177.995.587 1.464 1.933 2.813 2.754 4.57 2.754 6.856 0 2.812-1.347 5.156-3.985 7.207-1.113.82-1.699 1.758-1.699 2.754 0 .351.059.761.293 1.171 1.699 3.223 2.402 4.512 2.402 6.622 0 3.164-1.992 5.566-6.21 7.734-.879.469-1.407 1.172-1.407 2.051 0 .351.118.703.293 1.113 1.465 3.574 1.641 4.16 1.641 5.625 0 2.871-2.11 5.156-6.387 6.211-3.457.879-8.965 1.289-15.644 1.23Zm-55.079-6.504c-10.37 0-19.453-12.48-19.453-27.304 0-15.117 8.145-27.48 17.227-27.48h5.39c-4.394 8.203-6.27 16.816-6.27 27.011 0 11.016 3.985 20.508 11.075 27.773h-7.969Z" fill="currentColor"/></g></symbol><symbol id="logo-flattened"><g fill="none"><path d="M5.248 9.2h9.6v17.728H33.28V9.2h9.6V54h-9.6V35.376H14.848V54h-9.6V9.2Zm44.797 28.736c0-10.048 6.656-16.576 16.384-16.576 9.344 0 15.36 6.016 15.36 15.168 0 .96-.064 2.048-.256 3.328h-22.4c.64 4.352 3.456 7.104 7.424 7.104 3.136 0 5.568-1.792 6.08-4.416h9.344c-.896 7.232-7.232 12.096-15.616 12.096-9.856 0-16.32-6.784-16.32-16.704ZM66.557 28.4c-3.2 0-5.696 1.92-6.848 5.056h12.864c-.32-3.008-2.688-5.056-6.016-5.056Zm19.238 16.576c0-5.888 4.736-9.664 11.776-9.664h8.384v-3.008c0-2.688-1.92-4.416-4.992-4.416-3.584 0-5.248 2.304-5.376 4.992h-8.576c.384-6.464 5.76-11.52 14.272-11.52 8.128 0 14.016 4.608 14.016 11.904V54h-8.384l-.64-4.48c-1.088 3.008-5.184 5.12-9.792 5.12-6.464 0-10.688-4.096-10.688-9.664Zm9.6-.256c0 2.048 1.408 3.456 4.032 3.456 3.968 0 6.464-3.2 6.528-7.232h-6.272c-2.688 0-4.288 1.6-4.288 3.776ZM124.171 54V7.28h9.344V54h-9.344Zm18.562 0V22h9.344v32h-9.344Zm-.256-41.792c0-3.072 1.856-4.928 4.928-4.928s4.928 1.856 4.928 4.928-1.856 4.928-4.928 4.928-4.928-1.856-4.928-4.928Zm21.891 18.368h-5.76V22h5.76v-2.944c0-8.704 6.08-11.776 12.992-11.776 1.792 0 3.776.192 5.632.448v8.512a21.875 21.875 0 0 0-3.968-.384c-3.008 0-5.312.832-5.312 4.288V22h9.28v8.576h-9.28V54h-9.344V30.576Zm27.754 15.04c-2.816-6.4-5.632-14.464-5.632-22.208V22h9.6v1.408c0 6.4 1.984 12.928 4.16 18.176l2.24 5.44h.256l2.24-5.44c2.176-5.248 4.16-11.776 4.16-18.176V22h9.216v1.408c0 7.744-2.816 15.808-5.632 22.208L203.514 66.8h-10.176v-.256L199.674 54h-3.904l-3.648-8.384ZM267.541 4.66c6.076 3.842 8.884 9.32 9.199 14.735-.162 5.63-3.152 10.595-8.799 14.841-1.102.615-1.765.828-3.209.904-5.719-2.373-8.621-6.876-10.094-11.054-1.782-5.74-.118-11.122 4.477-16.12 4.299-4.07 4.299-4.07 8.426-3.305ZM288.001 7.983c2.211 4.128 1.609 9.91-.365 14.017-2.179 3.718-5.409 7.435-9.917 9.71h-.979c.855-2.028 1.856-4 2.879-5.98 2.031-4.352 1.648-9.916-.109-14.277-.322-.834-.322-.834-.322-1.964.914-.329 1.833-.649 2.754-.965l1.549-.543c1.741-.415 2.762-.336 4.51.002Z" fill="currentColor"/><path d="M249.44 8.034c1.541.45 3.033.961 4.52 1.503-1.004 3.758-1.004 3.758-1.279 4.601-1.305 5.944-.009 11.54 3.79 16.82v.752c-5.464-1.886-8.853-5.646-10.986-9.724-1.307-2.69-1.661-4.855-1.663-7.704l-.019-1.063c-.005-1.862.048-3.462 1.117-5.185 1.533-.573 2.917-.3 4.52 0ZM293.815 18.017c3.299-.12 5.307.121 8.262 1.142-.257 4.613-4.044 8.345-8.813 11.415-4.726 2.691-10.41 4.355-16.524 4.566 1.675-1.234 3.396-2.232 5.37-3.234 5.513-3.025 8.45-7.059 10.603-11.605l.622-1.286.48-.998Z" fill="currentColor"/><path d="m239.426 18.017.466 1.088c2.873 6.463 7.312 11.035 15.271 14.975l1.308.68v.38c-7.461-.258-14.321-2.747-19.448-6.476-3.023-2.543-6.307-6.09-5.844-9.505 2.949-1.02 4.954-1.261 8.247-1.142Z" fill="currentColor"/><path d="m234.614 28.28 1.856 1.064 1.177.672c.767.442 1.53.89 2.286 1.343 5.719 3.402 11.977 4.6 19.072 5.437-2.407 1.841-6.151 1.734-9.378 1.774-6.912-.018-12.35-1.74-17.525-5.235-.669-.594-.669-.594-.967-1.76.43-1.83 1.53-2.24 3.479-3.295ZM300.591 28.28c3.798 1.537 3.798 1.537 4.559 3.176-.988 2.313-3.698 3.48-6.555 4.683-6.638 2.454-14.284 3.154-21.552 1.62-.77-.192-1.539-.39-2.297-.605v-.403l.945-.11c10.076-1.203 17.504-3.167 24.9-8.362Z" fill="currentColor"/></g></symbol><symbol id="logo-margin"><g fill="none"><path d="M3.936 7.9h7.2v13.296H24.96V7.9h7.2v33.6h-7.2V27.532H11.136V41.5h-7.2V7.9Zm33.598 21.552c0-7.536 4.992-12.432 12.288-12.432 7.008 0 11.52 4.512 11.52 11.376 0 .72-.048 1.536-.192 2.496h-16.8c.48 3.264 2.592 5.328 5.568 5.328 2.352 0 4.176-1.344 4.56-3.312h7.008c-.672 5.424-5.424 9.072-11.712 9.072-7.392 0-12.24-5.088-12.24-12.528ZM49.918 22.3c-2.4 0-4.272 1.44-5.136 3.792h9.648c-.24-2.256-2.016-3.792-4.512-3.792Zm14.428 12.432c0-4.416 3.552-7.248 8.832-7.248h6.288v-2.256c0-2.016-1.44-3.312-3.744-3.312-2.688 0-3.936 1.728-4.032 3.744h-6.432c.288-4.848 4.32-8.64 10.704-8.64 6.096 0 10.512 3.456 10.512 8.928V41.5h-6.288l-.48-3.36c-.816 2.256-3.888 3.84-7.344 3.84-4.848 0-8.016-3.072-8.016-7.248Zm7.2-.192c0 1.536 1.056 2.592 3.024 2.592 2.976 0 4.848-2.4 4.896-5.424h-4.704c-2.016 0-3.216 1.2-3.216 2.832Zm21.582 6.96V6.46h7.008V41.5h-7.008Zm13.922 0v-24h7.008v24h-7.008Zm-.192-31.344c0-2.304 1.392-3.696 3.696-3.696 2.304 0 3.696 1.392 3.696 3.696 0 2.304-1.392 3.696-3.696 3.696-2.304 0-3.696-1.392-3.696-3.696Zm16.418 13.776h-4.32V17.5h4.32v-2.208c0-6.528 4.56-8.832 9.744-8.832 1.344 0 2.832.144 4.224.336v6.384a16.406 16.406 0 0 0-2.976-.288c-2.256 0-3.984.624-3.984 3.216V17.5h6.96v6.432h-6.96V41.5h-7.008V23.932Zm20.816 11.28c-2.112-4.8-4.224-10.848-4.224-16.656V17.5h7.2v1.056c0 4.8 1.488 9.696 3.12 13.632l1.68 4.08h.192l1.68-4.08c1.632-3.936 3.12-8.832 3.12-13.632V17.5h6.912v1.056c0 5.808-2.112 11.856-4.224 16.656L152.636 51.1h-7.632v-.192l4.752-9.408h-2.928l-2.736-6.288ZM267.541 7.49c6.076 5.762 8.884 13.98 9.199 22.103-.162 8.445-3.152 15.891-8.799 22.261-1.102.923-1.765 1.242-3.209 1.355-5.719-3.558-8.621-10.313-10.094-16.58-1.782-8.61-.118-16.683 4.477-24.18 4.299-6.104 4.299-6.104 8.426-4.958ZM288.001 12.473c2.211 6.194 1.609 14.867-.365 21.027-2.179 5.576-5.409 11.152-9.917 14.564h-.979c.855-3.041 1.856-6 2.879-8.97 2.031-6.527 1.648-14.873-.109-21.415-.322-1.25-.322-1.25-.322-2.946.914-.493 1.833-.973 2.754-1.447.511-.27 1.023-.538 1.549-.815 1.741-.623 2.762-.503 4.51.002Z" fill="currentColor"/><path d="M249.44 12.551c1.541.676 3.033 1.441 4.52 2.255-1.004 5.637-1.004 5.637-1.279 6.9-1.305 8.917-.009 17.31 3.79 25.23v1.128c-5.464-2.828-8.853-8.468-10.986-14.586-1.307-4.033-1.661-7.281-1.663-11.555l-.019-1.595c-.005-2.793.048-5.192 1.117-7.777 1.533-.86 2.917-.451 4.52 0ZM293.815 27.526c3.299-.18 5.307.182 8.262 1.712-.257 6.92-4.044 12.519-8.813 17.123-4.726 4.037-10.41 6.532-16.524 6.849 1.675-1.851 3.396-3.347 5.37-4.852 5.513-4.537 8.45-10.587 10.603-17.407l.622-1.929.48-1.496Z" fill="currentColor"/><path d="m239.426 27.526.466 1.632c2.873 9.695 7.312 16.552 15.271 22.462l1.308 1.02v.57c-7.461-.387-14.321-4.12-19.448-9.714-3.023-3.815-6.307-9.135-5.844-14.258 2.949-1.53 4.954-1.892 8.247-1.712Z" fill="currentColor"/><path d="m234.614 42.92 1.856 1.596 1.177 1.008c.767.663 1.53 1.334 2.286 2.015 5.719 5.102 11.977 6.9 19.072 8.155-2.407 2.761-6.151 2.6-9.378 2.661-6.912-.027-12.35-2.61-17.525-7.853-.669-.891-.669-.891-.967-2.64.43-2.745 1.53-3.358 3.479-4.943ZM300.591 42.919c3.798 2.307 3.798 2.307 4.559 4.765-.988 3.47-3.698 5.22-6.555 7.025-6.638 3.68-14.284 4.731-21.552 2.43a56.151 56.151 0 0 1-2.297-.908v-.605l.945-.165c10.076-1.803 17.504-4.75 24.9-12.542Z" fill="currentColor"/></g></symbol><symbol id="logo"><g fill="none"><path d="M5.248 9.7h9.6v17.728H33.28V9.7h9.6v44.8h-9.6V35.876H14.848V54.5h-9.6V9.7Zm44.797 28.736c0-10.048 6.656-16.576 16.384-16.576 9.344 0 15.36 6.016 15.36 15.168 0 .96-.064 2.048-.256 3.328h-22.4c.64 4.352 3.456 7.104 7.424 7.104 3.136 0 5.568-1.792 6.08-4.416h9.344c-.896 7.232-7.232 12.096-15.616 12.096-9.856 0-16.32-6.784-16.32-16.704ZM66.557 28.9c-3.2 0-5.696 1.92-6.848 5.056h12.864c-.32-3.008-2.688-5.056-6.016-5.056Zm19.238 16.576c0-5.888 4.736-9.664 11.776-9.664h8.384v-3.008c0-2.688-1.92-4.416-4.992-4.416-3.584 0-5.248 2.304-5.376 4.992h-8.576c.384-6.464 5.76-11.52 14.272-11.52 8.128 0 14.016 4.608 14.016 11.904V54.5h-8.384l-.64-4.48c-1.088 3.008-5.184 5.12-9.792 5.12-6.464 0-10.688-4.096-10.688-9.664Zm9.6-.256c0 2.048 1.408 3.456 4.032 3.456 3.968 0 6.464-3.2 6.528-7.232h-6.272c-2.688 0-4.288 1.6-4.288 3.776Zm28.776 9.28V7.78h9.344V54.5h-9.344Zm18.562 0v-32h9.344v32h-9.344Zm-.256-41.792c0-3.072 1.856-4.928 4.928-4.928s4.928 1.856 4.928 4.928-1.856 4.928-4.928 4.928-4.928-1.856-4.928-4.928Zm21.891 18.368h-5.76V22.5h5.76v-2.944c0-8.704 6.08-11.776 12.992-11.776 1.792 0 3.776.192 5.632.448v8.512a21.875 21.875 0 0 0-3.968-.384c-3.008 0-5.312.832-5.312 4.288V22.5h9.28v8.576h-9.28V54.5h-9.344V31.076Zm27.754 15.04c-2.816-6.4-5.632-14.464-5.632-22.208V22.5h9.6v1.408c0 6.4 1.984 12.928 4.16 18.176l2.24 5.44h.256l2.24-5.44c2.176-5.248 4.16-11.776 4.16-18.176V22.5h9.216v1.408c0 7.744-2.816 15.808-5.632 22.208L203.514 67.3h-10.176v-.256l6.336-12.544h-3.904l-3.648-8.384ZM267.541 7.49c6.076 5.762 8.884 13.98 9.199 22.103-.162 8.445-3.152 15.891-8.799 22.261-1.102.923-1.765 1.242-3.209 1.355-5.719-3.558-8.621-10.313-10.094-16.58-1.782-8.61-.118-16.683 4.477-24.18 4.299-6.104 4.299-6.104 8.426-4.958ZM288.001 12.473c2.211 6.194 1.609 14.867-.365 21.027-2.179 5.576-5.409 11.152-9.917 14.564h-.979c.855-3.041 1.856-6 2.879-8.97 2.031-6.527 1.648-14.873-.109-21.415-.322-1.25-.322-1.25-.322-2.946.914-.493 1.833-.973 2.754-1.447.511-.27 1.023-.538 1.549-.815 1.741-.623 2.762-.503 4.51.002Z" fill="currentColor"/><path d="M249.44 12.551c1.541.676 3.033 1.441 4.52 2.255-1.004 5.637-1.004 5.637-1.279 6.9-1.305 8.917-.009 17.31 3.79 25.23v1.128c-5.464-2.828-8.853-8.468-10.986-14.586-1.307-4.033-1.661-7.281-1.663-11.555l-.019-1.595c-.005-2.793.048-5.192 1.117-7.777 1.533-.86 2.917-.451 4.52 0ZM293.815 27.526c3.299-.18 5.307.182 8.262 1.712-.257 6.92-4.044 12.519-8.813 17.123-4.726 4.037-10.41 6.532-16.524 6.849 1.675-1.851 3.396-3.347 5.37-4.852 5.513-4.537 8.45-10.587 10.603-17.407l.622-1.929.48-1.496Z" fill="currentColor"/><path d="m239.426 27.526.466 1.632c2.873 9.695 7.312 16.552 15.271 22.462l1.308 1.02v.57c-7.461-.387-14.321-4.12-19.448-9.714-3.023-3.815-6.307-9.135-5.844-14.258 2.949-1.53 4.954-1.892 8.247-1.712Z" fill="currentColor"/><path d="m234.614 42.92 1.856 1.596 1.177 1.008c.767.663 1.53 1.334 2.286 2.015 5.719 5.102 11.977 6.9 19.072 8.155-2.407 2.761-6.151 2.6-9.378 2.661-6.912-.027-12.35-2.61-17.525-7.853-.669-.891-.669-.891-.967-2.64.43-2.745 1.53-3.358 3.479-4.943ZM300.591 42.919c3.798 2.307 3.798 2.307 4.559 4.765-.988 3.47-3.698 5.22-6.555 7.025-6.638 3.68-14.284 4.731-21.552 2.43a56.151 56.151 0 0 1-2.297-.908v-.605l.945-.165c10.076-1.803 17.504-4.75 24.9-12.542Z" fill="currentColor"/></g></symbol><symbol id="lotus"><g fill="none"><g clip-path="url(#lotus-a)" fill="currentColor"><path d="M23.375 5.844c3.718 3.595 5.436 8.723 5.629 13.793-.1 5.27-1.929 9.917-5.385 13.892-.674.576-1.08.775-1.963.846-3.5-2.221-5.275-6.436-6.177-10.347-1.09-5.374-.071-10.412 2.74-15.09 2.63-3.81 2.63-3.81 5.156-3.094Z"/><path d="M35.75 9.969c1.552 3.768 1.13 9.046-.257 12.794-1.53 3.393-3.797 6.786-6.962 8.862h-.687c.6-1.85 1.303-3.65 2.02-5.458 1.427-3.972 1.158-9.05-.076-13.03-.226-.762-.226-.762-.226-1.793.642-.3 1.287-.592 1.934-.881l1.088-.496c1.222-.379 1.938-.306 3.166.002ZM11.344 9.969a41.52 41.52 0 0 1 3.094 1.375c-.688 3.437-.688 3.437-.876 4.208-.893 5.437-.006 10.556 2.595 15.386v.687c-3.74-1.725-6.06-5.164-7.52-8.895-.895-2.46-1.137-4.44-1.139-7.046l-.012-.973c-.004-1.703.033-3.166.764-4.742 1.05-.525 1.997-.276 3.094 0Z"/><path d="M38.5 19.25c2.059-.108 3.312.11 5.156 1.031-.16 4.168-2.523 7.54-5.5 10.313-2.95 2.431-6.497 3.934-10.312 4.125 1.045-1.115 2.12-2.016 3.351-2.922 3.44-2.733 5.273-6.377 6.617-10.484l.389-1.162.299-.9ZM5.5 19.25l.291.983c1.797 5.839 4.572 9.97 9.548 13.528l.817.614v.344c-4.664-.233-8.953-2.482-12.158-5.85C2.108 26.57.055 23.366.344 20.28c1.844-.922 3.097-1.14 5.156-1.03ZM2.063 29.906l1.203.903.762.569c.498.375.993.754 1.483 1.139 3.707 2.883 7.764 3.899 12.364 4.608-1.56 1.56-3.988 1.47-6.08 1.504-4.481-.015-8.006-1.475-11.361-4.438C0 33.687 0 33.687-.193 32.699c.279-1.55.992-1.897 2.256-2.793Z"/><path d="M41.594 29.906c2.273 1.31 2.273 1.31 2.728 2.707-.591 1.972-2.213 2.966-3.923 3.991-3.973 2.09-8.55 2.688-12.899 1.38a34.624 34.624 0 0 1-1.375-.515v-.344l.566-.093c6.03-1.025 10.476-2.699 14.903-7.126Z"/></g></g></symbol><symbol id="moon"><g fill="none"><path d="M37.333 20.067c0 9.536-7.73 17.266-17.266 17.266v2.8c11.082 0 20.066-8.984 20.066-20.066h-2.8ZM20.067 37.333c-9.536 0-17.267-7.73-17.267-17.266H0c0 11.082 8.984 20.066 20.067 20.066v-2.8ZM2.8 20.067C2.8 10.53 10.53 2.8 20.067 2.8V0C8.984 0 0 8.984 0 20.067h2.8Zm23.8 4.2c-5.928 0-10.733-4.806-10.733-10.734h-2.8c0 7.475 6.059 13.534 13.533 13.534v-2.8Zm9.194-5.191a10.727 10.727 0 0 1-9.194 5.19v2.8c4.918 0 9.223-2.624 11.59-6.543l-2.396-1.447Zm-19.927-5.543c0-3.898 2.077-7.312 5.19-9.194L19.61 1.943a13.527 13.527 0 0 0-6.543 11.59h2.8Zm4.2-10.733a.717.717 0 0 1-.5-.22.532.532 0 0 1-.153-.29c-.008-.058-.004-.226.196-.347l1.448 2.396c.94-.567 1.241-1.606 1.13-2.423C22.075 1.066 21.405 0 20.068 0v2.8ZM38.19 20.523c-.12.2-.289.204-.347.196a.53.53 0 0 1-.289-.153.717.717 0 0 1-.22-.5h2.8c0-1.337-1.067-2.007-1.916-2.121-.818-.11-1.857.191-2.424 1.13l2.397 1.448Z" fill="currentColor"/></g></symbol><symbol id="plant"><g fill="none"><path d="M91.552 55.362a17.401 17.401 0 0 0-10.373.192l-11.91 3.842c-.191-.769-.768-1.73-1.728-2.69-1.921-2.113-4.994-3.457-8.068-3.457h-10.18c-.577 0-1.345-.192-1.73-.577-7.491-6.338-16.135-3.457-18.632-2.305a4.182 4.182 0 0 0-1.537.96l-11.718 9.797c-.96-.96-2.305-1.728-3.65-1.92-1.728-.193-3.457.192-4.994 1.344l-4.418 3.266c-2.881 2.305-3.458 6.339-1.345 9.412l15.368 20.362c1.152 1.345 2.69 2.305 4.418 2.497h.96c1.345 0 2.882-.384 4.034-1.345l4.418-3.265c2.305-1.729 3.266-4.994 2.113-7.492l2.305-1.729c.577-.384 1.153-.576 1.73-.576l21.706-.384c3.841 0 7.683-1.153 11.14-3.073l22.283-12.87c1.153-.577 4.61-2.882 4.226-5.955-.192-1.921-1.728-3.266-4.418-4.034ZM27.97 88.402l-4.418 3.265c-.576.576-1.345.768-1.92.768-.77-.192-1.346-.576-1.922-1.152L4.343 70.92c-.96-1.152-.768-3.073.576-4.034l4.418-3.265c.577-.385 1.153-.577 1.73-.577h.383c.769.192 1.345.385 1.73.96l10.756 14.216 4.802 6.147c.769 1.344.577 3.265-.768 4.033Zm61.853-26.51L67.541 74.764c-2.882 1.537-5.955 2.497-9.22 2.497l-21.899.384c-1.537 0-2.881.577-4.034 1.345l-1.92 1.537-4.419-5.763-8.068-10.757L29.7 54.209c.192-.192.384-.192.576-.384 1.921-.768 8.836-3.266 14.6 1.729A6.713 6.713 0 0 0 49.1 57.09h10.181c2.113 0 4.034.768 5.378 2.113.385.576.961 1.344.961 1.92 0 .385-.576 1.537-3.65 2.882H47.371c-1.152 0-1.92.768-1.92 1.92 0 1.153.768 1.922 1.92 1.922h15.56l.384-.192c2.881-1.345 4.61-2.69 5.57-4.226l13.639-4.226c2.69-.96 5.57-.96 8.068-.193 1.152.385 1.537.577 1.729.769-.385.576-1.537 1.537-2.498 2.113Z" fill="currentColor"/><path d="m11.642 67.656-3.458 2.497c-.768.576-.96 1.92-.384 2.69.384.575.96.768 1.537.768.384 0 .768-.193 1.152-.385l3.458-2.497c.768-.576.96-1.92.384-2.69-.768-.96-1.92-1.152-2.69-.383ZM46.412 21.362c3.265 2.69 7.683 3.265 11.333 3.265 2.113 0 4.226-.192 5.57-.576v11.91c-7.107.96-12.677 6.53-12.677 13.062v1.92h30.158v-1.92c0-6.915-6.147-12.486-13.83-13.062V22.13c2.689 1.152 6.915 2.496 11.14 2.496 1.922 0 3.843-.192 5.571-.96C91.745 20.4 94.434 9.068 94.627 8.492c.192-.769-.193-1.537-.769-2.113-.384-.192-10.373-6.34-18.44-3.074-4.227 1.73-7.492 5.763-9.413 9.22-.768-3.073-2.497-6.53-5.57-8.836-7.108-5.762-18.826-2.497-19.402-2.305-.768.192-1.345.96-1.345 1.73 0 .575-.576 12.677 6.724 18.248Zm30.35 25.932h-22.09c1.152-4.226 5.57-7.491 10.949-7.491 5.57 0 10.18 3.265 11.141 7.491Zm.192-40.147c4.802-1.92 11.141.768 13.639 2.113-.96 2.882-3.458 9.028-8.26 11.141-3.842 1.537-8.644.385-12.102-.96l13.83-5.379c.769-.384 1.153-.96 1.153-1.728 0-.192 0-.385-.192-.769-.384-.96-1.537-1.537-2.497-1.152l-13.83 5.378c1.728-3.265 4.417-7.107 8.26-8.644ZM58.13 6.571c3.458 2.69 4.61 7.684 4.995 11.141L51.022 8.108c-.768-.577-2.113-.577-2.69.384-.191.384-.384.768-.384 1.152 0 .577.193 1.153.769 1.537l12.102 9.605c-3.458.384-8.453.384-11.91-2.306-4.418-3.457-4.995-10.565-5.187-13.638 2.882-.768 9.99-1.729 14.407 1.729Z" fill="currentColor"/></g></symbol><symbol id="proportion"><g fill="none"><mask id="proportion-a" fill="currentColor"><path d="M20 27h3v55h-3V27Z"/></mask><path d="M20 27h3v55h-3V27Z" fill="currentColor"/><path d="M20 27v-1h-1v1h1Zm0 55h-1v1h1v-1Zm0-54h3v-2h-3v2Zm3 53h-3v2h3v-2Zm-2 1V27h-2v55h2Z" fill="currentColor" mask="url(#proportion-a)"/><path d="M12.78 75.8v-3c1.38-.08 1.82-1.42 1.82-2.64 0-1.62-.78-2.64-2.04-2.64-1.34 0-1.8 1.14-1.8 2.58v2.28h-2.2l-2.92-3.06v5.88H3V65.02h2.2l3.26 3.44c.22-2.5 1.72-4.04 4.1-4.04 2.82 0 4.64 2.18 4.64 5.7 0 2.96-1.28 5.6-4.42 5.68Zm2.68-14.004c-1.08 0-1.74-.66-1.74-1.74s.66-1.74 1.74-1.74 1.74.66 1.74 1.74-.66 1.74-1.74 1.74Zm-3.24-11.039c0 3.1-1.68 5.08-4.44 5.08-3 0-4.98-2.32-4.98-5.62 0-4.08 2.98-6.04 6.92-6.04 4.6 0 7.48 2.66 7.48 6.5 0 3.1-1.86 4.86-4.12 5.16v-3c.78-.2 1.52-.9 1.52-2.2 0-2.12-1.92-3.36-3.82-3.46v.08c.98.86 1.44 2.2 1.44 3.5Zm-6.82-.68c0 1.62.88 2.66 2.2 2.66 1.32 0 2.06-.98 2.06-2.54 0-1.64-.8-2.62-2.14-2.62-1.3 0-2.12.92-2.12 2.5Zm11.52-7.364-5.12-3.44-4.72 3.18H7v-3.38l2.66-1.66L7 35.793v-3.14h.08l4.74 3.18 5.1-3.44H17v3.38l-3.04 1.92 3.04 1.88v3.14h-.08ZM348.5 73.2h-2.4l-9.1-6.82v-3.62h8.86v-1.6h2.64v1.6h2.5v3h-2.5v7.44Zm-2.64-3.48v-3.96h-5.28l5.28 3.96Zm3.6-10.924c-1.08 0-1.74-.66-1.74-1.74s.66-1.74 1.74-1.74 1.74.66 1.74 1.74-.66 1.74-1.74 1.74Zm-2.68-5.879v-3c1.38-.08 1.82-1.42 1.82-2.64 0-1.62-.78-2.64-2.04-2.64-1.34 0-1.8 1.14-1.8 2.58v2.28h-2.2l-2.92-3.06v5.88H337v-10.18h2.2l3.26 3.44c.22-2.5 1.72-4.04 4.1-4.04 2.82 0 4.64 2.18 4.64 5.7 0 2.96-1.28 5.6-4.42 5.68Zm4.14-13.204-5.12-3.44-4.72 3.18H341v-3.38l2.66-1.66-2.66-1.62v-3.14h.08l4.74 3.18 5.1-3.44h.08v3.38l-3.04 1.92 3.04 1.88v3.14h-.08ZM242.4 16.92l3.44-5.12-3.18-4.72V7h3.38l1.66 2.66L249.32 7h3.14v.08l-3.18 4.74 3.44 5.1V17h-3.38l-1.92-3.04-1.88 3.04h-3.14v-.08ZM273.42 102.2c-4.1 0-6.14-3-6.14-6.8 0-4.74 2.58-7.6 6.42-7.6 3.1 0 4.74 1.86 5.04 4.12h-3c-.2-.78-.78-1.52-2.08-1.52-2.12 0-3.28 1.92-3.38 3.82h.08c.86-.98 2.16-1.44 3.66-1.44 2.9 0 4.92 1.72 4.92 4.54 0 2.94-2.24 4.88-5.52 4.88Zm-.16-6.86c-1.6 0-2.58.8-2.58 2.12s.98 2.14 2.58 2.14 2.58-.82 2.58-2.14c0-1.32-.98-2.12-2.58-2.12Zm7.944 5.12c0-1.08.66-1.74 1.74-1.74s1.74.66 1.74 1.74-.66 1.74-1.74 1.74-1.74-.66-1.74-1.74Zm6.079-.66 5.98-4.84c1.14-.92 1.92-1.64 1.92-2.74 0-1.24-1-1.82-2.22-1.82-1.56 0-2.48.98-2.48 2.56h-3c0-3.06 2.04-5.16 5.54-5.16 2.98 0 5.26 1.54 5.26 4.42 0 1.92-1.02 3.32-3.2 4.82l-3 2.08v.08h6.4v2.8h-11.2v-2.2Zm13.004 2.12 3.44-5.12-3.18-4.72V92h3.38l1.66 2.66 1.62-2.66h3.14v.08l-3.18 4.74 3.44 5.1v.08h-3.38l-1.92-3.04-1.88 3.04h-3.14v-.08ZM98.4 7.8V5h2c1.18 0 2.2-.42 2.2-2h2.8v11.2h2.6V17h-9.2v-2.8h3.6V7.08c-.48.6-1.24.72-2 .72h-2Zm18.604 9.4c-3.72 0-6-1.7-6-4.28 0-1.56.84-2.78 2.2-3.42-1.06-.58-1.7-1.62-1.7-2.9 0-2.3 2.08-3.8 5.5-3.8s5.5 1.5 5.5 3.8c0 1.28-.64 2.32-1.7 2.9 1.36.64 2.2 1.86 2.2 3.42 0 2.58-2.28 4.28-6 4.28Zm0-6.52c-1.8 0-2.9.74-2.9 1.94 0 1.22 1.1 1.98 2.9 1.98 1.8 0 2.9-.76 2.9-1.98 0-1.2-1.1-1.94-2.9-1.94Zm.02-5.28c-1.5 0-2.42.54-2.42 1.48s.92 1.56 2.42 1.56c1.48 0 2.38-.62 2.38-1.56 0-.94-.9-1.48-2.38-1.48Zm8.184 10.06c0-1.08.66-1.74 1.74-1.74s1.74.66 1.74 1.74-.66 1.74-1.74 1.74-1.74-.66-1.74-1.74Zm5.479-.96v-2.4l6.82-9.1h3.62v8.86h1.6v2.64h-1.6V17h-3v-2.5h-7.44Zm3.48-2.64h3.96V6.58l-3.96 5.28Zm11.124 2.94 5.98-4.84c1.14-.92 1.92-1.64 1.92-2.74 0-1.24-1-1.82-2.22-1.82-1.56 0-2.48.98-2.48 2.56h-3c0-3.06 2.04-5.16 5.54-5.16 2.98 0 5.26 1.54 5.26 4.42 0 1.92-1.02 3.32-3.2 4.82l-3 2.08v.08h6.4V17h-11.2v-2.2Zm13.004 2.12 3.44-5.12-3.18-4.72V7h3.38l1.66 2.66 1.62-2.66h3.14v.08l-3.18 4.74 3.44 5.1V17h-3.38l-1.92-3.04-1.88 3.04h-3.14v-.08Z" fill="currentColor"/><mask id="proportion-b" fill="currentColor"><path d="M327 85v-3h-74v3h74Z"/></mask><path d="M327 85v-3h-74v3h74Z" fill="currentColor"/><path d="M327 85h1v1h-1v-1Zm-74 0v1h-1v-1h1Zm73 0v-3h2v3h-2Zm-72-3v3h-2v-3h2Zm-1 2h74v2h-74v-2Z" fill="currentColor" mask="url(#proportion-b)"/><mask id="proportion-c" fill="currentColor"><path d="M27 20h214v3H27v-3Z"/></mask><path d="M27 20h214v3H27v-3Z" fill="currentColor"/><path d="M27 20v-1h-1v1h1Zm214 0h1v-1h-1v1ZM27 21h214v-2H27v2Zm213-1v3h2v-3h-2ZM28 23v-3h-2v3h2Z" fill="currentColor" mask="url(#proportion-c)"/><mask id="proportion-d" fill="currentColor"><path d="M334 26h-3v52h3V26Z"/></mask><path d="M334 26h-3v52h3V26Z" fill="currentColor"/><path d="M334 26v-1h1v1h-1Zm0 52h1v1h-1v-1Zm0-51h-3v-2h3v2Zm-3 50h3v2h-3v-2Zm2 1V26h2v52h-2Z" fill="currentColor" mask="url(#proportion-d)"/><path stroke="currentColor" stroke-width="3" d="M242 21.5h11"/></g></symbol><symbol id="stroke-logo"><g fill="none"><mask id="stroke-logo-a" maskUnits="userSpaceOnUse" x="4" y="6" width="216" height="62" fill="#000"><path fill="currentColor" d="M4 6h216v62H4z"/><path d="M5.248 9.2h9.6v17.728H33.28V9.2h9.6V54h-9.6V35.376H14.848V54h-9.6V9.2Zm44.797 28.736c0-10.048 6.656-16.576 16.384-16.576 9.344 0 15.36 6.016 15.36 15.168 0 .96-.064 2.048-.256 3.328h-22.4c.64 4.352 3.456 7.104 7.424 7.104 3.136 0 5.568-1.792 6.08-4.416h9.344c-.896 7.232-7.232 12.096-15.616 12.096-9.856 0-16.32-6.784-16.32-16.704ZM66.557 28.4c-3.2 0-5.696 1.92-6.848 5.056h12.864c-.32-3.008-2.688-5.056-6.016-5.056Zm19.238 16.576c0-5.888 4.736-9.664 11.776-9.664h8.384v-3.008c0-2.688-1.92-4.416-4.992-4.416-3.584 0-5.248 2.304-5.376 4.992h-8.576c.384-6.464 5.76-11.52 14.272-11.52 8.128 0 14.016 4.608 14.016 11.904V54h-8.384l-.64-4.48c-1.088 3.008-5.184 5.12-9.792 5.12-6.464 0-10.688-4.096-10.688-9.664Zm9.6-.256c0 2.048 1.408 3.456 4.032 3.456 3.968 0 6.464-3.2 6.528-7.232h-6.272c-2.688 0-4.288 1.6-4.288 3.776ZM124.171 54V7.28h9.344V54h-9.344Zm18.562 0V22h9.344v32h-9.344Zm-.256-41.792c0-3.072 1.856-4.928 4.928-4.928s4.928 1.856 4.928 4.928-1.856 4.928-4.928 4.928-4.928-1.856-4.928-4.928Zm21.891 18.368h-5.76V22h5.76v-2.944c0-8.704 6.08-11.776 12.992-11.776 1.792 0 3.776.192 5.632.448v8.512a21.875 21.875 0 0 0-3.968-.384c-3.008 0-5.312.832-5.312 4.288V22h9.28v8.576h-9.28V54h-9.344V30.576Zm27.754 15.04c-2.816-6.4-5.632-14.464-5.632-22.208V22h9.6v1.408c0 6.4 1.984 12.928 4.16 18.176l2.24 5.44h.256l2.24-5.44c2.176-5.248 4.16-11.776 4.16-18.176V22h9.216v1.408c0 7.744-2.816 15.808-5.632 22.208L203.514 66.8h-10.176v-.256L199.674 54h-3.904l-3.648-8.384Z"/></mask><path d="M5.248 9.2v-1h-1v1h1Zm9.6 0h1v-1h-1v1Zm0 17.728h-1v1h1v-1Zm18.432 0v1h1v-1h-1Zm0-17.728v-1h-1v1h1Zm9.6 0h1v-1h-1v1Zm0 44.8v1h1v-1h-1Zm-9.6 0h-1v1h1v-1Zm0-18.624h1v-1h-1v1Zm-18.432 0v-1h-1v1h1Zm0 18.624v1h1v-1h-1Zm-9.6 0h-1v1h1v-1Zm0-43.8h9.6v-2h-9.6v2Zm8.6-1v17.728h2V9.2h-2Zm1 18.728H33.28v-2H14.848v2Zm19.432-1V9.2h-2v17.728h2Zm-1-16.728h9.6v-2h-9.6v2Zm8.6-1V54h2V9.2h-2Zm1 43.8h-9.6v2h9.6v-2Zm-8.6 1V35.376h-2V54h2Zm-1-19.624H14.848v2H33.28v-2Zm-19.432 1V54h2V35.376h-2Zm1 17.624h-9.6v2h9.6v-2Zm-8.6 1V9.2h-2V54h2Zm75.285-14.144v1h.861l.128-.852-.989-.148Zm-22.4 0v-1h-1.158l.169 1.145.989-.145Zm13.504 2.688v-1h-.824l-.157.809.981.191Zm9.344 0 .992.123.14-1.123H81.98v1Zm-22.272-9.088-.939-.345-.494 1.345h1.433v-1Zm12.864 0v1h1.112l-.118-1.106-.994.106Zm-21.528 4.48c0-4.798 1.585-8.675 4.252-11.35 2.668-2.675 6.497-4.226 11.132-4.226v-2c-5.093 0-9.456 1.713-12.548 4.814-3.093 3.101-4.836 7.512-4.836 12.762h2ZM66.429 22.36c4.454 0 8.025 1.43 10.48 3.862 2.454 2.432 3.88 5.954 3.88 10.306h2c0-4.8-1.582-8.862-4.472-11.726-2.89-2.864-6.998-4.442-11.888-4.442v2Zm14.36 14.168c0 .913-.06 1.952-.245 3.18l1.978.296c.2-1.331.267-2.47.267-3.476h-2Zm.744 2.328h-22.4v2h22.4v-2Zm-23.39 1.145c.347 2.353 1.292 4.346 2.76 5.76 1.477 1.42 3.426 2.199 5.654 2.199v-2c-1.74 0-3.183-.597-4.267-1.64-1.091-1.051-1.874-2.61-2.168-4.61l-1.978.291Zm8.414 7.959c3.51 0 6.44-2.035 7.061-5.224l-1.962-.383c-.402 2.058-2.336 3.607-5.099 3.607v2Zm6.08-4.416h9.344v-2h-9.344v2Zm8.352-1.123c-.82 6.62-6.623 11.219-14.624 11.219v2c8.767 0 15.636-5.128 16.608-12.973l-1.984-.246ZM66.365 53.64c-4.69 0-8.5-1.609-11.138-4.328-2.641-2.723-4.182-6.636-4.182-11.376h-2c0 5.18 1.691 9.619 4.746 12.768 3.058 3.153 7.409 4.936 12.574 4.936v-2Zm.192-26.24c-3.67 0-6.508 2.231-7.787 5.711l1.878.69c1.025-2.792 3.179-4.401 5.909-4.401v-2Zm-6.848 7.056h12.864v-2H59.709v2Zm13.858-1.106c-.38-3.568-3.224-5.95-7.01-5.95v2c2.87 0 4.761 1.714 5.022 4.162l1.988-.212Zm32.388 1.962v1h1v-1h-1ZM95.587 32.88v1h.953l.046-.952-.999-.048Zm-8.576 0-.998-.06-.063 1.06h1.061v-1ZM115.299 54v1h1v-1h-1Zm-8.384 0-.99.141.123.859h.867v-1Zm-.64-4.48.99-.141-1.93-.2.94.341Zm-.32-8.576 1 .016.016-1.016h-1.016v1Zm-19.16 4.032c0-2.651 1.055-4.78 2.88-6.264 1.843-1.502 4.546-2.4 7.896-2.4v-2c-3.69 0-6.875.99-9.16 2.848-2.303 1.875-3.616 4.58-3.616 7.816h2Zm10.776-8.664h8.384v-2h-8.384v2Zm9.384-1v-3.008h-2v3.008h2Zm0-3.008c0-1.596-.578-2.984-1.68-3.963-1.089-.968-2.594-1.453-4.312-1.453v2c1.354 0 2.345.38 2.984.947.626.557 1.008 1.377 1.008 2.469h2Zm-5.992-5.416c-2.018 0-3.606.656-4.704 1.794-1.084 1.123-1.598 2.621-1.67 4.15l1.997.096c.055-1.16.437-2.157 1.113-2.858.662-.686 1.698-1.182 3.264-1.182v-2Zm-5.376 4.992h-8.576v2h8.576v-2Zm-7.578 1.06c.347-5.839 5.188-10.58 13.274-10.58v-2c-8.938 0-14.85 5.37-15.27 12.46l1.996.12Zm13.274-10.58c3.882 0 7.145 1.1 9.418 2.986 2.255 1.87 3.598 4.563 3.598 7.918h2c0-3.94-1.601-7.2-4.322-9.458-2.703-2.242-6.448-3.446-10.694-3.446v2Zm13.016 10.904V54h2V33.264h-2Zm1 19.736h-8.384v2h8.384v-2Zm-7.394.859-.64-4.48-1.98.282.64 4.48 1.98-.282Zm-2.57-4.68c-.433 1.198-1.507 2.314-3.098 3.142-1.581.823-3.596 1.319-5.754 1.319v2c2.45 0 4.787-.56 6.678-1.545 1.881-.98 3.399-2.424 4.054-4.235l-1.88-.68Zm-8.852 4.461c-3.02 0-5.437-.954-7.09-2.479-1.648-1.52-2.598-3.665-2.598-6.185h-2c0 3.048 1.162 5.736 3.242 7.655 2.075 1.915 5.001 3.009 8.446 3.009v-2Zm-2.088-8.92c0 1.264.442 2.416 1.365 3.242.912.814 2.183 1.214 3.667 1.214v-2c-1.14 0-1.885-.305-2.334-.706-.436-.39-.698-.965-.698-1.75h-2Zm5.032 4.456c2.275 0 4.167-.927 5.484-2.45 1.305-1.508 2.009-3.554 2.044-5.766l-2-.032c-.029 1.82-.605 3.39-1.556 4.49-.939 1.085-2.279 1.758-3.972 1.758v2Zm6.528-9.232h-6.272v2h6.272v-2Zm-6.272 0c-1.542 0-2.871.461-3.826 1.334-.962.877-1.462 2.098-1.462 3.442h2c0-.832.3-1.5.81-1.965.517-.472 1.332-.811 2.478-.811v-2ZM124.171 54h-1v1h1v-1Zm0-46.72v-1h-1v1h1Zm9.343 0h1v-1h-1v1Zm0 46.72v1h1v-1h-1Zm-8.343 0V7.28h-2V54h2Zm-1-45.72h9.343v-2h-9.343v2Zm8.343-1V54h2V7.28h-2Zm1 45.72h-9.343v2h9.343v-2Zm9.219 1h-1v1h1v-1Zm0-32v-1h-1v1h1Zm9.344 0h1v-1h-1v1Zm0 32v1h1v-1h-1Zm-8.344 0V22h-2v32h2Zm-1-31h9.344v-2h-9.344v2Zm8.344-1v32h2V22h-2Zm1 31h-9.344v2h9.344v-2Zm-8.6-40.792c0-1.334.399-2.289 1.019-2.909.62-.62 1.575-1.019 2.909-1.019v-2c-1.738 0-3.247.53-4.323 1.605-1.076 1.076-1.605 2.585-1.605 4.323h2Zm3.928-3.928c1.334 0 2.289.399 2.909 1.02.62.62 1.019 1.574 1.019 2.908h2c0-1.738-.529-3.247-1.605-4.323-1.076-1.076-2.585-1.605-4.323-1.605v2Zm3.928 3.928c0 1.334-.399 2.289-1.019 2.909-.62.62-1.575 1.019-2.909 1.019v2c1.738 0 3.247-.53 4.323-1.605 1.076-1.076 1.605-2.585 1.605-4.323h-2Zm-3.928 3.928c-1.334 0-2.289-.399-2.909-1.02-.62-.62-1.019-1.574-1.019-2.908h-2c0 1.738.529 3.247 1.605 4.323 1.076 1.076 2.585 1.605 4.323 1.605v-2Zm16.962 14.44h1v-1h-1v1Zm-5.76 0h-1v1h1v-1Zm0-8.576v-1h-1v1h1Zm5.76 0v1h1v-1h-1Zm18.625-14.272h1v-.872l-.864-.119-.136.991Zm0 8.512-.188.982 1.188.226V16.24h-1Zm-9.28 5.76h-1v1h1v-1Zm9.28 0h1v-1h-1v1Zm0 8.576v1h1v-1h-1Zm-9.28 0v-1h-1v1h1Zm0 23.424v1h1v-1h-1Zm-9.345 0h-1v1h1v-1Zm0-24.424h-5.76v2h5.76v-2Zm-4.76 1V22h-2v8.576h2Zm-1-7.576h5.76v-2h-5.76v2Zm6.76-1v-2.944h-2V22h2Zm0-2.944c0-4.094 1.416-6.726 3.519-8.363 2.145-1.67 5.144-2.413 8.473-2.413v-2c-3.582 0-7.079.793-9.702 2.835-2.665 2.075-4.29 5.331-4.29 9.941h2ZM177.359 8.28c1.729 0 3.663.186 5.496.439l.273-1.982c-1.879-.259-3.913-.457-5.769-.457v2Zm4.633-.552v8.512h2V7.728h-2Zm1.187 7.53a22.88 22.88 0 0 0-4.156-.402v2c1.153 0 2.498.122 3.781.366l.375-1.964Zm-4.156-.402c-1.554 0-3.134.206-4.341 1.018-1.292.868-1.97 2.293-1.97 4.27h2c0-1.48.473-2.198 1.085-2.61.697-.468 1.773-.678 3.226-.678v-2Zm-6.311 5.288V22h2v-1.856h-2Zm1 2.856h9.28v-2h-9.28v2Zm8.28-1v8.576h2V22h-2Zm1 7.576h-9.28v2h9.28v-2Zm-10.28 1V54h2V30.576h-2Zm1 22.424h-9.345v2h9.345v-2Zm-8.345 1V30.576h-2V54h2Zm26.755-8.384.917-.399-.002-.004-.915.403ZM186.49 22v-1h-1v1h1Zm9.6 0h1v-1h-1v1Zm4.16 19.584.925-.38-.001-.003-.924.383Zm2.24 5.44-.925.38.255.62h.67v-1Zm.256 0v1h.67l.255-.62-.925-.38Zm2.24-5.44-.924-.383-.001.002.925.381ZM209.146 22v-1h-1v1h1Zm9.216 0h1v-1h-1v1Zm-5.632 23.616-.915-.403-.002.004.917.399ZM203.514 66.8v1h.655l.262-.601-.917-.399Zm-10.176 0h-1v1h1v-1Zm0-.256-.893-.45-.107.212v.238h1ZM199.674 54l.893.45.732-1.45h-1.625v1Zm-3.904 0-.917.399.262.601h.655v-1Zm-2.733-8.787c-2.801-6.366-5.547-14.274-5.547-21.805h-2c0 7.957 2.886 16.177 5.717 22.61l1.83-.805Zm-5.547-21.805V22h-2v1.408h2Zm-1-.408h9.6v-2h-9.6v2Zm8.6-1v1.408h2V22h-2Zm0 1.408c0 6.588 2.037 13.256 4.236 18.559l1.848-.766c-2.153-5.193-4.084-11.581-4.084-17.793h-2Zm4.235 18.557 2.24 5.44 1.85-.762-2.24-5.44-1.85.762Zm3.165 6.059h.256v-2h-.256v2Zm1.181-.62 2.24-5.44-1.85-.76-2.24 5.44 1.85.76Zm2.239-5.437c2.199-5.303 4.236-11.971 4.236-18.559h-2c0 6.212-1.931 12.6-4.084 17.793l1.848.766Zm4.236-18.559V22h-2v1.408h2Zm-1-.408h9.216v-2h-9.216v2Zm8.216-1v1.408h2V22h-2Zm0 1.408c0 7.53-2.746 15.439-5.547 21.805l1.83.806c2.831-6.434 5.717-14.654 5.717-22.611h-2Zm-5.549 21.81L202.597 66.4l1.834.798 9.216-21.184-1.834-.798ZM203.514 65.8h-10.176v2h10.176v-2Zm-9.176 1v-.256h-2v.256h2Zm-.107.195 6.336-12.544-1.786-.902-6.336 12.544 1.786.902ZM199.674 53h-3.904v2h3.904v-2Zm-2.987.601-3.648-8.384-1.834.798 3.648 8.384 1.834-.798Z" fill="currentColor" mask="url(#stroke-logo-a)"/><path d="M267.541 6.99c6.076 5.762 8.884 13.98 9.199 22.103-.162 8.445-3.152 15.891-8.799 22.261-1.102.923-1.765 1.242-3.209 1.355-5.719-3.558-8.621-10.313-10.094-16.58-1.782-8.61-.118-16.683 4.477-24.18 4.299-6.104 4.299-6.104 8.426-4.958ZM288.001 11.973c2.211 6.194 1.609 14.867-.365 21.027-2.179 5.576-5.409 11.152-9.917 14.564h-.979c.855-3.041 1.856-6 2.879-8.97 2.031-6.527 1.648-14.873-.109-21.415-.322-1.25-.322-1.25-.322-2.946.914-.493 1.833-.973 2.754-1.447.511-.27 1.023-.538 1.549-.815 1.741-.623 2.762-.503 4.51.002Z" fill="currentColor"/><path d="M249.44 12.051c1.541.676 3.033 1.441 4.52 2.255-1.004 5.637-1.004 5.637-1.279 6.9-1.305 8.917-.009 17.31 3.79 25.23v1.128c-5.464-2.828-8.853-8.468-10.986-14.586-1.307-4.033-1.661-7.281-1.663-11.555l-.019-1.595c-.005-2.793.048-5.192 1.117-7.777 1.533-.86 2.917-.451 4.52 0ZM293.815 27.026c3.299-.18 5.307.182 8.262 1.712-.257 6.92-4.044 12.519-8.813 17.123-4.726 4.037-10.41 6.532-16.524 6.849 1.675-1.851 3.396-3.347 5.37-4.852 5.513-4.537 8.45-10.587 10.603-17.407l.622-1.929.48-1.496Z" fill="currentColor"/><path d="m239.426 27.026.466 1.632c2.873 9.695 7.312 16.552 15.271 22.462l1.308 1.02v.57c-7.461-.387-14.321-4.12-19.448-9.714-3.023-3.815-6.307-9.135-5.844-14.258 2.949-1.53 4.954-1.892 8.247-1.712Z" fill="currentColor"/><path d="m234.614 42.42 1.856 1.596 1.177 1.008c.767.663 1.53 1.334 2.286 2.015 5.719 5.102 11.977 6.9 19.072 8.155-2.407 2.761-6.151 2.6-9.378 2.661-6.912-.027-12.35-2.61-17.525-7.853-.669-.891-.669-.891-.967-2.64.43-2.745 1.53-3.358 3.479-4.943ZM300.591 42.419c3.798 2.307 3.798 2.307 4.559 4.765-.988 3.47-3.698 5.22-6.555 7.025-6.638 3.68-14.284 4.731-21.552 2.43a56.151 56.151 0 0 1-2.297-.908v-.605l.945-.165c10.076-1.803 17.504-4.75 24.9-12.542Z" fill="currentColor"/></g></symbol><symbol id="sun"><g fill="none"><path d="M22 2v7.733M22 34v8M10 22H2m11.111-8.889L7.556 7.556m23.333 5.555 2.778-2.778 2.777-2.777m-22.71 22.71-6.178 6.179m22.71-6.178 6.178 6.178M42 22H34.267m-3.378 0a8.889 8.889 0 1 1-17.778 0 8.889 8.889 0 0 1 17.778 0Z" stroke="currentColor" stroke-width="2.4" stroke-linecap="round" stroke-linejoin="round"/></g></symbol><symbol id="telegram"><g fill="none"><g clip-path="url(#telegram-a)"><path d="M40 0C17.91 0 0 17.91 0 40s17.91 40 40 40 40-17.91 40-40S62.09 0 40 0Zm19.647 27.403L53.08 58.337c-.483 2.193-1.79 2.726-3.613 1.693l-10-7.367-4.82 4.647c-.467.6-1.19.983-2 .983h-.017l.71-10.18 18.533-16.74c.8-.71-.18-1.113-1.243-.403L27.733 45.39l-9.866-3.08c-2.134-.677-2.194-2.133.45-3.18L56.87 24.27c1.793-.653 3.353.427 2.773 3.137l.004-.004Z" fill="currentColor"/></g></g></symbol></svg>